<svg width="20" height="20" viewBox="0 0 20 20" fill="none" xmlns="http://www.w3.org/2000/svg">
<g clip-path="url(#clip0_854_2702)">
<path d="M10 9.375C9.1712 9.375 8.37634 9.04576 7.79029 8.45971C7.20424 7.87366 6.875 7.0788 6.875 6.25C6.875 5.4212 7.20424 4.62634 7.79029 4.04029C8.37634 3.45424 9.1712 3.125 10 3.125C10.8288 3.125 11.6237 3.45424 12.2097 4.04029C12.7958 4.62634 13.125 5.4212 13.125 6.25C13.125 7.0788 12.7958 7.87366 12.2097 8.45971C11.6237 9.04576 10.8288 9.375 10 9.375ZM10 4.375C8.9625 4.375 8.125 5.2125 8.125 6.25C8.125 7.2875 8.9625 8.125 10 8.125C11.0375 8.125 11.875 7.2875 11.875 6.25C11.875 5.2125 11.0375 4.375 10 4.375Z" fill="#6B7280"/>
<path d="M17.5 14.375C17.15 14.375 16.875 14.1 16.875 13.75C16.875 13.4 17.15 13.125 17.5 13.125C17.85 13.125 18.125 12.85 18.125 12.5C18.125 11.6712 17.7958 10.8763 17.2097 10.2903C16.6237 9.70424 15.8288 9.375 15 9.375H13.75C13.4 9.375 13.125 9.1 13.125 8.75C13.125 8.4 13.4 8.125 13.75 8.125C14.7875 8.125 15.625 7.2875 15.625 6.25C15.625 5.2125 14.7875 4.375 13.75 4.375C13.4 4.375 13.125 4.1 13.125 3.75C13.125 3.4 13.4 3.125 13.75 3.125C14.5788 3.125 15.3737 3.45424 15.9597 4.04029C16.5458 4.62634 16.875 5.4212 16.875 6.25C16.875 7.025 16.6 7.725 16.125 8.275C17.9875 8.775 19.375 10.475 19.375 12.5C19.375 13.5375 18.5375 14.375 17.5 14.375ZM2.5 14.375C1.4625 14.375 0.625 13.5375 0.625 12.5C0.625 10.475 2 8.775 3.875 8.275C3.4125 7.725 3.125 7.025 3.125 6.25C3.125 5.4212 3.45424 4.62634 4.04029 4.04029C4.62634 3.45424 5.4212 3.125 6.25 3.125C6.6 3.125 6.875 3.4 6.875 3.75C6.875 4.1 6.6 4.375 6.25 4.375C5.2125 4.375 4.375 5.2125 4.375 6.25C4.375 7.2875 5.2125 8.125 6.25 8.125C6.6 8.125 6.875 8.4 6.875 8.75C6.875 9.1 6.6 9.375 6.25 9.375H5C4.1712 9.375 3.37634 9.70424 2.79029 10.2903C2.20424 10.8763 1.875 11.6712 1.875 12.5C1.875 12.85 2.15 13.125 2.5 13.125C2.85 13.125 3.125 13.4 3.125 13.75C3.125 14.1 2.85 14.375 2.5 14.375ZM13.75 18.125H6.25C5.2125 18.125 4.375 17.2875 4.375 16.25V15C4.375 12.5875 6.3375 10.625 8.75 10.625H11.25C13.6625 10.625 15.625 12.5875 15.625 15V16.25C15.625 17.2875 14.7875 18.125 13.75 18.125ZM8.75 11.875C7.9212 11.875 7.12634 12.2042 6.54029 12.7903C5.95424 13.3763 5.625 14.1712 5.625 15V16.25C5.625 16.6 5.9 16.875 6.25 16.875H13.75C14.1 16.875 14.375 16.6 14.375 16.25V15C14.375 14.1712 14.0458 13.3763 13.4597 12.7903C12.8737 12.2042 12.0788 11.875 11.25 11.875H8.75Z" fill="#6B7280"/>
</g>
<defs>
<clipPath id="clip0_854_2702">
<rect width="18.75" height="18.75" fill="white" transform="translate(0.625 0.625)"/>
</clipPath>
</defs>
</svg>
