<svg width="20" height="20" viewBox="0 0 20 20" fill="none" xmlns="http://www.w3.org/2000/svg">
<path d="M9.58325 2.91602H8.74992C5.60742 2.91602 4.03575 2.91602 3.05992 3.89268C2.08409 4.86935 2.08325 6.44018 2.08325 9.58268V11.2493C2.08325 14.3918 2.08325 15.9635 3.05992 16.9393C4.03659 17.9152 5.60742 17.916 8.74992 17.916H10.4166C13.5591 17.916 15.1308 17.916 16.1066 16.9393C17.0824 15.9627 17.0833 14.3918 17.0833 11.2493V10.416" stroke="#6B7280" stroke-width="1.25" stroke-linecap="round" stroke-linejoin="round"/>
<path d="M6.25 10.4163H9.58333M6.25 13.7497H12.9167M17.9167 4.99967C17.9167 5.77322 17.6094 6.51509 17.0624 7.06207C16.5154 7.60905 15.7735 7.91634 15 7.91634C14.2265 7.91634 13.4846 7.60905 12.9376 7.06207C12.3906 6.51509 12.0833 5.77322 12.0833 4.99967C12.0833 4.22613 12.3906 3.48426 12.9376 2.93728C13.4846 2.3903 14.2265 2.08301 15 2.08301C15.7735 2.08301 16.5154 2.3903 17.0624 2.93728C17.6094 3.48426 17.9167 4.22613 17.9167 4.99967Z" stroke="#6B7280" stroke-width="1.25" stroke-linecap="round" stroke-linejoin="round"/>
</svg>
