<svg width="20" height="20" viewBox="0 0 20 20" fill="none" xmlns="http://www.w3.org/2000/svg">
<path d="M10.6251 2.29199V3.75033H12.2709C12.5634 3.75033 12.8493 3.83866 13.0909 4.00283L14.5051 4.96449C14.5401 4.98783 14.579 4.99977 14.6218 5.00033H18.0401C18.2059 5.00033 18.3648 5.06617 18.482 5.18338C18.5992 5.30059 18.6651 5.45957 18.6651 5.62533C18.6651 5.79109 18.5992 5.95006 18.482 6.06727C18.3648 6.18448 18.2059 6.25033 18.0401 6.25033H16.7251L19.5301 12.6503C19.5862 12.7783 19.5978 12.9214 19.5631 13.0567C19.5283 13.1921 19.4492 13.3119 19.3384 13.397C19.2551 13.4587 19.169 13.5159 19.0801 13.5687C18.8691 13.6955 18.6491 13.8067 18.4218 13.9012C17.668 14.2164 16.8588 14.3776 16.0418 14.3753C15.225 14.3789 14.4158 14.2179 13.6626 13.902C13.4352 13.8072 13.2152 13.6958 13.0043 13.5687C12.9156 13.5178 12.8302 13.4616 12.7484 13.4003L12.7443 13.397C12.6334 13.3119 12.5543 13.1921 12.5196 13.0567C12.4849 12.9214 12.4965 12.7783 12.5526 12.6503L15.3593 6.25033H14.6209C14.3284 6.25033 14.0426 6.16199 13.8009 5.99783L12.3868 5.03616C12.3523 5.01284 12.3117 5.00036 12.2701 5.00033H10.6251V17.0837H14.3643C14.53 17.0837 14.689 17.1495 14.8062 17.2667C14.9234 17.3839 14.9893 17.5429 14.9893 17.7087C14.9893 17.8744 14.9234 18.0334 14.8062 18.1506C14.689 18.2678 14.53 18.3337 14.3643 18.3337H5.63593C5.47017 18.3337 5.3112 18.2678 5.19398 18.1506C5.07677 18.0334 5.01093 17.8744 5.01093 17.7087C5.01093 17.5429 5.07677 17.3839 5.19398 17.2667C5.3112 17.1495 5.47017 17.0837 5.63593 17.0837H9.37509V5.00033H7.72926C7.68767 5.00036 7.64703 5.01284 7.61259 5.03616L6.19926 5.99783C5.95759 6.16199 5.67176 6.25033 5.37926 6.25033H4.64093L7.44759 12.6503C7.50192 12.7747 7.5143 12.9133 7.48288 13.0453C7.45146 13.1773 7.37794 13.2955 7.27343 13.382C7.20676 13.4362 7.14009 13.487 7.01509 13.5678C6.80447 13.7045 6.58384 13.8251 6.35509 13.9287C5.60264 14.2712 4.78517 14.4474 3.95843 14.4453C3.13168 14.4474 2.31422 14.2712 1.56176 13.9287C1.33301 13.8251 1.11239 13.7045 0.90176 13.5678C0.813058 13.5105 0.727128 13.4491 0.64426 13.3837C0.540356 13.2963 0.467263 13.1779 0.435755 13.0459C0.404248 12.9138 0.415993 12.7752 0.46926 12.6503L3.27509 6.25033H1.96093C1.79517 6.25033 1.6362 6.18448 1.51899 6.06727C1.40177 5.95006 1.33593 5.79109 1.33593 5.62533C1.33593 5.45957 1.40177 5.30059 1.51899 5.18338C1.6362 5.06617 1.79517 5.00033 1.96093 5.00033H5.37926C5.42148 5.00033 5.46065 4.98838 5.49676 4.96449L6.90926 4.00283C7.15093 3.83783 7.43759 3.75033 7.73009 3.75033H9.37509V2.29199C9.37509 2.12623 9.44094 1.96726 9.55815 1.85005C9.67536 1.73284 9.83433 1.66699 10.0001 1.66699C10.1659 1.66699 10.3248 1.73284 10.442 1.85005C10.5592 1.96726 10.6251 2.12623 10.6251 2.29199ZM1.82759 12.6653C2.48329 13.0149 3.21535 13.1967 3.95843 13.1945C4.7015 13.1967 5.43357 13.0149 6.08926 12.6653L3.95843 7.80699L1.82759 12.6653ZM13.9193 12.6453C13.9876 12.6787 14.064 12.7137 14.1484 12.7503C14.5901 12.9362 15.2359 13.1253 16.0418 13.1253C16.7764 13.1273 17.502 12.9632 18.1643 12.6453L16.0418 7.80616L13.9193 12.6453Z" fill="#6B7280"/>
</svg>
