<svg width="134" height="135" viewBox="0 0 134 135" fill="none" xmlns="http://www.w3.org/2000/svg">
<g filter="url(#filter0_d_19_3917)">
<rect x="3" width="127.251" height="127.251" rx="28" fill="#1A1A1A"/>
<path d="M54.3126 63.6254H60.4689M72.7816 63.6254V69.7817M66.6253 75.9381H72.7816M66.6253 63.648L66.6458 63.6254M78.9379 63.648L78.9584 63.6254M66.6253 69.8043L66.6458 69.7817M78.9379 69.8043L78.9584 69.7817M78.9379 75.9606L78.9584 75.9381M66.6253 57.4916L66.6458 57.469M66.6253 51.3353L66.6458 51.3127M78.9379 45.1564H85.0943V51.3127M78.9379 82.0944H85.0943V75.9381M54.3126 45.1564H48.1562V51.3127M54.3126 82.0944H48.1562V75.9381M60.4689 52.544V56.2378C60.4689 56.5643 60.3392 56.8775 60.1083 57.1084C59.8774 57.3393 59.5642 57.469 59.2377 57.469H55.5439C55.2173 57.469 54.9041 57.3393 54.6732 57.1084C54.4423 56.8775 54.3126 56.5643 54.3126 56.2378V52.544C54.3126 52.2174 54.4423 51.9042 54.6732 51.6733C54.9041 51.4424 55.2173 51.3127 55.5439 51.3127H59.2377C59.5642 51.3127 59.8774 51.4424 60.1083 51.6733C60.3392 51.9042 60.4689 52.2174 60.4689 52.544ZM60.4689 71.013V74.7068C60.4689 75.0333 60.3392 75.3465 60.1083 75.5774C59.8774 75.8083 59.5642 75.9381 59.2377 75.9381H55.5439C55.2173 75.9381 54.9041 75.8083 54.6732 75.5774C54.4423 75.3465 54.3126 75.0333 54.3126 74.7068V71.013C54.3126 70.6864 54.4423 70.3733 54.6732 70.1423C54.9041 69.9114 55.2173 69.7817 55.5439 69.7817H59.2377C59.5642 69.7817 59.8774 69.9114 60.1083 70.1423C60.3392 70.3733 60.4689 70.6864 60.4689 71.013ZM78.9379 52.544V56.2378C78.9379 56.5643 78.8082 56.8775 78.5773 57.1084C78.3464 57.3393 78.0332 57.469 77.7067 57.469H74.0129C73.6863 57.469 73.3731 57.3393 73.1422 57.1084C72.9113 56.8775 72.7816 56.5643 72.7816 56.2378V52.544C72.7816 52.2174 72.9113 51.9042 73.1422 51.6733C73.3731 51.4424 73.6863 51.3127 74.0129 51.3127H77.7067C78.0332 51.3127 78.3464 51.4424 78.5773 51.6733C78.8082 51.9042 78.9379 52.2174 78.9379 52.544Z" stroke="white" stroke-width="3.07817" stroke-linecap="round" stroke-linejoin="round"/>
</g>
<defs>
<filter id="filter0_d_19_3917" x="0.029458" y="0" width="133.192" height="134.03" filterUnits="userSpaceOnUse" color-interpolation-filters="sRGB">
<feFlood flood-opacity="0" result="BackgroundImageFix"/>
<feColorMatrix in="SourceAlpha" type="matrix" values="0 0 0 0 0 0 0 0 0 0 0 0 0 0 0 0 0 0 127 0" result="hardAlpha"/>
<feOffset dy="3.80839"/>
<feGaussianBlur stdDeviation="1.48527"/>
<feComposite in2="hardAlpha" operator="out"/>
<feColorMatrix type="matrix" values="0 0 0 0 0.101961 0 0 0 0 0.101961 0 0 0 0 0.101961 0 0 0 0.24 0"/>
<feBlend mode="normal" in2="BackgroundImageFix" result="effect1_dropShadow_19_3917"/>
<feBlend mode="normal" in="SourceGraphic" in2="effect1_dropShadow_19_3917" result="shape"/>
</filter>
</defs>
</svg>
