<svg width="250" height="249" viewBox="0 0 250 249" fill="none" xmlns="http://www.w3.org/2000/svg">
<path d="M245.659 106.457C238.909 62.2811 211.238 8.00808 156.571 2.32819C156.571 2.32819 115.065 -2.72026 74.1493 4.9313C49.8658 9.47248 28.5728 22.9907 15.0994 42.4198C1.62579 61.849 -2.87468 85.5401 2.58727 108.127C6.13479 122.797 8.53195 137.979 7.87411 153.054C7.04454 172.065 5.4821 192.054 13.8863 209.782C26.2003 235.757 56.2456 243.409 82.462 245.849C92.123 246.748 101.82 247.111 111.489 247.875C130.039 249.342 150.841 246.969 168.719 242.139C259.831 217.527 252.408 150.632 245.659 106.457Z" fill="#F4F7FA" fill-opacity="0.21"/>
<path d="M103.692 217.107C105.803 217.224 110.496 215.617 111.546 214.693C118.539 208.548 132.377 197.894 133.602 188.13C133.811 186.463 126.724 183.562 125.972 181.857C121.902 178.911 120.308 178.141 117.814 173.44C110.454 159.56 136.582 140.918 112.572 128.2C94.9849 118.885 78.0188 122.388 85.411 93.7736C92.8033 65.1588 79.6268 8.06677 45.2622 22.6026C25.5401 30.9449 38.795 58.9075 26.3792 75.4113C14.5812 91.0942 19.264 106.679 35.6934 120.457C52.1228 134.235 40.837 140.386 32.4531 155.815C22.3823 174.348 52.0738 183.477 66.1411 186.523C77.4693 188.976 104.66 202.863 103.692 217.107Z" fill="url(#paint0_linear_19_4572)"/>
<mask id="mask0_19_4572" style="mask-type:luminance" maskUnits="userSpaceOnUse" x="19" y="20" width="115" height="198">
<path d="M103.692 217.107C105.803 217.224 110.496 215.617 111.546 214.693C118.539 208.548 132.377 197.894 133.602 188.13C133.811 186.463 126.724 183.562 125.972 181.857C121.902 178.911 120.308 178.141 117.814 173.44C110.454 159.56 136.582 140.918 112.572 128.2C94.9849 118.885 78.0188 122.388 85.411 93.7736C92.8033 65.1588 79.6268 8.06677 45.2622 22.6026C25.5401 30.9449 38.795 58.9075 26.3792 75.4113C14.5812 91.0942 19.264 106.679 35.6934 120.457C52.1228 134.235 40.837 140.386 32.4531 155.815C22.3823 174.348 52.0738 183.477 66.1411 186.523C77.4693 188.976 104.66 202.863 103.692 217.107Z" fill="white"/>
</mask>
<g mask="url(#mask0_19_4572)">
<path d="M122.162 202.196L122.429 201.835C66.7877 160.658 41.6057 90.9321 55.0674 15.3169L54.6248 15.2379C48.2451 51.0742 50.6787 86.9529 61.6626 118.995C73.2098 152.681 94.1302 181.452 122.162 202.196Z" fill="#FCFDFE"/>
<path d="M27.3835 163.038C46.1482 160.519 75.7608 165.855 93.3948 174.932L93.6004 174.533C75.8971 165.42 46.1656 160.064 27.324 162.592L27.3835 163.038Z" fill="#FCFDFE"/>
<path d="M111.332 193.988L111.689 193.715C105.426 185.526 103.544 174.485 106.094 160.9C107.965 150.939 112.13 139.867 118.476 127.991L118.079 127.779C111.712 139.696 107.531 150.811 105.653 160.817C103.078 174.533 104.988 185.693 111.332 193.988Z" fill="#FCFDFE"/>
<path d="M60.2802 114.386L60.6507 114.132C49.6397 98.0894 30.5227 90.7945 16.4242 87.4998L16.322 87.9378C30.3431 91.2143 49.3509 98.4625 60.2802 114.386Z" fill="#FCFDFE"/>
<path d="M51.7119 70.6763L52.1587 70.7261C54.5925 48.9412 70.4788 32.2963 79.7316 24.3133L79.4381 23.9729C70.1353 31.9989 54.1629 48.7387 51.7119 70.6763Z" fill="#FCFDFE"/>
</g>
<path d="M110.21 227.141C108.128 226.778 103.919 224.152 103.104 223.016C97.6792 215.451 86.6033 201.947 87.6146 192.159C87.7873 190.488 95.3465 189.262 96.464 187.77C101.094 185.819 102.821 185.429 106.311 181.412C116.616 169.553 95.3713 145.493 121.632 138.524C140.868 133.42 156.605 140.664 155.864 111.119C155.123 81.574 180.849 28.9309 211.045 50.8501C228.374 63.4296 209.149 87.6777 217.518 106.558C225.47 124.5 217.39 138.625 198.274 148.338C179.158 158.051 188.764 166.591 193.448 183.514C199.074 203.843 168.088 206.033 153.696 205.824C142.107 205.656 112.483 213.046 110.21 227.141Z" fill="url(#paint1_linear_19_4572)"/>
<mask id="mask1_19_4572" style="mask-type:luminance" maskUnits="userSpaceOnUse" x="87" y="45" width="134" height="183">
<path d="M110.21 227.141C108.128 226.778 103.919 224.152 103.104 223.016C97.6792 215.451 86.6033 201.947 87.6146 192.159C87.7873 190.488 95.3465 189.262 96.464 187.77C101.094 185.819 102.821 185.429 106.311 181.412C116.616 169.553 95.3713 145.493 121.632 138.524C140.868 133.42 156.605 140.664 155.864 111.119C155.123 81.574 180.849 28.9309 211.045 50.8501C228.374 63.4296 209.149 87.6777 217.518 106.558C225.47 124.5 217.39 138.625 198.274 148.338C179.158 158.051 188.764 166.591 193.448 183.514C199.074 203.843 168.088 206.033 153.696 205.824C142.107 205.656 112.483 213.046 110.21 227.141Z" fill="white"/>
</mask>
<g mask="url(#mask1_19_4572)">
<path d="M95.5833 208.445L95.4045 208.032C158.906 180.482 199.18 118.241 203.137 41.5388L203.586 41.5617C201.711 77.9131 191.24 112.316 173.305 141.051C154.45 171.261 127.575 194.565 95.5833 208.445Z" fill="#FCFDFE"/>
<path d="M196.755 191.695C179.044 185.006 148.991 183.518 129.763 188.38L129.653 187.944C148.957 183.064 179.13 184.558 196.914 191.275L196.755 191.695Z" fill="#FCFDFE"/>
<path d="M107.987 202.894L107.701 202.547C115.651 195.983 119.977 185.653 120.559 171.843C120.987 161.716 119.428 149.99 115.927 136.988L116.362 136.871C119.874 149.917 121.438 161.69 121.008 171.861C120.421 185.805 116.039 196.245 107.987 202.894Z" fill="#FCFDFE"/>
<path d="M175.692 136.873L175.389 136.542C189.737 123.399 210.008 120.609 224.486 120.582L224.487 121.032C210.088 121.058 189.935 123.828 175.692 136.873Z" fill="#FCFDFE"/>
<path d="M193.908 96.2262L193.461 96.1739C196.009 74.4019 184.291 54.6001 177.079 44.7342L177.442 44.4688C184.692 54.3881 196.473 74.3018 193.908 96.2262Z" fill="#FCFDFE"/>
</g>
<path d="M65.0099 54.0497L74.878 53.3866L75.3935 63.8701H59.1294L62.6682 55.8386C63.0905 54.8801 63.9743 54.2051 65.0099 54.0497Z" fill="url(#paint2_linear_19_4572)"/>
<path d="M73.4148 54.6632C73.7897 53.805 74.6527 53.2647 75.5885 53.3023L157.034 56.5706C158.119 56.6146 159.099 57.2314 159.608 58.1906L164.007 66.4802L69.7715 62.9999L73.4148 54.6632Z" fill="url(#paint3_linear_19_4572)"/>
<path d="M43.9956 69.3995V226.788C43.9956 230.272 46.3882 233.299 49.7774 234.104L66.8267 238.152L85.4998 109.649L67.3641 59.7839L50.557 61.9418C46.8054 62.4236 43.9956 65.6172 43.9956 69.3995Z" fill="url(#paint4_linear_19_4572)"/>
<path d="M62.0654 66.3339V231.505C62.0654 235.309 65.2951 238.313 70.0459 240.217L171.41 232.863C173.877 230.435 176.529 227.584 176.529 224.151V70.7893C176.529 67.2839 173.769 64.3999 170.267 64.2459L68.9027 59.7904C65.1762 59.6267 62.0654 62.6037 62.0654 66.3339Z" fill="url(#paint5_linear_19_4572)"/>
<path d="M54.3781 229.921V67.7383C54.3781 64.9275 56.497 62.076 59.1295 60.8414L56.1179 61.228C53.4361 62.2114 51.5671 64.7771 51.5671 67.7382V229.921C51.5671 231.941 52.4402 233.791 53.8605 235.073L58.1362 236.088C55.8726 234.921 54.3781 232.566 54.3781 229.921Z" fill="url(#paint6_linear_19_4572)"/>
<path d="M170.267 64.246L85.5117 60.5206C85.5352 61.5316 85.6033 62.5589 85.7287 63.6022C88.0068 82.5608 105.692 85.5891 112.5 106.704C118.739 126.052 106.192 130.649 113.571 147.664C120.486 163.609 133.4 163.944 141.146 184.074C144.544 192.906 142.829 194.846 145.697 204.152C148.15 212.114 152.744 221.512 161.671 231.321L170.453 230.684C173.877 230.435 176.529 227.585 176.529 224.151V70.7894C176.529 67.2839 173.769 64.4 170.267 64.246Z" fill="url(#paint7_linear_19_4572)"/>
<path d="M77.6692 83.3359V128.003C77.6692 131.174 80.239 133.743 83.4092 133.743H158.267C161.437 133.743 164.007 131.174 164.007 128.003V86.8176C164.007 83.7512 161.597 81.2262 158.534 81.0838L83.6759 77.6021C80.4047 77.4498 77.6692 80.061 77.6692 83.3359Z" fill="url(#paint8_linear_19_4572)"/>
<path d="M161.412 128.003V86.8176C161.412 83.7512 159.002 81.2263 155.938 81.0838L82.5 77.6681C79.7747 78.1019 77.6692 80.463 77.6692 83.3359V128.003C77.6692 131.174 80.239 133.744 83.4092 133.744H155.672C158.842 133.744 161.412 131.174 161.412 128.003Z" fill="#D8DEE8"/>
<path opacity="0.7" d="M134.826 87.1984V89.8925C134.826 91.0575 135.748 92.0137 136.912 92.0563L154.534 92.701C155.76 92.7459 156.779 91.7641 156.779 90.5373V87.8431C156.779 86.6781 155.857 85.7219 154.693 85.6793L137.071 85.0346C135.845 84.9898 134.826 85.9715 134.826 87.1984Z" fill="#F4F7FA"/>
<path d="M169.897 72.4369C169.897 73.9524 168.848 75.181 167.554 75.181C166.261 75.181 165.212 73.9524 165.212 72.4369C165.212 70.9214 166.26 69.6928 167.554 69.6928C168.848 69.6928 169.897 70.9214 169.897 72.4369Z" fill="url(#paint9_linear_19_4572)"/>
<path d="M135.075 175.184L134.987 168.526C134.956 166.204 133.049 164.348 130.728 164.378L112.573 164.619C110.251 164.65 108.395 166.557 108.425 168.878L108.518 175.813C108.549 178.159 110.495 180.026 112.84 179.959L130.992 179.442C133.288 179.376 135.106 177.481 135.075 175.184Z" fill="url(#paint10_linear_19_4572)"/>
<path d="M108.157 148.644L108.271 157.26C108.302 159.581 110.209 161.438 112.53 161.407L130.685 161.166C133.007 161.136 134.863 159.229 134.833 156.907L134.721 148.533C134.691 146.233 132.818 144.385 130.518 144.385H112.36C110.016 144.385 108.126 146.301 108.157 148.644Z" fill="url(#paint11_linear_19_4572)"/>
<path d="M138.285 174.965C138.316 177.311 140.262 179.178 142.608 179.111L161.131 178.583C162.71 178.538 163.968 177.25 163.975 175.671C163.989 172.62 164.007 168.196 164.007 168.196C164.007 165.853 162.091 163.962 159.748 163.993L142.347 164.224C140.025 164.255 138.169 166.162 138.199 168.483L138.285 174.965Z" fill="url(#paint12_linear_19_4572)"/>
<path d="M108.672 187.432L108.764 194.357C108.795 196.729 110.781 198.604 113.15 198.501L131.298 197.708C133.568 197.609 135.348 195.724 135.318 193.453L135.23 186.804C135.199 184.458 133.252 182.591 130.907 182.658L112.755 183.175C110.459 183.24 108.641 185.136 108.672 187.432Z" fill="url(#paint13_linear_19_4572)"/>
<path d="M77.6692 176.636C77.6692 179.004 79.6249 180.905 81.9923 180.838L101.224 180.29C103.52 180.224 105.338 178.329 105.308 176.032L105.213 168.921C105.182 166.6 103.276 164.743 100.954 164.774L80.8621 165.04C79.101 165.064 77.6846 166.494 77.6814 168.256C77.6753 171.676 77.6692 176.636 77.6692 176.636Z" fill="url(#paint14_linear_19_4572)"/>
<path d="M135.583 213.445L135.472 205.076C135.441 202.705 133.455 200.829 131.086 200.933L112.938 201.726C110.668 201.825 108.888 203.709 108.918 205.981L109.034 214.696C109.066 217.099 111.102 218.986 113.5 218.835L131.644 217.696C133.88 217.556 135.613 215.686 135.583 213.445Z" fill="url(#paint15_linear_19_4572)"/>
<path d="M105.71 206.377C105.679 204.006 103.693 202.13 101.324 202.233L80.8045 203.13C79.0872 203.205 77.731 204.613 77.7218 206.333C77.701 210.273 77.6692 216.61 77.6692 216.61C77.6692 219.035 79.7157 220.957 82.1361 220.805L101.889 219.565C104.126 219.424 105.859 217.554 105.829 215.314L105.71 206.377Z" fill="url(#paint16_linear_19_4572)"/>
<path d="M105.059 157.303L104.943 148.533C104.912 146.233 103.039 144.385 100.74 144.385H81.8728C79.5514 144.385 77.6694 146.267 77.6694 148.588V157.61C77.6694 159.954 79.5855 161.845 81.9287 161.813L100.912 161.561C103.233 161.531 105.09 159.624 105.059 157.303Z" fill="url(#paint17_linear_19_4572)"/>
<path d="M138.68 204.68L138.788 212.828C138.82 215.231 140.856 217.118 143.254 216.967L160.067 215.911C162.282 215.772 164.007 213.935 164.007 211.716V203.885C164.007 201.491 162.011 199.581 159.62 199.686L142.699 200.425C140.43 200.524 138.65 202.409 138.68 204.68Z" fill="url(#paint18_linear_19_4572)"/>
<path d="M164.007 186.04C164.007 183.671 162.051 181.771 159.684 181.838L142.523 182.327C140.227 182.392 138.409 184.288 138.439 186.585L138.525 193.057C138.557 195.428 140.543 197.304 142.912 197.2L161.16 196.403C162.718 196.335 163.949 195.06 163.959 193.501C163.98 190.461 164.007 186.04 164.007 186.04Z" fill="url(#paint19_linear_19_4572)"/>
<path d="M138.045 156.865C138.076 159.186 139.982 161.043 142.304 161.012L161.106 160.762C162.705 160.741 163.991 159.443 163.994 157.844C164 154.255 164.007 148.588 164.007 148.588C164.007 146.267 162.125 144.385 159.804 144.385H142.139C139.795 144.385 137.905 146.301 137.936 148.644L138.045 156.865Z" fill="url(#paint20_linear_19_4572)"/>
<path d="M105.462 187.652C105.431 185.306 103.485 183.439 101.139 183.506L80.8331 184.084C79.0942 184.134 77.7083 185.553 77.7014 187.293C77.6879 190.695 77.6692 195.66 77.6692 195.66C77.6692 198.054 79.6649 199.964 82.0561 199.86L101.537 199.008C103.806 198.909 105.586 197.025 105.556 194.753L105.462 187.652Z" fill="url(#paint21_linear_19_4572)"/>
<path d="M136.488 175.286L136.399 168.628C136.369 166.306 134.462 164.45 132.14 164.48L113.985 164.721C111.664 164.752 109.807 166.659 109.838 168.98L109.93 175.915C109.961 178.261 111.907 180.128 114.253 180.061L132.404 179.544C134.7 179.478 136.518 177.583 136.488 175.286Z" fill="url(#paint22_linear_19_4572)"/>
<path d="M109.569 148.746L109.684 157.362C109.714 159.683 111.621 161.54 113.942 161.509L132.098 161.268C134.419 161.237 136.276 159.331 136.245 157.009L136.134 148.635C136.103 146.335 134.231 144.487 131.931 144.487H113.772C111.429 144.487 109.538 146.403 109.569 148.746Z" fill="url(#paint23_linear_19_4572)"/>
<path d="M139.698 175.067C139.729 177.413 141.675 179.28 144.02 179.213L162.544 178.685C164.122 178.64 165.38 177.352 165.387 175.773C165.401 172.722 165.419 168.298 165.419 168.298C165.419 165.955 163.503 164.064 161.16 164.095L143.759 164.326C141.437 164.357 139.581 166.264 139.611 168.585L139.698 175.067Z" fill="url(#paint24_linear_19_4572)"/>
<path d="M110.084 187.534L110.176 194.459C110.208 196.831 112.193 198.706 114.563 198.603L132.711 197.81C134.98 197.711 136.761 195.826 136.73 193.555L136.642 186.906C136.611 184.559 134.665 182.693 132.319 182.76L114.168 183.277C111.872 183.342 110.054 185.238 110.084 187.534Z" fill="url(#paint25_linear_19_4572)"/>
<path d="M79.0815 176.738C79.0815 179.106 81.0373 181.007 83.4046 180.94L102.636 180.392C104.932 180.326 106.75 178.431 106.72 176.134L106.625 169.023C106.595 166.702 104.688 164.845 102.367 164.876L82.2746 165.142C80.5134 165.166 79.097 166.596 79.0938 168.358C79.0877 171.778 79.0815 176.738 79.0815 176.738Z" fill="url(#paint26_linear_19_4572)"/>
<path d="M136.996 213.547L136.885 205.178C136.853 202.807 134.867 200.931 132.498 201.035L114.35 201.828C112.08 201.927 110.3 203.811 110.33 206.083L110.446 214.798C110.478 217.201 112.514 219.088 114.913 218.937L133.056 217.798C135.292 217.658 137.026 215.788 136.996 213.547Z" fill="url(#paint27_linear_19_4572)"/>
<path d="M107.123 206.479C107.091 204.108 105.106 202.232 102.736 202.335L82.2169 203.232C80.4995 203.307 79.1432 204.715 79.1342 206.434C79.1133 210.375 79.0815 216.712 79.0815 216.712C79.0815 219.137 81.128 221.059 83.5483 220.907L103.302 219.666C105.538 219.526 107.271 217.656 107.241 215.415L107.123 206.479Z" fill="url(#paint28_linear_19_4572)"/>
<path d="M106.471 157.404L106.355 148.635C106.324 146.335 104.451 144.487 102.152 144.487H83.2849C80.9634 144.487 79.0815 146.369 79.0815 148.69V157.712C79.0815 160.056 80.9977 161.946 83.3408 161.915L102.324 161.663C104.645 161.633 106.502 159.726 106.471 157.404Z" fill="url(#paint29_linear_19_4572)"/>
<path d="M140.092 204.782L140.2 212.93C140.232 215.332 142.268 217.22 144.667 217.069L161.479 216.013C163.694 215.874 165.419 214.037 165.419 211.818V203.987C165.419 201.594 163.424 199.683 161.032 199.788L144.112 200.527C141.842 200.626 140.062 202.511 140.092 204.782Z" fill="url(#paint30_linear_19_4572)"/>
<path d="M165.42 186.142C165.42 183.773 163.464 181.872 161.096 181.94L143.935 182.429C141.64 182.494 139.821 184.39 139.852 186.686L139.938 193.158C139.969 195.53 141.955 197.406 144.324 197.302L162.573 196.505C164.13 196.437 165.361 195.162 165.372 193.603C165.393 190.563 165.42 186.142 165.42 186.142Z" fill="url(#paint31_linear_19_4572)"/>
<path d="M139.457 156.967C139.488 159.288 141.395 161.145 143.716 161.114L162.518 160.864C164.118 160.843 165.404 159.545 165.406 157.945C165.413 154.356 165.419 148.69 165.419 148.69C165.419 146.369 163.538 144.487 161.216 144.487H143.551C141.208 144.487 139.317 146.403 139.348 148.746L139.457 156.967Z" fill="url(#paint32_linear_19_4572)"/>
<path d="M106.874 187.754C106.843 185.407 104.897 183.541 102.552 183.608L82.2456 184.186C80.5067 184.236 79.1208 185.655 79.114 187.394C79.1004 190.796 79.0818 195.762 79.0818 195.762C79.0818 198.156 81.0775 200.066 83.4687 199.962L102.949 199.11C105.219 199.011 106.999 197.127 106.969 194.855L106.874 187.754Z" fill="url(#paint33_linear_19_4572)"/>
<g opacity="0.3">
<path d="M161.216 144.487H143.551C141.208 144.487 139.317 146.403 139.348 148.746L139.457 156.967C139.488 159.288 141.395 161.145 143.716 161.114L162.518 160.864C164.117 160.843 165.403 159.545 165.406 157.945C165.413 154.356 165.419 148.69 165.419 148.69C165.419 146.369 163.538 144.487 161.216 144.487Z" fill="#F4F7FA"/>
<path d="M161.16 164.095L143.759 164.326C141.437 164.357 139.581 166.264 139.611 168.585L139.698 175.067C139.729 177.413 141.675 179.28 144.02 179.213L162.544 178.685C164.122 178.64 165.38 177.352 165.387 175.773C165.401 172.722 165.419 168.298 165.419 168.298C165.419 165.955 163.503 164.064 161.16 164.095Z" fill="#F4F7FA"/>
<path d="M165.419 211.818V203.987C165.419 201.594 163.424 199.683 161.033 199.788L144.704 200.501C144.958 201.592 145.277 202.791 145.696 204.152C146.889 208.024 148.591 212.235 151.048 216.668L161.48 216.013C163.694 215.874 165.419 214.037 165.419 211.818Z" fill="#F4F7FA"/>
<path d="M144.079 197.3C144.161 197.301 144.242 197.306 144.324 197.302L162.572 196.505C164.13 196.437 165.361 195.162 165.372 193.603C165.392 190.563 165.419 186.142 165.419 186.142C165.419 183.773 163.464 181.872 161.096 181.94L143.935 182.429C142.782 182.462 141.749 182.957 141.011 183.733C141.055 183.847 141.101 183.958 141.145 184.074C143.509 190.217 143.4 193.028 144.079 197.3Z" fill="#F4F7FA"/>
<path d="M132.14 164.48L127.315 164.545C130.451 167.401 133.617 170.49 136.482 174.858L136.399 168.628C136.368 166.306 134.462 164.45 132.14 164.48Z" fill="#F4F7FA"/>
<path d="M136.245 157.009L136.134 148.635C136.103 146.335 134.231 144.487 131.931 144.487H113.772C113.307 144.487 112.86 144.565 112.442 144.705C112.751 145.65 113.124 146.634 113.571 147.665C116.288 153.93 119.932 157.785 123.824 161.378L132.098 161.268C134.419 161.237 136.276 159.331 136.245 157.009Z" fill="#F4F7FA"/>
</g>
<path opacity="0.4" d="M158.267 133.743C161.437 133.743 164.007 131.174 164.007 128.003V86.8176C164.007 83.7511 161.597 81.2262 158.534 81.0837L91.7542 77.9777C98.1781 86.3287 107.862 92.3202 112.5 106.704C116.652 119.581 112.484 125.925 111.407 133.743H158.267Z" fill="white"/>
<path d="M160.43 74.1179V74.2797C160.43 75.6641 159.234 76.7385 157.851 76.6791L83.7463 73.4957C82.4352 73.4393 81.3533 72.302 81.3533 70.9556V70.7982C81.3533 69.4517 82.3979 68.4038 83.709 68.4579L157.859 71.5078C159.242 71.5648 160.43 72.7333 160.43 74.1179Z" fill="url(#paint34_linear_19_4572)"/>
<path d="M158.605 74.0513V74.2129C158.605 75.5958 157.515 76.6691 156.134 76.6097L83.7191 73.4963C82.4084 73.4399 81.3533 72.3019 81.3533 70.9556V70.7982C81.3533 69.4517 82.3979 68.4038 83.709 68.4579L156.11 71.4414C157.491 71.4983 158.605 72.6682 158.605 74.0513Z" fill="url(#paint35_linear_19_4572)"/>
<path d="M159.076 11.4556L156.868 67.8038L156.744 70.9961C156.617 74.2142 154.034 76.5848 150.842 76.4451L82.3691 73.3495C86.0973 72.9374 86.2923 69.6152 86.2923 69.6152C86.2923 69.6152 86.4506 11.3279 86.4537 9.32318L91.2211 14.6085L94.8362 10.6294L98.6178 14.8045L99.981 13.3247L102.311 10.7913L106.144 15.0061L109.916 10.9581L113.802 15.21L117.658 11.1301L121.597 15.4162L125.534 11.3009L129.528 15.6281L133.555 11.477L137.604 15.8425L141.719 11.655L145.825 16.0627L150.033 11.8382L154.199 16.2852L159.076 11.4556Z" fill="#BFC8D6"/>
<path d="M159.705 11.4556L157.497 67.8038L157.373 70.9961C157.246 74.2142 154.663 76.5848 151.471 76.4451L82.9983 73.3495C86.7264 72.9374 86.9215 69.6152 86.9215 69.6152C86.9215 69.6152 87.0798 11.3279 87.0829 9.32318L91.8503 14.6085L95.4653 10.6294L99.2469 14.8045L100.61 13.3247L102.94 10.7913L106.773 15.0061L110.545 10.9581L114.431 15.21L118.287 11.1301L122.226 15.4162L126.163 11.3009L130.157 15.6281L134.184 11.477L138.233 15.8425L142.349 11.655L146.454 16.0627L150.662 11.8382L154.829 16.2852L159.705 11.4556Z" fill="white"/>
<path d="M149.79 45.7423L140.626 45.378C140.017 45.3538 139.523 45.8281 139.504 46.4543L139.378 50.7119C139.358 51.381 139.89 51.9636 140.543 51.9867L149.679 52.3114C150.295 52.3333 150.794 51.8614 150.816 51.2357L150.966 47.0311C150.989 46.3556 150.454 45.7687 149.79 45.7423Z" fill="url(#paint36_linear_19_4572)"/>
<path d="M149.488 54.0541L140.363 53.7122C139.761 53.6896 139.276 54.1538 139.258 54.7696L139.128 59.1772C139.108 59.844 139.643 60.4285 140.296 60.4529L149.392 60.7931C150.001 60.8159 150.493 60.3538 150.515 59.7369L150.671 55.344C150.695 54.6688 150.154 54.0791 149.488 54.0541Z" fill="url(#paint37_linear_19_4572)"/>
<path d="M151.435 33.7842L151.714 25.9181C151.738 25.2321 151.203 24.6478 150.536 24.6305L141.269 24.3911C140.648 24.3751 140.142 24.8727 140.123 25.5165L139.891 33.3709C139.871 34.0468 140.4 34.6262 141.053 34.6444L150.273 34.9006C150.9 34.9181 151.412 34.4264 151.435 33.7842Z" fill="url(#paint38_linear_19_4572)"/>
<path d="M130.956 44.9937L96.2225 43.6131C95.6715 43.5912 95.2348 44.0434 95.2307 44.6393L95.1992 49.2025C95.1949 49.8391 95.6869 50.3922 96.2764 50.4132L130.901 51.6439C131.492 51.6649 131.966 51.2024 131.982 50.5895L132.094 46.2553C132.111 45.5935 131.593 45.0191 130.956 44.9937Z" fill="url(#paint39_linear_19_4572)"/>
<path d="M130.733 53.3511L96.1487 52.0548C95.6049 52.0345 95.1769 52.4769 95.1728 53.0628L95.1416 57.5928C95.1373 58.2272 95.632 58.7823 96.2218 58.8044L130.697 60.0937C131.281 60.1156 131.749 59.6626 131.764 59.0583L131.879 54.6136C131.896 53.9523 131.372 53.375 130.733 53.3511Z" fill="url(#paint40_linear_19_4572)"/>
<path d="M132.428 33.28L132.632 25.399C132.649 24.7271 132.131 24.1552 131.491 24.1387L96.3828 23.232C95.8222 23.2175 95.3752 23.6912 95.371 24.3035L95.3167 32.1936C95.3122 32.8363 95.8012 33.3866 96.3917 33.4031L131.325 34.374C131.926 34.3907 132.412 33.9088 132.428 33.28Z" fill="url(#paint41_linear_19_4572)"/>
<path opacity="0.5" d="M157.497 67.8038L157.373 70.9961C157.247 74.2142 154.663 76.5848 151.471 76.4451L82.9985 73.3495C86.7267 72.9374 86.9217 69.6152 86.9217 69.6152C86.9217 69.6152 87.08 11.3279 87.0831 9.32318L91.8505 14.6085L95.4656 10.6294L99.2471 14.8045L100.61 13.3247C103.321 15.7154 105.889 19.0067 107.826 23.5284C108.697 25.5638 109.44 27.8458 110.007 30.4074C110.271 31.603 110.539 32.7321 110.81 33.8039C111.945 38.2587 113.15 41.6833 114.522 44.3399C116.262 47.7107 118.271 49.846 120.731 51.2821C122.122 52.0957 123.66 52.6874 125.377 53.1498C127.296 53.6718 129.444 54.0381 131.862 54.38C133.955 54.6775 136.25 54.9607 138.787 55.3166C138.937 55.3377 139.088 55.3589 139.238 55.3834C143.765 56.0803 147.544 57.5979 150.52 59.5947C153.927 61.877 156.278 64.7845 157.497 67.8038Z" fill="url(#paint42_linear_19_4572)"/>
<g opacity="0.7">
<path d="M118.901 127.535C121.003 127.535 122.706 125.831 122.706 123.73C122.706 121.629 121.003 119.925 118.901 119.925C116.8 119.925 115.096 121.629 115.096 123.73C115.096 125.831 116.8 127.535 118.901 127.535Z" fill="url(#paint43_linear_19_4572)"/>
<path d="M118.901 91.838C110.951 91.838 103.682 94.7479 98.0976 99.5595C96.9516 100.547 96.8695 102.292 97.9391 103.362L98.0464 103.469C98.998 104.421 100.527 104.491 101.545 103.611C106.202 99.5889 112.265 97.1533 118.901 97.1533C125.537 97.1533 131.601 99.5889 136.257 103.611C137.275 104.49 138.804 104.421 139.756 103.469L139.863 103.362C140.933 102.292 140.85 100.547 139.704 99.5595C134.12 94.7479 126.851 91.838 118.901 91.838Z" fill="url(#paint44_linear_19_4572)"/>
<path d="M118.901 100.697C113.409 100.697 108.369 102.622 104.412 105.831C103.228 106.792 103.152 108.575 104.231 109.654L104.249 109.672C105.194 110.617 106.689 110.669 107.73 109.831C110.787 107.369 114.671 105.894 118.901 105.894C123.131 105.894 127.015 107.369 130.072 109.831C131.113 110.669 132.608 110.617 133.553 109.672L133.571 109.654C134.649 108.575 134.574 106.792 133.39 105.831C129.433 102.622 124.393 100.697 118.901 100.697Z" fill="url(#paint45_linear_19_4572)"/>
<path d="M110.568 115.991C111.503 116.926 112.955 117.032 114.062 116.308C115.453 115.4 117.115 114.871 118.901 114.871C120.687 114.871 122.349 115.4 123.74 116.308C124.848 117.032 126.299 116.926 127.234 115.991L127.246 115.979C128.393 114.832 128.212 112.926 126.873 112.012C124.602 110.462 121.858 109.556 118.901 109.556C115.944 109.556 113.2 110.462 110.929 112.012C109.59 112.926 109.41 114.832 110.556 115.979L110.568 115.991Z" fill="url(#paint46_linear_19_4572)"/>
</g>
<path d="M211.887 229.385C213.657 230.815 213.757 231.832 213.7 232.327C213.607 233.126 213.005 233.436 211.565 234.943C209.616 236.982 209.914 237.255 208.922 237.992C206.732 239.62 203.634 239.512 203.447 238.959C203.316 238.57 204.717 238.253 206.311 236.407C207.782 234.703 208.28 233.015 208.413 232.52C208.655 231.619 208.718 230.841 208.73 230.302L211.887 229.385Z" fill="url(#paint47_linear_19_4572)"/>
<path d="M205.958 225.025L209.444 231.099C210.283 231.471 211.086 231.283 211.83 230.2L210.47 222.816L205.958 225.025Z" fill="url(#paint48_linear_19_4572)"/>
<path d="M201.733 147.124C198.337 152.856 192.829 163.919 191.715 178.879C190.615 193.645 194.34 204.899 195.9 209.096C198.823 216.959 203.907 225.216 206.861 229.151C208.853 228.318 210.025 227.012 212.017 226.179C211.718 225.095 210.794 221.516 210.213 219.384C209.762 217.733 208.932 214.677 208.761 214.024C207.331 208.555 208.46 204.451 208.067 197.687C207.607 189.799 205.8 190.716 206.072 185.98C206.478 178.909 210.485 177.258 215.085 167.022C218.233 160.016 221.54 152.658 218.501 148.635C214.675 143.571 203.033 146.755 201.733 147.124Z" fill="url(#paint49_linear_19_4572)"/>
<path d="M226.305 234.94C227.367 235.615 228.008 237.22 227.524 238.231C227.048 239.224 225.836 238.91 222.892 239.815C219.739 240.784 219.115 241.763 216.79 241.761C215.851 241.76 214.149 241.599 214.006 240.967C213.906 240.523 214.629 240.081 217.009 238.482C220.388 236.212 220.353 236.149 221.107 235.801C223.001 234.926 224.903 234.048 226.305 234.94Z" fill="url(#paint50_linear_19_4572)"/>
<path d="M221.261 230.129L222.556 236.041C222.737 236.306 224.58 236.938 225.871 236.041L225.395 230.129H221.261Z" fill="url(#paint51_linear_19_4572)"/>
<path opacity="0.3" d="M218.501 148.635C214.675 143.571 203.033 146.755 201.733 147.124C200.338 149.479 198.587 152.748 196.93 156.804C201.056 155.993 202.847 156.729 203.682 157.708C206.921 161.506 196.779 169.893 198.865 182.619C199.68 187.596 201.809 189.836 201.42 195.915C201.13 200.439 199.724 202.729 198.753 206.041C198.17 208.028 197.719 210.471 197.697 213.424C200.614 219.837 204.448 225.936 206.861 229.151C208.853 228.318 210.025 227.012 212.017 226.179C211.718 225.095 210.794 221.516 210.213 219.384C209.762 217.733 208.932 214.677 208.761 214.024C207.331 208.555 208.46 204.451 208.067 197.687C207.608 189.799 205.8 190.716 206.072 185.98C206.478 178.909 210.485 177.258 215.085 167.022C218.233 160.016 221.54 152.658 218.501 148.635Z" fill="url(#paint52_linear_19_4572)"/>
<path d="M210.826 150.231C210.498 163.422 210.995 178.707 213.166 195.554C214.933 209.27 217.502 221.645 220.333 232.502C220.724 232.723 222.098 233.434 223.856 233.101C225.101 232.866 225.935 232.221 226.305 231.893C225.996 229.675 225.683 226.319 225.94 222.264C226.38 215.293 228.021 213.873 228.726 206.659C229.344 200.333 228.693 195.165 228.377 192.768C227.406 185.393 226.088 185.241 226.062 180.824C226.021 174.022 229.131 171.586 230.841 165.105C231.981 160.782 232.586 154.328 229.718 145.477C223.421 147.062 217.123 148.646 210.826 150.231Z" fill="url(#paint53_linear_19_4572)"/>
<path d="M204.096 97.5991C201.783 98.8977 198.571 101.049 195.577 104.478C188.671 112.386 184.401 125.398 188.839 129.656C191.859 132.552 199.02 131.675 201.487 128.237C203.301 125.709 201.995 122.604 201.369 118.19C200.695 113.441 200.719 106.553 204.096 97.5991Z" fill="url(#paint54_linear_19_4572)"/>
<path d="M230.911 148.659C228.354 114.955 220.202 101.158 220.914 97.0627C219.889 96.3251 215.835 95.1525 206.652 96.3614C205.867 96.6496 203.772 97.495 201.696 99.393C201.696 99.393 201.213 99.8331 200.553 100.606C207.004 101.824 213.576 105.498 215.942 110.702C220.04 120.654 212.429 131.777 215.942 140.558C217.788 145.173 220.741 149.263 224.266 153.087C228.296 152.081 231.059 150.601 230.911 148.659Z" fill="url(#paint55_linear_19_4572)"/>
<path opacity="0.3" d="M229.718 145.477C227.874 145.941 226.031 146.405 224.188 146.869C225.152 150.191 226.078 155.175 224.964 160.835C223.427 168.649 219.455 170.364 218.87 177.411C218.345 183.751 221.338 185.044 222.771 193.5C224.239 202.165 222.017 206.241 221.552 213.488C221.234 218.448 221.75 224.938 224.768 232.835C225.513 232.54 226.034 232.133 226.305 231.893C225.996 229.675 225.683 226.319 225.939 222.264C226.38 215.293 228.021 213.873 228.726 206.659C229.343 200.333 228.693 195.165 228.377 192.768C227.406 185.393 226.088 185.241 226.061 180.824C226.021 174.022 229.131 171.586 230.841 165.105C231.981 160.782 232.586 154.328 229.718 145.477Z" fill="url(#paint56_linear_19_4572)"/>
<path d="M201.695 99.3931C201.695 99.3931 199.252 101.617 197.827 104.883C195.681 109.804 197.992 114.029 198.686 122.065C199.446 130.881 198.371 145.567 195.89 150.828C195.847 150.92 195.74 151.182 195.783 151.513C196.454 156.598 231.426 155.446 230.911 148.659C228.354 114.955 220.202 101.158 220.914 97.0629C219.888 96.3252 215.835 95.1527 206.651 96.3614C205.867 96.6497 203.772 97.4951 201.695 99.3931Z" fill="url(#paint57_linear_19_4572)"/>
<path d="M212.091 87.898C212.091 87.898 214.349 94.9868 215.081 95.8398C215.812 96.6928 212.145 98.9225 209.334 97.9172C206.753 96.9941 209.336 93.0598 209.336 93.0598L212.091 87.898Z" fill="white"/>
<path d="M203.175 91.7547C201.653 91.1095 200.444 89.1441 200.706 87.3082C200.931 85.7286 202.185 84.7965 202.935 84.2383C205.109 82.6207 208.613 81.8921 210.876 83.445C212.218 84.3653 212.435 87.7646 212.504 88.3581C212.583 89.0294 212.268 89.4574 212.113 90.0889C211.898 90.9645 211.57 92.349 211.056 94.6447C210.693 94.2652 210.213 93.8128 209.611 93.37C209.38 93.1997 208.463 92.5405 207.43 92.1523C205.358 91.3741 204.618 92.3665 203.175 91.7547Z" fill="url(#paint58_linear_19_4572)"/>
<path d="M212.297 92.2464C212.297 92.2464 212.219 95.6459 209.054 97.2123C206.221 98.6147 202.277 92.7225 203.269 90.4135C203.601 89.6434 204.662 88.789 205.763 88.5061C206.413 88.339 206.737 88.462 207.795 88.1685C208.77 87.8976 208.956 87.665 209.336 87.7323C209.812 87.8166 210.429 88.3415 210.93 90.4411C211.146 89.6122 211.654 89.0477 212.218 89.0005C212.308 88.9931 212.57 89.0122 212.787 89.1443C213.574 89.623 213.452 90.8859 212.297 92.2464Z" fill="white"/>
<path d="M209.248 87.2945C209.173 87.4689 209.86 87.7275 210.292 88.4053C211.132 89.7215 210.703 92.1322 209.389 93.0764C208.612 93.6344 208.098 93.2687 206.652 93.9132C205.757 94.3122 205.117 94.8256 204.731 95.1778C205.16 96.9059 206.417 98.1489 207.803 98.2611C209.295 98.3818 210.397 97.1473 210.857 96.6309C211.166 96.2854 212.155 95.1814 212.145 93.694C212.135 92.1442 211.076 91.8187 211.382 90.5895C211.536 89.9695 211.941 89.5051 211.988 88.4509C212 88.1645 211.982 87.9279 211.964 87.7719C210.828 87.4331 209.356 87.042 209.248 87.2945Z" fill="url(#paint59_linear_19_4572)"/>
<path d="M206.04 95.153C206.04 95.153 206.808 95.1196 207.794 94.4727C207.842 94.4412 207.905 94.4242 207.926 94.4461C208.006 94.5292 207.603 95.341 206.902 95.5203C206.405 95.6476 205.838 95.4353 205.836 95.2989C205.835 95.2414 205.935 95.191 206.04 95.153Z" fill="white"/>
<path opacity="0.4" d="M221.05 118.899C217.234 120.239 212.17 124.004 211.83 128.828C211.308 136.238 222.343 140.303 220.873 145.495C220.472 146.911 219.204 148.188 210.943 151.169C207.601 152.376 204.495 153.359 201.676 154.173C211.784 155.663 231.296 153.741 230.911 148.659C229.932 135.756 228.133 125.78 226.326 118.14C224.494 118.068 222.714 118.315 221.05 118.899Z" fill="url(#paint60_linear_19_4572)"/>
<path d="M209.035 134.059C215.242 140.362 224.105 142.347 230.919 139.194C240.381 134.816 241.844 122.401 239.638 114.632C235.955 101.661 219.902 94.0963 214.845 97.5518C211.188 100.051 211.223 109.719 215.581 114.558C219.499 118.908 225.517 117.809 227.153 122.241C228.379 125.56 226.01 128.905 225.807 129.183C223.172 132.79 217.43 134.014 212 131.537C211.011 132.378 210.023 133.219 209.035 134.059Z" fill="url(#paint61_linear_19_4572)"/>
<path d="M196.744 123.198C197.249 121.574 198.892 120.742 200.184 120.562C201.449 120.386 203.532 120.674 204.362 122.327C205.138 123.873 204.528 126.037 202.744 127.21C202.493 126.587 202.043 125.767 201.251 125.519C199.793 125.061 198.53 126.96 197.454 126.464C196.595 126.069 196.373 124.39 196.744 123.198Z" fill="white"/>
<path d="M202.705 133.041L207.482 133.872C208.407 134.033 209.202 133.206 209.004 132.288L207.266 124.206C207.141 123.622 206.639 123.194 206.042 123.162L200.322 122.856C199.378 122.805 198.687 123.731 199.003 124.622L201.683 132.179C201.843 132.63 202.233 132.959 202.705 133.041Z" fill="url(#paint62_linear_19_4572)"/>
<path d="M211.042 132.352C210.65 129.538 209.464 128.801 209.035 128.592C208.315 128.241 207.96 128.514 205.447 128.474C203.202 128.438 202.67 128.208 202.386 128.592C201.848 129.319 202.953 131.231 204.206 132.352C205.962 133.923 208.139 134.057 209.035 134.06L211.042 132.352Z" fill="white"/>
<path d="M68.7454 184.199C68.3376 184.199 67.9892 183.889 67.9497 183.475C67.2489 176.122 64.8515 169.135 61.1991 163.802C57.9636 159.078 54.1115 156.259 50.893 156.259C50.8893 156.259 50.886 156.259 50.8823 156.259C39.1598 156.281 36.7076 183.195 36.6842 183.467C36.6463 183.908 36.2604 184.234 35.8183 184.196C35.3779 184.158 35.0516 183.77 35.0894 183.33C35.1898 182.161 37.6997 154.684 50.8791 154.658C50.8838 154.658 50.8885 154.658 50.8931 154.658C54.6958 154.658 58.9325 157.66 62.5196 162.898C66.3226 168.451 68.8169 175.705 69.543 183.323C69.5848 183.763 69.2622 184.154 68.8222 184.196C68.7965 184.198 68.7707 184.199 68.7454 184.199Z" fill="url(#paint63_linear_19_4572)"/>
<path d="M19.9091 239.59L35.3405 247.403L44.6904 218.711L29.2844 180.246L24.9159 181.317L18.2875 236.56C18.1375 237.81 18.7855 239.021 19.9091 239.59Z" fill="url(#paint64_linear_19_4572)"/>
<path opacity="0.35" d="M44.6903 218.711L29.2844 180.246L26.7076 180.877C26.3503 186.013 26.5074 190.24 26.75 193.317C27.7828 206.414 31.2127 210.058 29.5511 219.194C28.1695 226.791 25.1524 227.822 25.4161 232.933C25.7034 238.499 29.5859 243.161 34.2018 246.826L35.3404 247.403L44.6903 218.711Z" fill="url(#paint65_linear_19_4572)"/>
<path d="M29.2844 180.246H86.8222L105.864 241.72L35.3406 247.403L29.2844 180.246Z" fill="url(#paint66_linear_19_4572)"/>
<path d="M47.1088 185.515C46.7455 185.515 46.4168 185.266 46.3302 184.897C46.1667 184.2 42.3864 167.727 47.7167 159.643C49.2444 157.326 51.3788 155.912 54.0605 155.439C67.8397 153.011 76.3233 182.606 76.6777 183.867C76.7972 184.292 76.5493 184.734 76.1238 184.854C75.6978 184.974 75.2563 184.725 75.1368 184.3C75.0538 184.005 66.7029 154.832 54.3386 157.015C52.0758 157.414 50.3469 158.562 49.0529 160.524C44.0981 168.039 47.8501 184.367 47.8886 184.531C47.9894 184.962 47.7224 185.392 47.2921 185.493C47.2308 185.508 47.1693 185.515 47.1088 185.515Z" fill="url(#paint67_linear_19_4572)"/>
<g opacity="0.35">
<path d="M86.8221 180.246H58.2781C56.8704 181.678 55.8713 183.328 55.7758 185.179C55.3273 193.877 75.3225 196.734 77.2509 208.655C78.642 217.254 70.0825 227.177 62.4451 231.597C54.3985 236.255 48.9464 233.896 43.5043 239.067C41.1131 241.339 39.6572 244.18 38.7913 247.125L105.865 241.72L86.8221 180.246Z" fill="url(#paint68_linear_19_4572)"/>
</g>
<path d="M47.1143 187.872C48.3496 187.872 49.351 186.871 49.351 185.635C49.351 184.4 48.3496 183.399 47.1143 183.399C45.8791 183.399 44.8777 184.4 44.8777 185.635C44.8777 186.871 45.8791 187.872 47.1143 187.872Z" fill="url(#paint69_linear_19_4572)"/>
<path d="M76.2828 187.664C77.518 187.664 78.5194 186.663 78.5194 185.428C78.5194 184.193 77.518 183.191 76.2828 183.191C75.0475 183.191 74.0461 184.193 74.0461 185.428C74.0461 186.663 75.0475 187.664 76.2828 187.664Z" fill="url(#paint70_linear_19_4572)"/>
<defs>
<linearGradient id="paint0_linear_19_4572" x1="58.4709" y1="25.5276" x2="118.046" y2="406.382" gradientUnits="userSpaceOnUse">
<stop stop-color="#FF9085"/>
<stop offset="1" stop-color="#FB6FBB"/>
</linearGradient>
<linearGradient id="paint1_linear_19_4572" x1="87.5497" y1="136.396" x2="220.557" y2="136.396" gradientUnits="userSpaceOnUse">
<stop stop-color="#FCB148"/>
<stop offset="0.0521" stop-color="#FDBA46"/>
<stop offset="0.1424" stop-color="#FFC244"/>
<stop offset="0.3183" stop-color="#FFC444"/>
<stop offset="0.4849" stop-color="#FDB946"/>
<stop offset="0.7754" stop-color="#F99C4D"/>
<stop offset="0.8658" stop-color="#F8924F"/>
<stop offset="1" stop-color="#F8924F"/>
</linearGradient>
<linearGradient id="paint2_linear_19_4572" x1="55.0711" y1="48.035" x2="68.1891" y2="59.6806" gradientUnits="userSpaceOnUse">
<stop stop-color="#40447E"/>
<stop offset="0.9964" stop-color="#3C3B6B"/>
</linearGradient>
<linearGradient id="paint3_linear_19_4572" x1="69.7715" y1="59.8904" x2="164.007" y2="59.8904" gradientUnits="userSpaceOnUse">
<stop stop-color="#40447E"/>
<stop offset="0.9964" stop-color="#3C3B6B"/>
</linearGradient>
<linearGradient id="paint4_linear_19_4572" x1="-6.96572" y1="148.968" x2="34.5385" y2="148.968" gradientUnits="userSpaceOnUse">
<stop stop-color="#AA80F9"/>
<stop offset="0.9964" stop-color="#6165D7"/>
</linearGradient>
<linearGradient id="paint5_linear_19_4572" x1="110.526" y1="108.005" x2="133.806" y2="222.516" gradientUnits="userSpaceOnUse">
<stop stop-color="#AA80F9"/>
<stop offset="0.9964" stop-color="#6165D7"/>
</linearGradient>
<linearGradient id="paint6_linear_19_4572" x1="51.5671" y1="148.465" x2="59.1295" y2="148.465" gradientUnits="userSpaceOnUse">
<stop stop-color="#311944"/>
<stop offset="1" stop-color="#893976"/>
</linearGradient>
<linearGradient id="paint7_linear_19_4572" x1="85.5117" y1="145.921" x2="176.529" y2="145.921" gradientUnits="userSpaceOnUse">
<stop stop-color="#AA80F9"/>
<stop offset="0.9964" stop-color="#6165D7"/>
</linearGradient>
<linearGradient id="paint8_linear_19_4572" x1="154.812" y1="101.276" x2="108.229" y2="107.3" gradientUnits="userSpaceOnUse">
<stop stop-color="#311944"/>
<stop offset="1" stop-color="#893976"/>
</linearGradient>
<linearGradient id="paint9_linear_19_4572" x1="180.501" y1="60.223" x2="166.312" y2="73.6087" gradientUnits="userSpaceOnUse">
<stop stop-color="#FF9085"/>
<stop offset="1" stop-color="#FB6FBB"/>
</linearGradient>
<linearGradient id="paint10_linear_19_4572" x1="137.587" y1="225.764" x2="141.067" y2="237.543" gradientUnits="userSpaceOnUse">
<stop stop-color="#311944"/>
<stop offset="1" stop-color="#893976"/>
</linearGradient>
<linearGradient id="paint11_linear_19_4572" x1="142.589" y1="224.286" x2="146.069" y2="236.065" gradientUnits="userSpaceOnUse">
<stop stop-color="#311944"/>
<stop offset="1" stop-color="#893976"/>
</linearGradient>
<linearGradient id="paint12_linear_19_4572" x1="164.789" y1="217.727" x2="168.269" y2="229.506" gradientUnits="userSpaceOnUse">
<stop stop-color="#311944"/>
<stop offset="1" stop-color="#893976"/>
</linearGradient>
<linearGradient id="paint13_linear_19_4572" x1="132.809" y1="227.176" x2="136.289" y2="238.955" gradientUnits="userSpaceOnUse">
<stop stop-color="#311944"/>
<stop offset="1" stop-color="#893976"/>
</linearGradient>
<linearGradient id="paint14_linear_19_4572" x1="109.536" y1="234.051" x2="113.017" y2="245.831" gradientUnits="userSpaceOnUse">
<stop stop-color="#311944"/>
<stop offset="1" stop-color="#893976"/>
</linearGradient>
<linearGradient id="paint15_linear_19_4572" x1="127.799" y1="228.656" x2="131.279" y2="240.435" gradientUnits="userSpaceOnUse">
<stop stop-color="#311944"/>
<stop offset="1" stop-color="#893976"/>
</linearGradient>
<linearGradient id="paint16_linear_19_4572" x1="99.2449" y1="237.092" x2="102.725" y2="248.871" gradientUnits="userSpaceOnUse">
<stop stop-color="#311944"/>
<stop offset="1" stop-color="#893976"/>
</linearGradient>
<linearGradient id="paint17_linear_19_4572" x1="114.767" y1="232.506" x2="118.247" y2="244.285" gradientUnits="userSpaceOnUse">
<stop stop-color="#311944"/>
<stop offset="1" stop-color="#893976"/>
</linearGradient>
<linearGradient id="paint18_linear_19_4572" x1="155.026" y1="220.611" x2="158.507" y2="232.391" gradientUnits="userSpaceOnUse">
<stop stop-color="#311944"/>
<stop offset="1" stop-color="#893976"/>
</linearGradient>
<linearGradient id="paint19_linear_19_4572" x1="160.016" y1="219.137" x2="163.497" y2="230.916" gradientUnits="userSpaceOnUse">
<stop stop-color="#311944"/>
<stop offset="1" stop-color="#893976"/>
</linearGradient>
<linearGradient id="paint20_linear_19_4572" x1="169.801" y1="216.246" x2="173.281" y2="228.025" gradientUnits="userSpaceOnUse">
<stop stop-color="#311944"/>
<stop offset="1" stop-color="#893976"/>
</linearGradient>
<linearGradient id="paint21_linear_19_4572" x1="104.521" y1="235.533" x2="108.001" y2="247.313" gradientUnits="userSpaceOnUse">
<stop stop-color="#311944"/>
<stop offset="1" stop-color="#893976"/>
</linearGradient>
<linearGradient id="paint22_linear_19_4572" x1="150.171" y1="141.58" x2="64.5026" y2="238.493" gradientUnits="userSpaceOnUse">
<stop stop-color="#40447E"/>
<stop offset="0.9964" stop-color="#3C3B6B"/>
</linearGradient>
<linearGradient id="paint23_linear_19_4572" x1="140.473" y1="133.007" x2="54.8041" y2="229.919" gradientUnits="userSpaceOnUse">
<stop stop-color="#40447E"/>
<stop offset="0.9964" stop-color="#3C3B6B"/>
</linearGradient>
<linearGradient id="paint24_linear_19_4572" x1="166.525" y1="156.036" x2="80.8562" y2="252.949" gradientUnits="userSpaceOnUse">
<stop stop-color="#40447E"/>
<stop offset="0.9964" stop-color="#3C3B6B"/>
</linearGradient>
<linearGradient id="paint25_linear_19_4572" x1="159.444" y1="149.777" x2="73.7758" y2="246.69" gradientUnits="userSpaceOnUse">
<stop stop-color="#40447E"/>
<stop offset="0.9964" stop-color="#3C3B6B"/>
</linearGradient>
<linearGradient id="paint26_linear_19_4572" x1="133.351" y1="126.711" x2="47.6821" y2="223.624" gradientUnits="userSpaceOnUse">
<stop stop-color="#40447E"/>
<stop offset="0.9964" stop-color="#3C3B6B"/>
</linearGradient>
<linearGradient id="paint27_linear_19_4572" x1="169.151" y1="158.357" x2="83.4821" y2="255.27" gradientUnits="userSpaceOnUse">
<stop stop-color="#40447E"/>
<stop offset="0.9964" stop-color="#3C3B6B"/>
</linearGradient>
<linearGradient id="paint28_linear_19_4572" x1="152.704" y1="143.819" x2="67.0356" y2="240.732" gradientUnits="userSpaceOnUse">
<stop stop-color="#40447E"/>
<stop offset="0.9964" stop-color="#3C3B6B"/>
</linearGradient>
<linearGradient id="paint29_linear_19_4572" x1="123.657" y1="118.142" x2="37.9882" y2="215.054" gradientUnits="userSpaceOnUse">
<stop stop-color="#40447E"/>
<stop offset="0.9964" stop-color="#3C3B6B"/>
</linearGradient>
<linearGradient id="paint30_linear_19_4572" x1="184.716" y1="172.117" x2="99.0474" y2="269.03" gradientUnits="userSpaceOnUse">
<stop stop-color="#40447E"/>
<stop offset="0.9964" stop-color="#3C3B6B"/>
</linearGradient>
<linearGradient id="paint31_linear_19_4572" x1="175.501" y1="163.971" x2="89.8325" y2="260.883" gradientUnits="userSpaceOnUse">
<stop stop-color="#40447E"/>
<stop offset="0.9964" stop-color="#3C3B6B"/>
</linearGradient>
<linearGradient id="paint32_linear_19_4572" x1="157.113" y1="147.716" x2="71.444" y2="244.629" gradientUnits="userSpaceOnUse">
<stop stop-color="#40447E"/>
<stop offset="0.9964" stop-color="#3C3B6B"/>
</linearGradient>
<linearGradient id="paint33_linear_19_4572" x1="142.796" y1="135.06" x2="57.1272" y2="231.973" gradientUnits="userSpaceOnUse">
<stop stop-color="#40447E"/>
<stop offset="0.9964" stop-color="#3C3B6B"/>
</linearGradient>
<linearGradient id="paint34_linear_19_4572" x1="117.689" y1="72.5686" x2="196.766" y2="72.5686" gradientUnits="userSpaceOnUse">
<stop stop-color="#AA80F9"/>
<stop offset="0.9964" stop-color="#6165D7"/>
</linearGradient>
<linearGradient id="paint35_linear_19_4572" x1="81.3534" y1="72.5339" x2="158.605" y2="72.5339" gradientUnits="userSpaceOnUse">
<stop stop-color="#40447E"/>
<stop offset="0.9964" stop-color="#3C3B6B"/>
</linearGradient>
<linearGradient id="paint36_linear_19_4572" x1="144.864" y1="12.4839" x2="145.865" y2="130.708" gradientUnits="userSpaceOnUse">
<stop offset="0.494" stop-color="#EBEFF2"/>
<stop offset="1" stop-color="white"/>
</linearGradient>
<linearGradient id="paint37_linear_19_4572" x1="144.527" y1="13.3363" x2="145.509" y2="129.149" gradientUnits="userSpaceOnUse">
<stop offset="0.494" stop-color="#EBEFF2"/>
<stop offset="1" stop-color="white"/>
</linearGradient>
<linearGradient id="paint38_linear_19_4572" x1="145.654" y1="12.1149" x2="146.673" y2="132.333" gradientUnits="userSpaceOnUse">
<stop offset="0.494" stop-color="#EBEFF2"/>
<stop offset="1" stop-color="white"/>
</linearGradient>
<linearGradient id="paint39_linear_19_4572" x1="113.336" y1="11.0101" x2="114.304" y2="125.311" gradientUnits="userSpaceOnUse">
<stop offset="0.494" stop-color="#EBEFF2"/>
<stop offset="1" stop-color="white"/>
</linearGradient>
<linearGradient id="paint40_linear_19_4572" x1="113.146" y1="13.1299" x2="114.069" y2="121.998" gradientUnits="userSpaceOnUse">
<stop offset="0.494" stop-color="#EBEFF2"/>
<stop offset="1" stop-color="white"/>
</linearGradient>
<linearGradient id="paint41_linear_19_4572" x1="113.821" y1="10.7326" x2="114.806" y2="126.879" gradientUnits="userSpaceOnUse">
<stop offset="0.494" stop-color="#EBEFF2"/>
<stop offset="1" stop-color="white"/>
</linearGradient>
<linearGradient id="paint42_linear_19_4572" x1="82.9986" y1="42.887" x2="157.497" y2="42.887" gradientUnits="userSpaceOnUse">
<stop offset="0.494" stop-color="#EBEFF2"/>
<stop offset="1" stop-color="white"/>
</linearGradient>
<linearGradient id="paint43_linear_19_4572" x1="115.096" y1="123.73" x2="122.706" y2="123.73" gradientUnits="userSpaceOnUse">
<stop stop-color="#AA80F9"/>
<stop offset="0.9964" stop-color="#6165D7"/>
</linearGradient>
<linearGradient id="paint44_linear_19_4572" x1="97.185" y1="98.0335" x2="140.617" y2="98.0335" gradientUnits="userSpaceOnUse">
<stop stop-color="#AA80F9"/>
<stop offset="0.9964" stop-color="#6165D7"/>
</linearGradient>
<linearGradient id="paint45_linear_19_4572" x1="103.47" y1="105.56" x2="134.332" y2="105.56" gradientUnits="userSpaceOnUse">
<stop stop-color="#AA80F9"/>
<stop offset="0.9964" stop-color="#6165D7"/>
</linearGradient>
<linearGradient id="paint46_linear_19_4572" x1="109.799" y1="113.169" x2="128.003" y2="113.169" gradientUnits="userSpaceOnUse">
<stop stop-color="#AA80F9"/>
<stop offset="0.9964" stop-color="#6165D7"/>
</linearGradient>
<linearGradient id="paint47_linear_19_4572" x1="203.66" y1="234.141" x2="213.598" y2="234.603" gradientUnits="userSpaceOnUse">
<stop stop-color="#444B8C"/>
<stop offset="0.9964" stop-color="#26264F"/>
</linearGradient>
<linearGradient id="paint48_linear_19_4572" x1="211.936" y1="222.615" x2="206.52" y2="231.514" gradientUnits="userSpaceOnUse">
<stop stop-color="#FFC444"/>
<stop offset="0.9964" stop-color="#F36F56"/>
</linearGradient>
<linearGradient id="paint49_linear_19_4572" x1="192.819" y1="232.381" x2="213.954" y2="156.544" gradientUnits="userSpaceOnUse">
<stop stop-color="#311944"/>
<stop offset="1" stop-color="#893976"/>
</linearGradient>
<linearGradient id="paint50_linear_19_4572" x1="213.998" y1="238.164" x2="227.688" y2="238.164" gradientUnits="userSpaceOnUse">
<stop stop-color="#444B8C"/>
<stop offset="0.9964" stop-color="#26264F"/>
</linearGradient>
<linearGradient id="paint51_linear_19_4572" x1="221.448" y1="237.469" x2="226.724" y2="226.549" gradientUnits="userSpaceOnUse">
<stop stop-color="#FFC444"/>
<stop offset="0.9964" stop-color="#F36F56"/>
</linearGradient>
<linearGradient id="paint52_linear_19_4572" x1="193.06" y1="232.448" x2="214.194" y2="156.611" gradientUnits="userSpaceOnUse">
<stop stop-color="#311944"/>
<stop offset="1" stop-color="#893976"/>
</linearGradient>
<linearGradient id="paint53_linear_19_4572" x1="213.375" y1="199.245" x2="244.455" y2="150.248" gradientUnits="userSpaceOnUse">
<stop stop-color="#311944"/>
<stop offset="1" stop-color="#893976"/>
</linearGradient>
<linearGradient id="paint54_linear_19_4572" x1="195.567" y1="111.221" x2="198.241" y2="172.409" gradientUnits="userSpaceOnUse">
<stop offset="0.0036" stop-color="#E38DDD"/>
<stop offset="1" stop-color="#9571F6"/>
</linearGradient>
<linearGradient id="paint55_linear_19_4572" x1="207.467" y1="87.2487" x2="227.301" y2="157.598" gradientUnits="userSpaceOnUse">
<stop stop-color="#311944"/>
<stop offset="1" stop-color="#893976"/>
</linearGradient>
<linearGradient id="paint56_linear_19_4572" x1="217.378" y1="201.785" x2="248.458" y2="152.788" gradientUnits="userSpaceOnUse">
<stop stop-color="#311944"/>
<stop offset="1" stop-color="#893976"/>
</linearGradient>
<linearGradient id="paint57_linear_19_4572" x1="211.616" y1="110.52" x2="214.29" y2="171.707" gradientUnits="userSpaceOnUse">
<stop offset="0.0036" stop-color="#E38DDD"/>
<stop offset="1" stop-color="#9571F6"/>
</linearGradient>
<linearGradient id="paint58_linear_19_4572" x1="220.679" y1="98.603" x2="203.688" y2="85.0064" gradientUnits="userSpaceOnUse">
<stop stop-color="#311944"/>
<stop offset="1" stop-color="#6B3976"/>
</linearGradient>
<linearGradient id="paint59_linear_19_4572" x1="219.05" y1="100.656" x2="202.04" y2="87.0449" gradientUnits="userSpaceOnUse">
<stop stop-color="#311944"/>
<stop offset="1" stop-color="#6B3976"/>
</linearGradient>
<linearGradient id="paint60_linear_19_4572" x1="198.206" y1="80.1328" x2="218.04" y2="150.484" gradientUnits="userSpaceOnUse">
<stop offset="0.0036" stop-color="#E38DDD"/>
<stop offset="1" stop-color="#9571F6"/>
</linearGradient>
<linearGradient id="paint61_linear_19_4572" x1="154.378" y1="348.828" x2="136.43" y2="407.386" gradientUnits="userSpaceOnUse">
<stop offset="0.0036" stop-color="#E38DDD"/>
<stop offset="1" stop-color="#9571F6"/>
</linearGradient>
<linearGradient id="paint62_linear_19_4572" x1="195.341" y1="113.871" x2="208.25" y2="134.048" gradientUnits="userSpaceOnUse">
<stop stop-color="#40447E"/>
<stop offset="0.9964" stop-color="#3C3B6B"/>
</linearGradient>
<linearGradient id="paint63_linear_19_4572" x1="31.3346" y1="164.711" x2="38.3374" y2="167.312" gradientUnits="userSpaceOnUse">
<stop stop-color="#444B8C"/>
<stop offset="0.9964" stop-color="#26264F"/>
</linearGradient>
<linearGradient id="paint64_linear_19_4572" x1="11.7201" y1="188.778" x2="31.2268" y2="221.49" gradientUnits="userSpaceOnUse">
<stop stop-color="#FCB148"/>
<stop offset="0.0521" stop-color="#FDBA46"/>
<stop offset="0.1424" stop-color="#FFC244"/>
<stop offset="0.3183" stop-color="#FFC444"/>
<stop offset="0.4849" stop-color="#FDB946"/>
<stop offset="0.7754" stop-color="#F99C4D"/>
<stop offset="0.8658" stop-color="#F8924F"/>
<stop offset="1" stop-color="#F8924F"/>
</linearGradient>
<linearGradient id="paint65_linear_19_4572" x1="14.736" y1="186.98" x2="34.2427" y2="219.691" gradientUnits="userSpaceOnUse">
<stop stop-color="#FFC444"/>
<stop offset="0.9964" stop-color="#F36F56"/>
</linearGradient>
<linearGradient id="paint66_linear_19_4572" x1="45.6778" y1="201.956" x2="100.597" y2="244.27" gradientUnits="userSpaceOnUse">
<stop stop-color="#FCB148"/>
<stop offset="0.0521" stop-color="#FDBA46"/>
<stop offset="0.1424" stop-color="#FFC244"/>
<stop offset="0.3183" stop-color="#FFC444"/>
<stop offset="0.4849" stop-color="#FDB946"/>
<stop offset="0.7754" stop-color="#F99C4D"/>
<stop offset="0.8658" stop-color="#F8924F"/>
<stop offset="1" stop-color="#F8924F"/>
</linearGradient>
<linearGradient id="paint67_linear_19_4572" x1="56.4693" y1="152.643" x2="62.0715" y2="188.357" gradientUnits="userSpaceOnUse">
<stop stop-color="#444B8C"/>
<stop offset="0.9964" stop-color="#26264F"/>
</linearGradient>
<linearGradient id="paint68_linear_19_4572" x1="46.3876" y1="201.034" x2="101.306" y2="243.349" gradientUnits="userSpaceOnUse">
<stop stop-color="#FFC444"/>
<stop offset="0.9964" stop-color="#F36F56"/>
</linearGradient>
<linearGradient id="paint69_linear_19_4572" x1="44.0967" y1="184.515" x2="44.9984" y2="184.849" gradientUnits="userSpaceOnUse">
<stop stop-color="#444B8C"/>
<stop offset="0.9964" stop-color="#26264F"/>
</linearGradient>
<linearGradient id="paint70_linear_19_4572" x1="73.2653" y1="184.307" x2="74.1669" y2="184.642" gradientUnits="userSpaceOnUse">
<stop stop-color="#444B8C"/>
<stop offset="0.9964" stop-color="#26264F"/>
</linearGradient>
</defs>
</svg>
