<svg width="220" height="223" viewBox="0 0 220 223" fill="none" xmlns="http://www.w3.org/2000/svg">
<path d="M193.006 190.856C187.295 196.743 182.185 200.203 178.273 202.815C140.117 228.292 96.5001 220.949 83.015 218.439C61.2583 214.39 42.8928 211.533 27.1135 197.277C-8.74194 164.883 -6.99799 97.3074 20.3999 55.4468C23.6485 50.4834 51.0049 9.9327 94.7158 4.21872C95.7849 4.07893 96.5826 3.99936 97.2813 3.92543C104.043 3.20953 145.946 -0.569127 180.113 28.0563C185.004 32.1539 192.875 39.5449 200.174 50.8174C226.862 92.0348 226.946 155.871 193.006 190.856Z" fill="url(#paint0_linear_19_6729)" fill-opacity="0.21"/>
<path d="M85.2453 95.7678C85.2453 95.7678 73.8053 40.1845 38.8951 3.41021C33.4986 -2.27446 23.9086 1.04695 23.1553 8.84889C20.7027 34.2544 25.0508 80.7275 85.2453 95.7678Z" fill="#91B3FA"/>
<path opacity="0.5" d="M32.4787 12.1402C33.7186 15.9383 35.106 19.7137 36.5988 23.4286C38.075 27.1529 39.6628 30.8301 41.333 34.4652C43.0266 38.0896 44.7671 41.6901 46.6579 45.211C48.5183 48.7465 50.4768 52.2301 52.5752 55.626C54.6478 59.0367 56.8208 62.3878 59.1399 65.6341L59.9974 66.8602L60.8855 68.0639C61.4825 68.8627 62.0588 69.6781 62.6731 70.4638C63.9079 72.0295 65.1118 73.6222 66.3989 75.1466C71.4539 81.3283 77.087 87.0185 83.1257 92.3065L83.1307 92.311C83.3241 92.4802 83.3435 92.7744 83.1742 92.9678C83.0155 93.1491 82.7454 93.1762 82.5532 93.0396C75.9703 88.3302 69.9222 82.8224 64.5623 76.7193C59.1485 70.6558 54.3904 64.027 50.1425 57.1103C45.9121 50.178 42.2356 42.9203 39.0996 35.4469C37.5274 31.7119 36.1119 27.9134 34.8305 24.0727C33.5732 20.2213 32.418 16.3475 31.5766 12.3666C31.5234 12.1151 31.6841 11.8682 31.9356 11.8151C32.1698 11.7655 32.4001 11.9017 32.4735 12.1238L32.4787 12.1402Z" fill="white"/>
<path d="M81.197 111.834C81.197 111.834 54.2169 54.5863 16.9006 36.5983C8.67241 32.632 -0.12271 40.8711 3.12143 49.4099C10.3695 68.487 29.7127 97.7656 81.197 111.834Z" fill="#BDD0FB"/>
<path opacity="0.5" d="M9.72845 43.1145C12.251 46.2109 14.8946 49.2331 17.5609 52.2211C18.9015 53.7102 20.2423 55.1993 21.5989 56.6737C22.9707 58.1343 24.3231 59.6128 25.7103 61.0586L29.8777 65.3903L34.1087 69.6594C36.9733 72.4613 39.8348 75.2665 42.776 77.9875C45.6698 80.7601 48.6905 83.3934 51.6627 86.0801L56.229 89.9865L58.5143 91.9374L60.8434 93.8355C62.3992 95.0968 63.9421 96.375 65.509 97.6231L70.2741 101.284C71.0689 101.893 71.8538 102.517 72.6568 103.115L75.0916 104.876L79.9624 108.398L79.9739 108.406C80.1905 108.562 80.2391 108.865 80.0826 109.081C79.9281 109.295 79.6313 109.345 79.4154 109.196C72.7999 104.627 66.2448 99.9469 60.0313 94.8344L57.6749 92.9504C56.8969 92.3137 56.1354 91.6568 55.3677 91.0076L50.7712 87.0998C47.7793 84.4123 44.7387 81.7777 41.8256 79.0044C35.9448 73.5174 30.2473 67.8338 24.7559 61.9583C23.3789 60.4933 22.037 58.9953 20.6761 57.5159C19.3301 56.0224 18.0001 54.5143 16.6705 53.0063C14.0435 49.9585 11.4581 46.8859 8.96659 43.7116C8.80152 43.5013 8.83821 43.1972 9.04845 43.0322C9.25623 42.869 9.55593 42.9031 9.72219 43.1067L9.72845 43.1145Z" fill="white"/>
<path d="M186.54 24.9027C187.341 57.8826 189.938 171.643 188.698 211.956C188.567 216.226 185.214 219.654 181.031 219.794C160.342 220.485 84.4996 222.237 50.6603 220.788C43.612 220.486 38.0071 214.657 37.8609 207.456C37.1576 172.839 35.6062 75.4761 39.2937 30.874C39.7356 25.53 43.8438 21.2744 49.0706 20.7404C71.6013 18.4392 147.77 12.8141 177.005 14.7511C182.278 15.1004 186.41 19.5098 186.54 24.9027Z" fill="url(#paint1_linear_19_6729)"/>
<path d="M173.212 39.4436V67.3927C173.212 72.7525 169.812 77.0974 165.617 77.0974H61.1135C56.9191 77.0974 53.5188 72.7525 53.5188 67.3927V39.4436C53.5188 34.0839 56.9191 29.739 61.1135 29.739H165.617C169.812 29.739 173.212 34.0839 173.212 39.4436Z" fill="url(#paint2_linear_19_6729)"/>
<path opacity="0.43" d="M59.0686 38.5539C60.0091 37.346 61.2844 36.6622 62.6135 36.6535L160.417 36.0042C163.032 35.9867 165.203 38.5431 165.402 41.8722L167.055 69.6182C167.19 71.8901 164.242 73.761 160.516 73.768L64.3671 73.943C60.6466 73.9498 57.5964 72.095 57.5967 69.8262L57.5993 43.0924C57.5995 41.3944 58.1279 39.7614 59.0686 38.5539Z" fill="#91B3FA"/>
<path d="M61.0979 186.271C61.0979 191.052 64.974 194.929 69.7556 194.929H80.2954C85.0769 194.929 88.9531 191.052 88.9531 186.271C88.9531 181.489 85.0769 177.613 80.2954 177.613H69.7556C64.974 177.613 61.0979 181.489 61.0979 186.271Z" fill="url(#paint3_linear_19_6729)"/>
<path d="M136.934 186.271C136.934 191.052 140.81 194.929 145.592 194.929H156.131C160.913 194.929 164.789 191.052 164.789 186.271C164.789 181.489 160.913 177.613 156.131 177.613H145.592C140.81 177.613 136.934 181.489 136.934 186.271Z" fill="url(#paint4_linear_19_6729)"/>
<path d="M99.2917 186.271C99.2917 191.052 103.168 194.929 107.949 194.929H118.489C123.271 194.929 127.147 191.052 127.147 186.271C127.147 181.489 123.271 177.613 118.489 177.613H107.949C103.168 177.613 99.2917 181.489 99.2917 186.271Z" fill="#91B3FA"/>
<path d="M163.983 114.608H149.705C148.855 114.608 148.16 113.913 148.16 113.063V102.561C148.16 101.711 148.855 101.016 149.705 101.016H163.983C164.832 101.016 165.528 101.711 165.528 102.561V113.063C165.528 113.913 164.832 114.608 163.983 114.608Z" fill="url(#paint5_linear_19_6729)"/>
<path d="M163.983 137.765H149.705C148.855 137.765 148.16 137.07 148.16 136.22V125.718C148.16 124.868 148.855 124.173 149.705 124.173H163.983C164.832 124.173 165.528 124.868 165.528 125.718V136.22C165.528 137.07 164.832 137.765 163.983 137.765Z" fill="url(#paint6_linear_19_6729)"/>
<path d="M163.983 160.922H149.705C148.855 160.922 148.16 160.226 148.16 159.377V148.875C148.16 148.025 148.855 147.33 149.705 147.33H163.983C164.832 147.33 165.528 148.025 165.528 148.875V159.377C165.528 160.226 164.832 160.922 163.983 160.922Z" fill="url(#paint7_linear_19_6729)"/>
<path d="M135.791 114.608H121.514C120.664 114.608 119.969 113.913 119.969 113.063V102.561C119.969 101.711 120.664 101.016 121.514 101.016H135.791C136.641 101.016 137.336 101.711 137.336 102.561V113.063C137.336 113.913 136.641 114.608 135.791 114.608Z" fill="url(#paint8_linear_19_6729)"/>
<path d="M135.791 137.765H121.514C120.664 137.765 119.969 137.07 119.969 136.22V125.718C119.969 124.868 120.664 124.173 121.514 124.173H135.791C136.641 124.173 137.336 124.868 137.336 125.718V136.22C137.336 137.07 136.641 137.765 135.791 137.765Z" fill="url(#paint9_linear_19_6729)"/>
<path d="M135.54 160.922H121.262C120.413 160.922 119.717 160.226 119.717 159.377V148.875C119.717 148.025 120.413 147.33 121.262 147.33H135.54C136.39 147.33 137.085 148.025 137.085 148.875V159.377C137.085 160.226 136.39 160.922 135.54 160.922Z" fill="url(#paint10_linear_19_6729)"/>
<path d="M107.349 114.608H93.0712C92.2214 114.608 91.5261 113.913 91.5261 113.063V102.561C91.5261 101.711 92.2214 101.016 93.0712 101.016H107.349C108.198 101.016 108.894 101.711 108.894 102.561V113.063C108.894 113.913 108.198 114.608 107.349 114.608Z" fill="url(#paint11_linear_19_6729)"/>
<path d="M107.349 137.765H93.0712C92.2214 137.765 91.5261 137.07 91.5261 136.22V125.718C91.5261 124.868 92.2214 124.173 93.0712 124.173H107.349C108.198 124.173 108.894 124.868 108.894 125.718V136.22C108.894 137.07 108.198 137.765 107.349 137.765Z" fill="url(#paint12_linear_19_6729)"/>
<path d="M107.349 160.922H93.0712C92.2214 160.922 91.5261 160.226 91.5261 159.377V148.875C91.5261 148.025 92.2214 147.33 93.0712 147.33H107.349C108.198 147.33 108.894 148.025 108.894 148.875V159.377C108.894 160.226 108.198 160.922 107.349 160.922Z" fill="url(#paint13_linear_19_6729)"/>
<path d="M76.3477 114.608H62.0702C61.2204 114.608 60.5251 113.913 60.5251 113.063V102.561C60.5251 101.711 61.2205 101.016 62.0702 101.016H76.3477C77.1975 101.016 77.8928 101.711 77.8928 102.561V113.063C77.8928 113.913 77.1975 114.608 76.3477 114.608Z" fill="url(#paint14_linear_19_6729)"/>
<path d="M76.3477 137.765H62.0702C61.2204 137.765 60.5251 137.07 60.5251 136.22V125.718C60.5251 124.868 61.2205 124.173 62.0702 124.173H76.3477C77.1975 124.173 77.8928 124.868 77.8928 125.718V136.22C77.8928 137.07 77.1975 137.765 76.3477 137.765Z" fill="url(#paint15_linear_19_6729)"/>
<path d="M76.3477 160.922H62.0702C61.2204 160.922 60.5251 160.226 60.5251 159.377V148.875C60.5251 148.025 61.2205 147.33 62.0702 147.33H76.3477C77.1975 147.33 77.8928 148.025 77.8928 148.875V159.377C77.8928 160.226 77.1975 160.922 76.3477 160.922Z" fill="url(#paint16_linear_19_6729)"/>
<path d="M75.7945 94.4716H58.1756C57.8294 94.4716 57.5461 94.1884 57.5461 93.8422V89.5636C57.5461 89.2174 57.8294 88.9341 58.1756 88.9341H75.7945C76.1407 88.9341 76.424 89.2174 76.424 89.5636V93.8422C76.424 94.1883 76.1407 94.4716 75.7945 94.4716Z" fill="url(#paint17_linear_19_6729)"/>
<path d="M107.258 94.4716H89.6387C89.2925 94.4716 89.0093 94.1884 89.0093 93.8422V89.5636C89.0093 89.2174 89.2925 88.9341 89.6387 88.9341H107.258C107.604 88.9341 107.887 89.2174 107.887 89.5636V93.8422C107.887 94.1883 107.604 94.4716 107.258 94.4716Z" fill="url(#paint18_linear_19_6729)"/>
<path d="M136.204 94.4716H118.585C118.239 94.4716 117.955 94.1884 117.955 93.8422V89.5636C117.955 89.2174 118.239 88.9341 118.585 88.9341H136.204C136.55 88.9341 136.833 89.2174 136.833 89.5636V93.8422C136.833 94.1883 136.55 94.4716 136.204 94.4716Z" fill="url(#paint19_linear_19_6729)"/>
<path d="M167.667 94.4716H150.048C149.701 94.4716 149.418 94.1884 149.418 93.8422V89.5636C149.418 89.2174 149.701 88.9341 150.048 88.9341H167.667C168.013 88.9341 168.296 89.2174 168.296 89.5636V93.8422C168.296 94.1883 168.013 94.4716 167.667 94.4716Z" fill="url(#paint20_linear_19_6729)"/>
<path d="M216.978 213.466C216.978 213.466 217.951 215 218.196 219.296C218.219 219.696 217.902 220.037 217.501 220.037H209.888C209.582 220.037 209.364 219.737 209.462 219.446C209.908 218.126 211.256 214.907 214.266 213.068L216.978 213.466Z" fill="url(#paint21_linear_19_6729)"/>
<path d="M217.308 210.555L216.878 214.166C216.841 214.477 216.597 214.726 216.285 214.762C215.869 214.81 215.264 214.844 214.675 214.747C214.141 214.659 213.756 214.183 213.756 213.641V210.155L217.308 210.555Z" fill="url(#paint22_linear_19_6729)"/>
<path d="M198.144 213.068C198.144 213.068 199.601 215.333 199.57 218.441C199.562 219.173 198.949 219.757 198.217 219.757H186.394C185.841 219.757 185.616 219.045 186.069 218.727C188.306 217.156 192.703 214.221 195.884 213.068L198.144 213.068Z" fill="url(#paint23_linear_19_6729)"/>
<path d="M199.361 209.169L198.443 213.628C198.34 214.127 197.852 214.462 197.356 214.351C197.053 214.284 196.697 214.155 196.316 213.916C195.954 213.69 195.771 213.26 195.845 212.839L196.795 207.438L199.361 209.169Z" fill="url(#paint24_linear_19_6729)"/>
<path d="M215.622 147.179C215.622 147.179 218.815 149.994 219.415 153.381C220.016 156.768 217.713 211.817 217.713 211.817C217.713 211.817 214.52 212.348 212.874 211.351C212.874 211.351 210.922 175.624 209.438 167.369C209.438 167.369 201.656 204.377 199.5 211.063C199.5 211.063 196.424 211.438 195.432 210.852C195.432 210.852 197.47 162.88 200.032 154.351L215.622 147.179Z" fill="url(#paint25_linear_19_6729)"/>
<path d="M209.531 166.181C209.504 166.181 209.477 166.178 209.45 166.171C209.279 166.126 209.176 165.951 209.221 165.78L210.577 160.577C210.598 160.499 210.646 160.432 210.714 160.388L213.644 158.509C213.794 158.413 213.992 158.456 214.087 158.605C214.183 158.754 214.14 158.952 213.991 159.048L211.165 160.86L209.841 165.941C209.803 166.086 209.674 166.181 209.531 166.181Z" fill="url(#paint26_linear_19_6729)"/>
<path d="M183.211 110.465C194.327 118.104 195.288 122.481 195.288 122.481L183.834 126.293C183.834 126.293 173.77 117.735 171.055 106.099C173.633 105.742 175.919 104.888 177.569 104.115C178.817 106.445 180.618 108.683 183.211 110.465Z" fill="url(#paint27_linear_19_6729)"/>
<path d="M179.39 81.8679C179.676 81.5458 180.203 81.8243 180.097 82.2424L179.11 86.1621C178.92 86.9194 178.501 87.5999 177.911 88.1116L176.097 89.3809C175.301 90.0717 174.838 91.0677 174.827 92.122C174.801 94.6448 175.124 99.555 177.569 104.115C175.919 104.888 173.633 105.742 171.055 106.099C170.059 101.83 170.05 97.1459 171.893 92.3177C171.441 91.6392 171.502 90.7414 172.041 90.13L179.39 81.8679Z" fill="url(#paint28_linear_19_6729)"/>
<path d="M179.687 121.283C184.419 116.184 193.432 113.88 198.651 112.934C200.937 112.52 203.19 113.792 204.001 115.969C206.349 122.282 212.736 138.706 213.974 141.529C214.99 143.845 216.05 146.107 216.724 147.521C217.127 148.366 216.775 149.376 215.932 149.783C211.541 151.899 203.641 154.293 200.438 155.227C199.733 155.433 199.032 154.904 199.032 154.17C199.032 153.548 198.863 152.937 198.542 152.403L186.412 132.189C178.852 140.573 172.567 141.65 167.481 139.815C168.336 137.172 168.499 134.814 168.768 132.161C176.282 130.874 179.687 121.283 179.687 121.283Z" fill="url(#paint29_linear_19_6729)"/>
<path d="M154.653 130.419L156.976 128.775C161.611 131.397 166.436 132.809 169.384 132.035C169.347 134.701 169.02 137.388 168.398 140.095C161.512 138.269 154.653 130.419 154.653 130.419Z" fill="url(#paint30_linear_19_6729)"/>
<path d="M149.175 129.21C149.175 129.21 153.905 126.391 155.347 125.663C156.545 125.058 157.241 126.867 157.442 127.498C157.483 127.627 157.504 127.706 157.504 127.706L157.419 128.957L152.379 131.745C151.451 132.258 149.3 132.161 150.319 132.334C150.546 132.373 148.222 131.994 147.985 131.73C146.962 130.593 145.163 126.917 144.944 126.581C144.894 126.504 149.175 129.21 149.175 129.21Z" fill="url(#paint31_linear_19_6729)"/>
<path d="M191.473 103.57L195.715 113.922C195.715 113.922 190.872 116.612 187.146 116.306L185.134 107.462L191.473 103.57Z" fill="url(#paint32_linear_19_6729)"/>
<path d="M184.664 96.8639C184.571 96.9947 181.748 107.196 181.748 107.196L187.607 108.684L191.719 99.4135C191.719 99.4135 186.209 94.6743 184.664 96.8639Z" fill="url(#paint33_linear_19_6729)"/>
<path d="M189.513 100.822L187.73 105.872C187.707 105.937 187.677 105.997 187.637 106.053C187.395 106.397 186.476 107.518 185.386 106.508C184.397 105.591 183.48 104.769 182.634 104.62C182.254 104.553 181.886 104.785 181.783 105.157C181.527 106.084 180.988 108.183 180.798 110.078C180.759 110.463 181.025 110.811 181.404 110.883C182.549 111.1 184.975 111.491 187.001 111.348C187.275 111.329 187.517 111.164 187.631 110.914C188.189 109.694 189.9 105.993 190.536 105.036C191.133 104.137 192.597 104.162 193.21 104.217C193.412 104.234 193.609 104.17 193.761 104.036C194.298 103.566 195.32 102.364 193.883 100.925C193.582 100.624 193.59 100.138 193.9 99.8467C194.517 99.2662 195.178 98.2366 194.149 96.9597C193.104 95.6619 191.723 95.8684 190.878 96.1769C190.536 96.3018 190.163 96.1572 189.977 95.8443C189.871 95.6662 189.687 95.5313 189.367 95.5588C188.935 95.5959 188.573 95.2361 188.58 94.8032C188.595 93.9718 188.298 92.9212 186.855 92.4724C184.296 91.6757 182.7 94.1484 182.542 95.9935C182.384 97.8385 185.208 98.5444 186.868 98.42C188.131 98.3254 189.068 99.5768 189.445 100.182C189.564 100.374 189.588 100.609 189.513 100.822Z" fill="url(#paint34_linear_19_6729)"/>
<path d="M189.868 106.868C189.868 106.868 190.282 103.665 191.614 103.508C192.947 103.351 194.244 104.446 192.919 106.244C191.271 108.48 189.868 106.868 189.868 106.868Z" fill="url(#paint35_linear_19_6729)"/>
<path d="M189.498 74.5205L158.356 122.093L153.534 129.458C152.927 130.434 151.631 130.736 150.655 130.129L54.6562 70.4782C53.6803 69.8718 53.3764 68.5757 53.9828 67.5999L58.5196 60.0569L87.4637 11.9362C88.0701 10.9603 90.4034 9.77042 92.4203 11.2226L187.75 67.0923C188.994 67.8228 189.887 69.0296 190.216 70.4345C190.546 71.8379 190.287 73.3152 189.498 74.5205Z" fill="url(#paint36_linear_19_6729)"/>
<path d="M152.124 126.49C151.559 127.401 150.335 127.673 149.405 127.095L57.9555 70.2703C57.0254 69.6923 56.7272 68.4746 57.2929 67.5643L88.5222 15.6084C89.0879 14.6981 91.2869 13.6012 93.2103 14.9815L183.992 68.2509C185.178 68.9465 186.033 70.0877 186.358 71.4082C186.683 72.7287 186.449 74.113 185.712 75.2381L152.124 126.49Z" fill="url(#paint37_linear_19_6729)"/>
<g opacity="0.58">
<path d="M150.782 128.248C150.124 128.248 149.475 128.087 148.924 127.745L138.687 121.384C138.438 121.229 138.361 120.901 138.516 120.652C138.671 120.403 138.999 120.327 139.248 120.481L149.485 126.842C150.64 127.56 152.481 127.124 153.202 125.964L172.658 94.6523C172.813 94.4031 173.141 94.3269 173.39 94.4812C173.639 94.6364 173.716 94.9639 173.561 95.2132L154.105 126.525C153.425 127.619 152.086 128.248 150.782 128.248Z" fill="white"/>
</g>
<g opacity="0.58">
<path d="M76.5973 35.4943C76.5015 35.4946 76.4046 35.4685 76.3173 35.4145C76.0679 35.2594 75.9914 34.9319 76.1462 34.6825L87.8083 15.9145C88.4249 14.9223 89.4272 14.1577 90.5582 13.8169C91.7595 13.4545 92.9676 13.5947 93.959 14.2105L102.091 19.2635C102.341 19.4186 102.417 19.7461 102.262 19.9955C102.107 20.2446 101.779 20.3208 101.53 20.1666L93.398 15.1135C91.9214 14.1958 89.732 14.833 88.7114 16.4754L77.0494 35.2434C76.9486 35.4053 76.7749 35.4943 76.5973 35.4943Z" fill="white"/>
</g>
<path d="M100.624 47.8573C101.234 46.8765 100.933 45.5872 99.952 44.9777L88.0946 37.6098C87.1137 37.0004 85.8245 37.3014 85.215 38.2822L79.6109 47.3011C79.0014 48.282 79.3025 49.5712 80.2833 50.1807L92.1407 57.5486C93.1216 58.1581 94.4108 57.857 95.0203 56.8762L100.624 47.8573Z" fill="#91B3FA"/>
<path opacity="0.8" d="M90.1477 50.8247C89.9889 50.8247 89.8283 50.7819 89.6839 50.692L86.3022 48.5905C85.8891 48.3339 85.7619 47.7891 86.0186 47.3759L87.8678 44.3999C87.9921 44.1996 88.1869 44.0598 88.4165 44.0064C88.6463 43.9528 88.8826 43.992 89.0824 44.1163L92.4644 46.2175C92.8775 46.4743 93.0046 47.019 92.748 47.4321L90.8985 50.4085C90.7316 50.6769 90.4427 50.8247 90.1477 50.8247ZM88.6176 44.4772C88.5881 44.4772 88.5583 44.4806 88.5288 44.4874C88.4278 44.5111 88.3421 44.5725 88.2873 44.6605L86.4381 47.6366C86.3835 47.7246 86.3663 47.8288 86.3897 47.9296C86.4133 48.0307 86.4748 48.1163 86.5629 48.1712L89.9445 50.2727C90.1263 50.385 90.3658 50.3293 90.4791 50.1479L92.3286 47.1715C92.3832 47.0835 92.4004 46.9793 92.3769 46.8784C92.3534 46.7774 92.2918 46.6917 92.2038 46.6369L88.8218 44.5356C88.7594 44.497 88.6891 44.4772 88.6176 44.4772Z" fill="white"/>
<path d="M87.6567 45.4541C87.6123 45.4541 87.5672 45.4421 87.5267 45.4168L82.6606 42.3932C82.5447 42.3214 82.5092 42.1688 82.5812 42.0532C82.6533 41.9377 82.8056 41.9017 82.9213 41.9738L87.7873 44.9974C87.9033 45.0691 87.9388 45.2217 87.8667 45.3374C87.82 45.4126 87.7392 45.4541 87.6567 45.4541Z" fill="white"/>
<path d="M86.9009 46.6708C86.8565 46.6708 86.8113 46.6588 86.7708 46.6335L81.9045 43.6097C81.7886 43.5379 81.7531 43.3853 81.8251 43.2696C81.8972 43.1539 82.0497 43.1182 82.1652 43.1902L87.0315 46.2141C87.1474 46.2859 87.1829 46.4384 87.1109 46.5541C87.064 46.6293 86.9834 46.6708 86.9009 46.6708Z" fill="white"/>
<path d="M98.2 52.0056C98.1556 52.0056 98.1105 51.9936 98.07 51.9683L92.7983 48.6924C92.6824 48.6206 92.6469 48.468 92.7189 48.3523C92.791 48.2366 92.9433 48.2009 93.059 48.2729L98.3306 51.5489C98.4465 51.6207 98.482 51.7732 98.41 51.8889C98.3632 51.9641 98.2826 52.0056 98.2 52.0056Z" fill="white"/>
<path d="M97.4441 53.2221C97.3998 53.2221 97.3546 53.2101 97.3141 53.1848L92.0425 49.9092C91.9265 49.8374 91.891 49.6849 91.9631 49.5692C92.0352 49.4537 92.1876 49.4174 92.3031 49.4898L97.5747 52.7654C97.6907 52.8372 97.7262 52.9894 97.6541 53.1054C97.6074 53.1806 97.5267 53.2221 97.4441 53.2221Z" fill="white"/>
<path d="M89.5084 44.9446C89.4822 44.9446 89.4559 44.9404 89.4297 44.9319C89.3005 44.8885 89.2308 44.7486 89.2741 44.619L90.9708 39.5566C91.0142 39.4273 91.1542 39.3579 91.2837 39.401C91.4129 39.4443 91.4827 39.5843 91.4393 39.7138L89.7426 44.7762C89.7079 44.8793 89.6118 44.9446 89.5084 44.9446Z" fill="white"/>
<path d="M92.3339 46.7006C92.2696 46.7006 92.2057 46.6758 92.1573 46.6262C92.062 46.5285 92.0636 46.3724 92.1613 46.2771L95.9874 42.5377C96.0848 42.4418 96.2412 42.4439 96.3366 42.5415C96.4319 42.6389 96.4303 42.7954 96.3327 42.8907L92.5066 46.6301C92.4585 46.6771 92.3961 46.7006 92.3339 46.7006Z" fill="white"/>
<path d="M83.3397 52.5405C83.2763 52.5405 83.2128 52.5162 83.1645 52.4676C83.0684 52.3707 83.069 52.2143 83.1656 52.1182L86.9528 48.3548C87.0497 48.2587 87.2058 48.2587 87.3022 48.3558C87.3983 48.4528 87.3977 48.6092 87.3011 48.7052L83.5139 52.4687C83.4657 52.5165 83.4027 52.5405 83.3397 52.5405Z" fill="white"/>
<path d="M88.2946 55.6194C88.2692 55.6194 88.2434 55.6155 88.2181 55.6071C88.0883 55.5648 88.0175 55.4254 88.0599 55.2959L89.7182 50.2091C89.7605 50.0795 89.8999 50.0078 90.0294 50.0509C90.1592 50.0932 90.23 50.2327 90.1877 50.3621L88.5294 55.4489C88.4954 55.5531 88.3985 55.6194 88.2946 55.6194Z" fill="white"/>
<path opacity="0.47" d="M108.834 34.6455C108.11 35.8102 106.579 36.1678 105.414 35.444L92.1953 27.2301C91.0306 26.5064 90.673 24.9754 91.3968 23.8106L91.5475 23.568C92.2712 22.4032 93.8023 22.0457 94.967 22.7695L108.186 30.9834C109.351 31.7071 109.708 33.2381 108.985 34.4029L108.834 34.6455Z" fill="white"/>
<g opacity="0.47">
<path d="M90.3361 67.1281C89.6456 68.2395 88.1848 68.5806 87.0734 67.89L72.4445 58.8001C71.3331 58.1094 70.9921 56.6486 71.6826 55.5373L71.7014 55.5069C72.3921 54.3954 73.8529 54.0544 74.9642 54.7449L89.5931 63.8349C90.7045 64.5254 91.0455 65.9863 90.355 67.0977L90.3361 67.1281Z" fill="white"/>
<path d="M111.423 80.2308C110.732 81.3422 109.271 81.6832 108.16 80.9927L93.5312 71.9027C92.4198 71.2122 92.0787 69.7513 92.7693 68.6399L92.7881 68.6095C93.4787 67.4981 94.9396 67.157 96.0509 67.8476L110.68 76.9376C111.791 77.6282 112.132 79.089 111.442 80.2003L111.423 80.2308Z" fill="white"/>
<path d="M132.509 93.3334C131.819 94.4448 130.358 94.7859 129.247 94.0954L114.618 85.0054C113.506 84.3147 113.165 82.8539 113.856 81.7426L113.875 81.7122C114.565 80.6008 116.026 80.2597 117.138 80.9502L131.766 90.0402C132.878 90.7308 133.219 92.1916 132.528 93.303L132.509 93.3334Z" fill="white"/>
<path d="M154.001 106.688C153.311 107.8 151.85 108.141 150.739 107.45L136.11 98.3601C134.998 97.6696 134.657 96.2087 135.348 95.0973L135.367 95.0669C136.057 93.9555 137.518 93.6144 138.63 94.305L153.258 103.395C154.37 104.086 154.711 105.546 154.02 106.658L154.001 106.688Z" fill="white"/>
</g>
<g opacity="0.47">
<path d="M98.576 84.6234C98.0269 85.507 96.8654 85.7782 95.9819 85.2291L68.7684 68.3194C67.8848 67.7704 67.6136 66.6089 68.1626 65.7253L68.1901 65.6811C68.7392 64.7975 69.9007 64.5262 70.7842 65.0753L97.9977 81.9851C98.8813 82.5342 99.1525 83.6956 98.6035 84.5792L98.576 84.6234Z" fill="white"/>
<path d="M146.525 113.293C145.976 114.177 144.814 114.448 143.931 113.899L132.127 106.564C131.243 106.015 130.972 104.854 131.521 103.97L131.548 103.926C132.097 103.043 133.259 102.771 134.142 103.32L145.946 110.655C146.83 111.204 147.101 112.366 146.552 113.249L146.525 113.293Z" fill="white"/>
</g>
<path d="M146.442 127.719L151.655 131.421L156.038 127.546C152.562 129.334 149.425 129.007 146.442 127.719Z" fill="url(#paint38_linear_19_6729)"/>
<path d="M34.3559 149.573C50.9243 149.573 64.3557 136.142 64.3557 119.573C64.3557 103.005 50.9243 89.5737 34.3559 89.5737C17.7875 89.5737 4.3562 103.005 4.3562 119.573C4.3562 136.142 17.7875 149.573 34.3559 149.573Z" fill="url(#paint39_linear_19_6729)"/>
<path d="M34.356 148.576C50.3734 148.576 63.3581 135.591 63.3581 119.573C63.3581 103.556 50.3734 90.5712 34.356 90.5712C18.3385 90.5712 5.35376 103.556 5.35376 119.573C5.35376 135.591 18.3385 148.576 34.356 148.576Z" fill="url(#paint40_linear_19_6729)"/>
<g opacity="0.58">
<path d="M10.4407 108.058C10.3603 108.058 10.2785 108.039 10.2018 108C9.93957 107.868 9.83464 107.548 9.96675 107.286C14.6421 98.0235 23.9875 92.2696 34.356 92.2696C36.0102 92.2696 37.6674 92.4187 39.2813 92.7127C39.5702 92.7652 39.7615 93.0421 39.7089 93.3308C39.6564 93.6197 39.3819 93.8132 39.0907 93.7584C37.5395 93.4758 35.9464 93.3324 34.3561 93.3324C24.3911 93.3324 15.4095 98.8629 10.9158 107.765C10.8223 107.95 10.635 108.058 10.4407 108.058Z" fill="white"/>
</g>
<path opacity="0.78" d="M52.3434 137.562C61.9294 127.976 61.9294 112.434 52.3434 102.848C42.7573 93.2617 27.2153 93.2617 17.6292 102.848C8.04322 112.434 8.04325 127.976 17.6293 137.562C27.2154 147.148 42.7574 147.148 52.3434 137.562Z" fill="white"/>
<path d="M32.579 138.454V135.783C29.7951 135.672 27.0414 135.015 25.0857 134.159C24.3873 133.853 24.0312 133.069 24.2318 132.334L24.9102 129.846C25.159 128.933 26.1516 128.461 27.0238 128.827C28.964 129.64 31.3595 130.284 33.9425 130.284C36.6239 130.284 38.6236 129.375 38.6236 127.511C38.6236 125.83 37.0785 124.83 33.3517 123.83C28.0342 122.376 24.2163 120.058 24.2163 115.377C24.2163 111.15 27.3071 107.923 32.6699 107.06V104.389C32.6699 103.529 33.3666 102.833 34.2259 102.833H35.795C36.6544 102.833 37.3511 103.529 37.3511 104.389V106.787C39.9272 106.89 41.8024 107.33 43.2905 107.853C44.053 108.121 44.4696 108.942 44.2581 109.722L43.6342 112.023C43.3937 112.91 42.4455 113.396 41.5858 113.071C40.2156 112.553 38.2784 112.013 35.7605 112.013C32.579 112.013 31.6702 113.331 31.6702 114.513C31.6702 115.967 33.579 116.967 37.7147 118.24C43.6231 120.012 46.0773 122.466 46.0773 126.875C46.0773 130.92 43.0778 134.556 37.2604 135.465V138.454C37.2604 139.313 36.5637 140.01 35.7043 140.01H34.135C33.2757 140.01 32.579 139.313 32.579 138.454Z" fill="url(#paint41_linear_19_6729)"/>
<path d="M64.5442 164.172H4.16804C3.98269 164.172 3.83252 164.022 3.83252 163.837V154.014C3.83252 153.829 3.98277 153.678 4.16804 153.678H64.5442C64.7295 153.678 64.8797 153.829 64.8797 154.014V163.837C64.8797 164.022 64.7294 164.172 64.5442 164.172Z" fill="url(#paint42_linear_19_6729)"/>
<path d="M7.45212 162.289H6.32319C6.28206 162.289 6.24878 162.256 6.24878 162.215V155.636C6.24878 155.595 6.28214 155.561 6.32319 155.561H7.45204C7.49317 155.561 7.52645 155.595 7.52645 155.636V162.215C7.52653 162.256 7.49317 162.289 7.45212 162.289Z" fill="url(#paint43_linear_19_6729)"/>
<path d="M12.0302 162.289H10.9013C10.8602 162.289 10.8269 162.256 10.8269 162.215V155.636C10.8269 155.595 10.8603 155.561 10.9013 155.561H12.0302C12.0713 155.561 12.1046 155.595 12.1046 155.636V162.215C12.1046 162.256 12.0713 162.289 12.0302 162.289Z" fill="url(#paint44_linear_19_6729)"/>
<path d="M16.6083 162.289H15.4794C15.4383 162.289 15.405 162.256 15.405 162.215V155.636C15.405 155.595 15.4384 155.561 15.4794 155.561H16.6083C16.6494 155.561 16.6827 155.595 16.6827 155.636V162.215C16.6827 162.256 16.6494 162.289 16.6083 162.289Z" fill="url(#paint45_linear_19_6729)"/>
<path d="M21.1862 162.289H20.0573C20.0162 162.289 19.9829 162.256 19.9829 162.215V155.636C19.9829 155.595 20.0163 155.561 20.0573 155.561H21.1862C21.2274 155.561 21.2607 155.595 21.2607 155.636V162.215C21.2607 162.256 21.2274 162.289 21.1862 162.289Z" fill="url(#paint46_linear_19_6729)"/>
<path d="M25.7645 162.289H24.6357C24.5946 162.289 24.5613 162.256 24.5613 162.215V155.636C24.5613 155.595 24.5946 155.561 24.6357 155.561H25.7645C25.8057 155.561 25.8389 155.595 25.8389 155.636V162.215C25.8389 162.256 25.8056 162.289 25.7645 162.289Z" fill="url(#paint47_linear_19_6729)"/>
<path d="M30.3424 162.289H29.2136C29.1724 162.289 29.1392 162.256 29.1392 162.215V155.636C29.1392 155.595 29.1725 155.561 29.2136 155.561H30.3424C30.3836 155.561 30.4168 155.595 30.4168 155.636V162.215C30.4168 162.256 30.3836 162.289 30.3424 162.289Z" fill="url(#paint48_linear_19_6729)"/>
<path d="M34.9205 162.289H33.7917C33.7506 162.289 33.7173 162.256 33.7173 162.215V155.636C33.7173 155.595 33.7506 155.561 33.7917 155.561H34.9205C34.9617 155.561 34.995 155.595 34.995 155.636V162.215C34.995 162.256 34.9617 162.289 34.9205 162.289Z" fill="url(#paint49_linear_19_6729)"/>
<path d="M39.4987 162.289H38.3698C38.3287 162.289 38.2954 162.256 38.2954 162.215V155.636C38.2954 155.595 38.3288 155.561 38.3698 155.561H39.4987C39.5399 155.561 39.5732 155.595 39.5732 155.636V162.215C39.5732 162.256 39.5399 162.289 39.4987 162.289Z" fill="url(#paint50_linear_19_6729)"/>
<path d="M44.0768 162.289H42.9479C42.9068 162.289 42.8735 162.256 42.8735 162.215V155.636C42.8735 155.595 42.9069 155.561 42.9479 155.561H44.0768C44.1179 155.561 44.1512 155.595 44.1512 155.636V162.215C44.1512 162.256 44.1178 162.289 44.0768 162.289Z" fill="url(#paint51_linear_19_6729)"/>
<path d="M48.6549 162.289H47.5261C47.4849 162.289 47.4517 162.256 47.4517 162.215V155.636C47.4517 155.595 47.485 155.561 47.5261 155.561H48.6549C48.6961 155.561 48.7293 155.595 48.7293 155.636V162.215C48.7293 162.256 48.6961 162.289 48.6549 162.289Z" fill="url(#paint52_linear_19_6729)"/>
<path d="M53.2328 162.289H52.104C52.0628 162.289 52.0295 162.256 52.0295 162.215V155.636C52.0295 155.595 52.0629 155.561 52.104 155.561H53.2328C53.2739 155.561 53.3072 155.595 53.3072 155.636V162.215C53.3073 162.256 53.2739 162.289 53.2328 162.289Z" fill="url(#paint53_linear_19_6729)"/>
<path d="M57.811 162.289H56.6821C56.6409 162.289 56.6077 162.256 56.6077 162.215V155.636C56.6077 155.595 56.641 155.561 56.6821 155.561H57.811C57.8521 155.561 57.8854 155.595 57.8854 155.636V162.215C57.8855 162.256 57.8521 162.289 57.811 162.289Z" fill="url(#paint54_linear_19_6729)"/>
<path d="M62.3891 162.289H61.2602C61.2191 162.289 61.1858 162.256 61.1858 162.215V155.636C61.1858 155.595 61.2192 155.561 61.2602 155.561H62.3891C62.4302 155.561 62.4635 155.595 62.4635 155.636V162.215C62.4635 162.256 62.4301 162.289 62.3891 162.289Z" fill="url(#paint55_linear_19_6729)"/>
<path d="M64.5442 175.826H4.16804C3.98269 175.826 3.83252 175.676 3.83252 175.491V165.668C3.83252 165.483 3.98277 165.333 4.16804 165.333H64.5442C64.7295 165.333 64.8797 165.483 64.8797 165.668V175.491C64.8797 175.676 64.7294 175.826 64.5442 175.826Z" fill="url(#paint56_linear_19_6729)"/>
<path d="M7.45212 173.943H6.32319C6.28206 173.943 6.24878 173.91 6.24878 173.869V167.29C6.24878 167.249 6.28214 167.216 6.32319 167.216H7.45204C7.49317 167.216 7.52645 167.249 7.52645 167.29V173.869C7.52653 173.91 7.49317 173.943 7.45212 173.943Z" fill="url(#paint57_linear_19_6729)"/>
<path d="M12.0302 173.943H10.9013C10.8602 173.943 10.8269 173.91 10.8269 173.869V167.29C10.8269 167.249 10.8603 167.216 10.9013 167.216H12.0302C12.0713 167.216 12.1046 167.249 12.1046 167.29V173.869C12.1046 173.91 12.0713 173.943 12.0302 173.943Z" fill="url(#paint58_linear_19_6729)"/>
<path d="M16.6083 173.943H15.4794C15.4383 173.943 15.405 173.91 15.405 173.869V167.29C15.405 167.249 15.4384 167.216 15.4794 167.216H16.6083C16.6494 167.216 16.6827 167.249 16.6827 167.29V173.869C16.6827 173.91 16.6494 173.943 16.6083 173.943Z" fill="url(#paint59_linear_19_6729)"/>
<path d="M21.1862 173.943H20.0573C20.0162 173.943 19.9829 173.91 19.9829 173.869V167.29C19.9829 167.249 20.0163 167.216 20.0573 167.216H21.1862C21.2274 167.216 21.2607 167.249 21.2607 167.29V173.869C21.2607 173.91 21.2274 173.943 21.1862 173.943Z" fill="url(#paint60_linear_19_6729)"/>
<path d="M25.7645 173.943H24.6357C24.5946 173.943 24.5613 173.91 24.5613 173.869V167.29C24.5613 167.249 24.5946 167.216 24.6357 167.216H25.7645C25.8057 167.216 25.8389 167.249 25.8389 167.29V173.869C25.8389 173.91 25.8056 173.943 25.7645 173.943Z" fill="url(#paint61_linear_19_6729)"/>
<path d="M30.3424 173.943H29.2136C29.1724 173.943 29.1392 173.91 29.1392 173.869V167.29C29.1392 167.249 29.1725 167.216 29.2136 167.216H30.3424C30.3836 167.216 30.4168 167.249 30.4168 167.29V173.869C30.4168 173.91 30.3836 173.943 30.3424 173.943Z" fill="url(#paint62_linear_19_6729)"/>
<path d="M34.9205 173.943H33.7917C33.7506 173.943 33.7173 173.91 33.7173 173.869V167.29C33.7173 167.249 33.7506 167.216 33.7917 167.216H34.9205C34.9617 167.216 34.995 167.249 34.995 167.29V173.869C34.995 173.91 34.9617 173.943 34.9205 173.943Z" fill="url(#paint63_linear_19_6729)"/>
<path d="M39.4987 173.943H38.3698C38.3287 173.943 38.2954 173.91 38.2954 173.869V167.29C38.2954 167.249 38.3288 167.216 38.3698 167.216H39.4987C39.5399 167.216 39.5732 167.249 39.5732 167.29V173.869C39.5732 173.91 39.5399 173.943 39.4987 173.943Z" fill="url(#paint64_linear_19_6729)"/>
<path d="M44.0768 173.943H42.9479C42.9068 173.943 42.8735 173.91 42.8735 173.869V167.29C42.8735 167.249 42.9069 167.216 42.9479 167.216H44.0768C44.1179 167.216 44.1512 167.249 44.1512 167.29V173.869C44.1512 173.91 44.1178 173.943 44.0768 173.943Z" fill="url(#paint65_linear_19_6729)"/>
<path d="M48.6549 173.943H47.5261C47.4849 173.943 47.4517 173.91 47.4517 173.869V167.29C47.4517 167.249 47.485 167.216 47.5261 167.216H48.6549C48.6961 167.216 48.7293 167.249 48.7293 167.29V173.869C48.7293 173.91 48.6961 173.943 48.6549 173.943Z" fill="url(#paint66_linear_19_6729)"/>
<path d="M53.2328 173.943H52.104C52.0628 173.943 52.0295 173.91 52.0295 173.869V167.29C52.0295 167.249 52.0629 167.216 52.104 167.216H53.2328C53.2739 167.216 53.3072 167.249 53.3072 167.29V173.869C53.3073 173.91 53.2739 173.943 53.2328 173.943Z" fill="url(#paint67_linear_19_6729)"/>
<path d="M57.8111 173.943H56.6822C56.641 173.943 56.6077 173.91 56.6077 173.869V167.29C56.6077 167.249 56.641 167.216 56.6821 167.216H57.811C57.8521 167.216 57.8855 167.249 57.8855 167.29V173.869C57.8856 173.91 57.8522 173.943 57.8111 173.943Z" fill="url(#paint68_linear_19_6729)"/>
<path d="M62.3891 173.943H61.2602C61.2191 173.943 61.1858 173.91 61.1858 173.869V167.29C61.1858 167.249 61.2192 167.216 61.2602 167.216H62.3891C62.4302 167.216 62.4635 167.249 62.4635 167.29V173.869C62.4635 173.91 62.4301 173.943 62.3891 173.943Z" fill="url(#paint69_linear_19_6729)"/>
<path d="M64.5442 187.481H4.16804C3.98269 187.481 3.83252 187.33 3.83252 187.145V177.322C3.83252 177.137 3.98277 176.987 4.16804 176.987H64.5442C64.7295 176.987 64.8797 177.137 64.8797 177.322V187.145C64.8797 187.33 64.7294 187.481 64.5442 187.481Z" fill="url(#paint70_linear_19_6729)"/>
<path d="M7.45212 185.598H6.32319C6.28206 185.598 6.24878 185.564 6.24878 185.523V178.944C6.24878 178.903 6.28214 178.87 6.32319 178.87H7.45204C7.49317 178.87 7.52645 178.903 7.52645 178.944V185.523C7.52653 185.564 7.49317 185.598 7.45212 185.598Z" fill="url(#paint71_linear_19_6729)"/>
<path d="M12.0302 185.598H10.9013C10.8602 185.598 10.8269 185.564 10.8269 185.523V178.944C10.8269 178.903 10.8603 178.87 10.9013 178.87H12.0302C12.0713 178.87 12.1046 178.903 12.1046 178.944V185.523C12.1046 185.564 12.0713 185.598 12.0302 185.598Z" fill="url(#paint72_linear_19_6729)"/>
<path d="M16.6083 185.598H15.4794C15.4383 185.598 15.405 185.564 15.405 185.523V178.944C15.405 178.903 15.4384 178.87 15.4794 178.87H16.6083C16.6494 178.87 16.6827 178.903 16.6827 178.944V185.523C16.6827 185.564 16.6494 185.598 16.6083 185.598Z" fill="url(#paint73_linear_19_6729)"/>
<path d="M21.1862 185.598H20.0573C20.0162 185.598 19.9829 185.564 19.9829 185.523V178.944C19.9829 178.903 20.0163 178.87 20.0573 178.87H21.1862C21.2274 178.87 21.2607 178.903 21.2607 178.944V185.523C21.2607 185.564 21.2274 185.598 21.1862 185.598Z" fill="url(#paint74_linear_19_6729)"/>
<path d="M25.7645 185.598H24.6357C24.5946 185.598 24.5613 185.564 24.5613 185.523V178.944C24.5613 178.903 24.5946 178.87 24.6357 178.87H25.7645C25.8057 178.87 25.8389 178.903 25.8389 178.944V185.523C25.8389 185.564 25.8056 185.598 25.7645 185.598Z" fill="url(#paint75_linear_19_6729)"/>
<path d="M30.3424 185.598H29.2136C29.1724 185.598 29.1392 185.564 29.1392 185.523V178.944C29.1392 178.903 29.1725 178.87 29.2136 178.87H30.3424C30.3836 178.87 30.4168 178.903 30.4168 178.944V185.523C30.4168 185.564 30.3836 185.598 30.3424 185.598Z" fill="url(#paint76_linear_19_6729)"/>
<path d="M34.9205 185.598H33.7917C33.7506 185.598 33.7173 185.564 33.7173 185.523V178.944C33.7173 178.903 33.7506 178.87 33.7917 178.87H34.9205C34.9617 178.87 34.995 178.903 34.995 178.944V185.523C34.995 185.564 34.9617 185.598 34.9205 185.598Z" fill="url(#paint77_linear_19_6729)"/>
<path d="M39.4987 185.598H38.3698C38.3287 185.598 38.2954 185.564 38.2954 185.523V178.944C38.2954 178.903 38.3288 178.87 38.3698 178.87H39.4987C39.5399 178.87 39.5732 178.903 39.5732 178.944V185.523C39.5732 185.564 39.5399 185.598 39.4987 185.598Z" fill="url(#paint78_linear_19_6729)"/>
<path d="M44.0768 185.598H42.9479C42.9068 185.598 42.8735 185.564 42.8735 185.523V178.944C42.8735 178.903 42.9069 178.87 42.9479 178.87H44.0768C44.1179 178.87 44.1512 178.903 44.1512 178.944V185.523C44.1512 185.564 44.1178 185.598 44.0768 185.598Z" fill="url(#paint79_linear_19_6729)"/>
<path d="M48.6549 185.598H47.5261C47.4849 185.598 47.4517 185.564 47.4517 185.523V178.944C47.4517 178.903 47.485 178.87 47.5261 178.87H48.6549C48.6961 178.87 48.7293 178.903 48.7293 178.944V185.523C48.7293 185.564 48.6961 185.598 48.6549 185.598Z" fill="url(#paint80_linear_19_6729)"/>
<path d="M53.2328 185.598H52.104C52.0628 185.598 52.0295 185.564 52.0295 185.523V178.944C52.0295 178.903 52.0629 178.87 52.104 178.87H53.2328C53.2739 178.87 53.3072 178.903 53.3072 178.944V185.523C53.3073 185.564 53.2739 185.598 53.2328 185.598Z" fill="url(#paint81_linear_19_6729)"/>
<path d="M57.811 185.598H56.6821C56.6409 185.598 56.6077 185.564 56.6077 185.523V178.944C56.6077 178.903 56.641 178.87 56.6821 178.87H57.811C57.8521 178.87 57.8854 178.903 57.8854 178.944V185.523C57.8855 185.564 57.8521 185.598 57.811 185.598Z" fill="url(#paint82_linear_19_6729)"/>
<path d="M62.3891 185.598H61.2602C61.2191 185.598 61.1858 185.564 61.1858 185.523V178.944C61.1858 178.903 61.2192 178.87 61.2602 178.87H62.3891C62.4302 178.87 62.4635 178.903 62.4635 178.944V185.523C62.4635 185.564 62.4301 185.598 62.3891 185.598Z" fill="url(#paint83_linear_19_6729)"/>
<path d="M64.5442 199.135H4.16804C3.98269 199.135 3.83252 198.985 3.83252 198.799V188.976C3.83252 188.791 3.98277 188.641 4.16804 188.641H64.5442C64.7295 188.641 64.8797 188.791 64.8797 188.976V198.799C64.8797 198.985 64.7294 199.135 64.5442 199.135Z" fill="url(#paint84_linear_19_6729)"/>
<path d="M7.45212 197.252H6.32327C6.28214 197.252 6.24878 197.218 6.24878 197.177V190.598C6.24878 190.557 6.28214 190.524 6.32319 190.524H7.45204C7.49317 190.524 7.52645 190.557 7.52645 190.598V197.177C7.52653 197.218 7.49317 197.252 7.45212 197.252Z" fill="url(#paint85_linear_19_6729)"/>
<path d="M12.0302 197.252H10.9014C10.8603 197.252 10.8269 197.218 10.8269 197.177V190.598C10.8269 190.557 10.8603 190.524 10.9013 190.524H12.0302C12.0713 190.524 12.1046 190.557 12.1046 190.598V197.177C12.1047 197.218 12.0714 197.252 12.0302 197.252Z" fill="url(#paint86_linear_19_6729)"/>
<path d="M16.6084 197.252H15.4795C15.4384 197.252 15.405 197.218 15.405 197.177V190.598C15.405 190.557 15.4384 190.524 15.4794 190.524H16.6083C16.6494 190.524 16.6827 190.557 16.6827 190.598V197.177C16.6828 197.218 16.6495 197.252 16.6084 197.252Z" fill="url(#paint87_linear_19_6729)"/>
<path d="M21.1862 197.252H20.0573C20.0162 197.252 19.9829 197.218 19.9829 197.177V190.598C19.9829 190.557 20.0163 190.524 20.0573 190.524H21.1862C21.2274 190.524 21.2607 190.557 21.2607 190.598V197.177C21.2607 197.218 21.2274 197.252 21.1862 197.252Z" fill="url(#paint88_linear_19_6729)"/>
<path d="M25.7644 197.252H24.6355C24.5944 197.252 24.561 197.218 24.561 197.177V190.598C24.561 190.557 24.5944 190.524 24.6354 190.524H25.7643C25.8054 190.524 25.8387 190.557 25.8387 190.598V197.177C25.8388 197.218 25.8054 197.252 25.7644 197.252Z" fill="url(#paint89_linear_19_6729)"/>
<path d="M30.3425 197.252H29.2137C29.1725 197.252 29.1392 197.218 29.1392 197.177V190.598C29.1392 190.557 29.1725 190.524 29.2136 190.524H30.3424C30.3835 190.524 30.4168 190.557 30.4168 190.598V197.177C30.4169 197.218 30.3836 197.252 30.3425 197.252Z" fill="url(#paint90_linear_19_6729)"/>
<path d="M34.9205 197.252H33.7917C33.7506 197.252 33.7173 197.218 33.7173 197.177V190.598C33.7173 190.557 33.7506 190.524 33.7917 190.524H34.9205C34.9617 190.524 34.995 190.557 34.995 190.598V197.177C34.995 197.218 34.9617 197.252 34.9205 197.252Z" fill="url(#paint91_linear_19_6729)"/>
<path d="M39.4986 197.252H38.3697C38.3285 197.252 38.2952 197.218 38.2952 197.177V190.598C38.2952 190.557 38.3285 190.524 38.3696 190.524H39.4985C39.5396 190.524 39.5729 190.557 39.5729 190.598V197.177C39.5731 197.218 39.5397 197.252 39.4986 197.252Z" fill="url(#paint92_linear_19_6729)"/>
<path d="M44.0768 197.252H42.9479C42.9068 197.252 42.8735 197.218 42.8735 197.177V190.598C42.8735 190.557 42.9069 190.524 42.9479 190.524H44.0768C44.1179 190.524 44.1512 190.557 44.1512 190.598V197.177C44.1513 197.218 44.1179 197.252 44.0768 197.252Z" fill="url(#paint93_linear_19_6729)"/>
<path d="M48.6548 197.252H47.5259C47.4848 197.252 47.4514 197.218 47.4514 197.177V190.598C47.4514 190.557 47.4848 190.524 47.5258 190.524H48.6547C48.6958 190.524 48.7291 190.557 48.7291 190.598V197.177C48.7292 197.218 48.6959 197.252 48.6548 197.252Z" fill="url(#paint94_linear_19_6729)"/>
<path d="M53.2329 197.252H52.104C52.0629 197.252 52.0295 197.218 52.0295 197.177V190.598C52.0295 190.557 52.0629 190.524 52.1039 190.524H53.2328C53.2739 190.524 53.3072 190.557 53.3072 190.598V197.177C53.3074 197.218 53.274 197.252 53.2329 197.252Z" fill="url(#paint95_linear_19_6729)"/>
<path d="M57.8111 197.252H56.6822C56.641 197.252 56.6077 197.218 56.6077 197.177V190.598C56.6077 190.557 56.641 190.524 56.6821 190.524H57.811C57.8521 190.524 57.8854 190.557 57.8854 190.598V197.177C57.8856 197.218 57.8522 197.252 57.8111 197.252Z" fill="url(#paint96_linear_19_6729)"/>
<path d="M62.3891 197.252H61.2602C61.2191 197.252 61.1858 197.218 61.1858 197.177V190.598C61.1858 190.557 61.2192 190.524 61.2602 190.524H62.3891C62.4302 190.524 62.4635 190.557 62.4635 190.598V197.177C62.4635 197.218 62.4301 197.252 62.3891 197.252Z" fill="url(#paint97_linear_19_6729)"/>
<path d="M64.5442 210.789H4.16804C3.98269 210.789 3.83252 210.639 3.83252 210.454V200.631C3.83252 200.445 3.98277 200.295 4.16804 200.295H64.5442C64.7295 200.295 64.8797 200.445 64.8797 200.631V210.454C64.8797 210.639 64.7294 210.789 64.5442 210.789Z" fill="url(#paint98_linear_19_6729)"/>
<path d="M7.45212 208.906H6.32319C6.28206 208.906 6.24878 208.873 6.24878 208.832V202.253C6.24878 202.211 6.28214 202.178 6.32327 202.178H7.45212C7.49325 202.178 7.52653 202.211 7.52653 202.253V208.832C7.52653 208.873 7.49317 208.906 7.45212 208.906Z" fill="url(#paint99_linear_19_6729)"/>
<path d="M12.0302 208.906H10.9013C10.8602 208.906 10.8269 208.873 10.8269 208.832V202.253C10.8269 202.212 10.8603 202.178 10.9013 202.178H12.0302C12.0713 202.178 12.1047 202.212 12.1047 202.253V208.832C12.1046 208.873 12.0713 208.906 12.0302 208.906Z" fill="url(#paint100_linear_19_6729)"/>
<path d="M16.6083 208.906H15.4794C15.4383 208.906 15.405 208.873 15.405 208.832V202.253C15.405 202.212 15.4384 202.178 15.4794 202.178H16.6083C16.6494 202.178 16.6827 202.212 16.6827 202.253V208.832C16.6827 208.873 16.6494 208.906 16.6083 208.906Z" fill="url(#paint101_linear_19_6729)"/>
<path d="M21.1862 208.906H20.0573C20.0162 208.906 19.9829 208.873 19.9829 208.832V202.253C19.9829 202.211 20.0163 202.178 20.0573 202.178H21.1862C21.2274 202.178 21.2607 202.211 21.2607 202.253V208.832C21.2607 208.873 21.2274 208.906 21.1862 208.906Z" fill="url(#paint102_linear_19_6729)"/>
<path d="M25.7645 208.906H24.6357C24.5946 208.906 24.5613 208.873 24.5613 208.832V202.253C24.5613 202.211 24.5946 202.178 24.6358 202.178H25.7646C25.8057 202.178 25.8391 202.211 25.8391 202.253V208.832C25.839 208.873 25.8056 208.906 25.7645 208.906Z" fill="url(#paint103_linear_19_6729)"/>
<path d="M30.3424 208.906H29.2136C29.1724 208.906 29.1392 208.873 29.1392 208.832V202.253C29.1392 202.211 29.1725 202.178 29.2137 202.178H30.3425C30.3836 202.178 30.4169 202.211 30.4169 202.253V208.832C30.4168 208.873 30.3836 208.906 30.3424 208.906Z" fill="url(#paint104_linear_19_6729)"/>
<path d="M34.9205 208.906H33.7917C33.7506 208.906 33.7173 208.873 33.7173 208.832V202.253C33.7173 202.211 33.7506 202.178 33.7917 202.178H34.9205C34.9617 202.178 34.995 202.211 34.995 202.253V208.832C34.995 208.873 34.9617 208.906 34.9205 208.906Z" fill="url(#paint105_linear_19_6729)"/>
<path d="M39.4987 208.906H38.3698C38.3287 208.906 38.2954 208.873 38.2954 208.832V202.253C38.2954 202.211 38.3288 202.178 38.3699 202.178H39.4988C39.54 202.178 39.5733 202.211 39.5733 202.253V208.832C39.5732 208.873 39.5399 208.906 39.4987 208.906Z" fill="url(#paint106_linear_19_6729)"/>
<path d="M44.0768 208.906H42.9479C42.9068 208.906 42.8735 208.873 42.8735 208.832V202.253C42.8735 202.211 42.9069 202.178 42.9479 202.178H44.0768C44.1179 202.178 44.1512 202.211 44.1512 202.253V208.832C44.1512 208.873 44.1178 208.906 44.0768 208.906Z" fill="url(#paint107_linear_19_6729)"/>
<path d="M48.6549 208.906H47.5261C47.4849 208.906 47.4517 208.873 47.4517 208.832V202.253C47.4517 202.211 47.485 202.178 47.5262 202.178H48.655C48.6961 202.178 48.7294 202.211 48.7294 202.253V208.832C48.7293 208.873 48.6961 208.906 48.6549 208.906Z" fill="url(#paint108_linear_19_6729)"/>
<path d="M53.2328 208.906H52.104C52.0628 208.906 52.0295 208.873 52.0295 208.832V202.253C52.0295 202.212 52.0629 202.178 52.104 202.178H53.2328C53.2739 202.178 53.3072 202.212 53.3072 202.253V208.832C53.3073 208.873 53.2739 208.906 53.2328 208.906Z" fill="url(#paint109_linear_19_6729)"/>
<path d="M57.811 208.906H56.6821C56.6409 208.906 56.6077 208.873 56.6077 208.832V202.253C56.6077 202.211 56.641 202.178 56.6822 202.178H57.8111C57.8522 202.178 57.8856 202.211 57.8856 202.253V208.832C57.8855 208.873 57.8521 208.906 57.811 208.906Z" fill="url(#paint110_linear_19_6729)"/>
<path d="M62.3891 208.906H61.2602C61.2191 208.906 61.1858 208.873 61.1858 208.832V202.253C61.1858 202.212 61.2192 202.178 61.2602 202.178H62.3891C62.4302 202.178 62.4635 202.212 62.4635 202.253V208.832C62.4635 208.873 62.4301 208.906 62.3891 208.906Z" fill="url(#paint111_linear_19_6729)"/>
<path d="M64.5442 222.443H4.16804C3.98269 222.443 3.83252 222.293 3.83252 222.108V212.285C3.83252 212.1 3.98277 211.949 4.16804 211.949H64.5442C64.7295 211.949 64.8797 212.1 64.8797 212.285V222.108C64.8797 222.293 64.7294 222.443 64.5442 222.443Z" fill="url(#paint112_linear_19_6729)"/>
<path d="M7.45212 220.56H6.32319C6.28206 220.56 6.24878 220.527 6.24878 220.486V213.907C6.24878 213.866 6.28214 213.833 6.32319 213.833H7.45204C7.49317 213.833 7.52645 213.866 7.52645 213.907V220.486C7.52653 220.527 7.49317 220.56 7.45212 220.56Z" fill="url(#paint113_linear_19_6729)"/>
<path d="M12.0302 220.56H10.9013C10.8602 220.56 10.8269 220.527 10.8269 220.486V213.907C10.8269 213.866 10.8603 213.833 10.9013 213.833H12.0302C12.0713 213.833 12.1046 213.866 12.1046 213.907V220.486C12.1046 220.527 12.0713 220.56 12.0302 220.56Z" fill="url(#paint114_linear_19_6729)"/>
<path d="M16.6083 220.56H15.4794C15.4383 220.56 15.405 220.527 15.405 220.486V213.907C15.405 213.866 15.4384 213.833 15.4794 213.833H16.6083C16.6494 213.833 16.6827 213.866 16.6827 213.907V220.486C16.6827 220.527 16.6494 220.56 16.6083 220.56Z" fill="url(#paint115_linear_19_6729)"/>
<path d="M21.1862 220.56H20.0573C20.0162 220.56 19.9829 220.527 19.9829 220.486V213.907C19.9829 213.866 20.0163 213.833 20.0573 213.833H21.1862C21.2274 213.833 21.2607 213.866 21.2607 213.907V220.486C21.2607 220.527 21.2274 220.56 21.1862 220.56Z" fill="url(#paint116_linear_19_6729)"/>
<path d="M25.7645 220.56H24.6357C24.5946 220.56 24.5613 220.527 24.5613 220.486V213.907C24.5613 213.866 24.5946 213.833 24.6357 213.833H25.7645C25.8057 213.833 25.8389 213.866 25.8389 213.907V220.486C25.8389 220.527 25.8056 220.56 25.7645 220.56Z" fill="url(#paint117_linear_19_6729)"/>
<path d="M30.3424 220.56H29.2136C29.1724 220.56 29.1392 220.527 29.1392 220.486V213.907C29.1392 213.866 29.1725 213.833 29.2136 213.833H30.3424C30.3836 213.833 30.4168 213.866 30.4168 213.907V220.486C30.4168 220.527 30.3836 220.56 30.3424 220.56Z" fill="url(#paint118_linear_19_6729)"/>
<path d="M34.9205 220.56H33.7917C33.7506 220.56 33.7173 220.527 33.7173 220.486V213.907C33.7173 213.866 33.7506 213.833 33.7917 213.833H34.9205C34.9617 213.833 34.995 213.866 34.995 213.907V220.486C34.995 220.527 34.9617 220.56 34.9205 220.56Z" fill="url(#paint119_linear_19_6729)"/>
<path d="M39.4987 220.56H38.3698C38.3287 220.56 38.2954 220.527 38.2954 220.486V213.907C38.2954 213.866 38.3288 213.833 38.3698 213.833H39.4987C39.5399 213.833 39.5732 213.866 39.5732 213.907V220.486C39.5732 220.527 39.5399 220.56 39.4987 220.56Z" fill="url(#paint120_linear_19_6729)"/>
<path d="M44.0768 220.56H42.9479C42.9068 220.56 42.8735 220.527 42.8735 220.486V213.907C42.8735 213.866 42.9069 213.833 42.9479 213.833H44.0768C44.1179 213.833 44.1512 213.866 44.1512 213.907V220.486C44.1512 220.527 44.1178 220.56 44.0768 220.56Z" fill="url(#paint121_linear_19_6729)"/>
<path d="M48.6549 220.56H47.5261C47.4849 220.56 47.4517 220.527 47.4517 220.486V213.907C47.4517 213.866 47.485 213.833 47.5261 213.833H48.6549C48.6961 213.833 48.7293 213.866 48.7293 213.907V220.486C48.7293 220.527 48.6961 220.56 48.6549 220.56Z" fill="url(#paint122_linear_19_6729)"/>
<path d="M53.2328 220.56H52.104C52.0628 220.56 52.0295 220.527 52.0295 220.486V213.907C52.0295 213.866 52.0629 213.833 52.104 213.833H53.2328C53.2739 213.833 53.3072 213.866 53.3072 213.907V220.486C53.3073 220.527 53.2739 220.56 53.2328 220.56Z" fill="url(#paint123_linear_19_6729)"/>
<path d="M57.811 220.56H56.6821C56.6409 220.56 56.6077 220.527 56.6077 220.486V213.907C56.6077 213.866 56.641 213.833 56.6821 213.833H57.811C57.8521 213.833 57.8855 213.866 57.8855 213.907V220.486C57.8855 220.527 57.8521 220.56 57.811 220.56Z" fill="url(#paint124_linear_19_6729)"/>
<path d="M62.3891 220.56H61.2602C61.2191 220.56 61.1858 220.527 61.1858 220.486V213.907C61.1858 213.866 61.2192 213.833 61.2602 213.833H62.3891C62.4302 213.833 62.4635 213.866 62.4635 213.907V220.486C62.4635 220.527 62.4301 220.56 62.3891 220.56Z" fill="url(#paint125_linear_19_6729)"/>
<defs>
<linearGradient id="paint0_linear_19_6729" x1="239.454" y1="256.925" x2="84.7545" y2="92.2448" gradientUnits="userSpaceOnUse">
<stop stop-color="#DAE3FE"/>
<stop offset="1" stop-color="#E9EFFD"/>
</linearGradient>
<linearGradient id="paint1_linear_19_6729" x1="189.028" y1="117.849" x2="36.9304" y2="117.849" gradientUnits="userSpaceOnUse">
<stop stop-color="#09005D"/>
<stop offset="1" stop-color="#1A0F91"/>
</linearGradient>
<linearGradient id="paint2_linear_19_6729" x1="201.726" y1="-40.3527" x2="80.7098" y2="88.0732" gradientUnits="userSpaceOnUse">
<stop stop-color="#4F52FF"/>
<stop offset="1" stop-color="#4042E2"/>
</linearGradient>
<linearGradient id="paint3_linear_19_6729" x1="164.577" y1="272.485" x2="50.5264" y2="162.685" gradientUnits="userSpaceOnUse">
<stop stop-color="#FEBBBA"/>
<stop offset="1" stop-color="#FF928E"/>
</linearGradient>
<linearGradient id="paint4_linear_19_6729" x1="230.649" y1="-1.43902" x2="129.029" y2="237.634" gradientUnits="userSpaceOnUse">
<stop stop-color="#4F52FF"/>
<stop offset="1" stop-color="#4042E2"/>
</linearGradient>
<linearGradient id="paint5_linear_19_6729" x1="214.688" y1="-28.2751" x2="98.5783" y2="244.89" gradientUnits="userSpaceOnUse">
<stop stop-color="#4F52FF"/>
<stop offset="1" stop-color="#4042E2"/>
</linearGradient>
<linearGradient id="paint6_linear_19_6729" x1="224.214" y1="-27.5285" x2="108.104" y2="245.636" gradientUnits="userSpaceOnUse">
<stop stop-color="#4F52FF"/>
<stop offset="1" stop-color="#4042E2"/>
</linearGradient>
<linearGradient id="paint7_linear_19_6729" x1="233.74" y1="-26.7824" x2="117.63" y2="246.382" gradientUnits="userSpaceOnUse">
<stop stop-color="#4F52FF"/>
<stop offset="1" stop-color="#4042E2"/>
</linearGradient>
<linearGradient id="paint8_linear_19_6729" x1="191.426" y1="-39.8714" x2="75.3162" y2="233.293" gradientUnits="userSpaceOnUse">
<stop stop-color="#4F52FF"/>
<stop offset="1" stop-color="#4042E2"/>
</linearGradient>
<linearGradient id="paint9_linear_19_6729" x1="200.952" y1="-39.1248" x2="84.8416" y2="234.04" gradientUnits="userSpaceOnUse">
<stop stop-color="#4F52FF"/>
<stop offset="1" stop-color="#4042E2"/>
</linearGradient>
<linearGradient id="paint10_linear_19_6729" x1="210.27" y1="-38.482" x2="94.1599" y2="234.683" gradientUnits="userSpaceOnUse">
<stop stop-color="#4F52FF"/>
<stop offset="1" stop-color="#4042E2"/>
</linearGradient>
<linearGradient id="paint11_linear_19_6729" x1="167.957" y1="-51.5711" x2="51.8466" y2="221.594" gradientUnits="userSpaceOnUse">
<stop stop-color="#4F52FF"/>
<stop offset="1" stop-color="#4042E2"/>
</linearGradient>
<linearGradient id="paint12_linear_19_6729" x1="177.482" y1="-50.8237" x2="61.3717" y2="222.341" gradientUnits="userSpaceOnUse">
<stop stop-color="#4F52FF"/>
<stop offset="1" stop-color="#4042E2"/>
</linearGradient>
<linearGradient id="paint13_linear_19_6729" x1="187.007" y1="-50.077" x2="70.8972" y2="223.088" gradientUnits="userSpaceOnUse">
<stop stop-color="#4F52FF"/>
<stop offset="1" stop-color="#4042E2"/>
</linearGradient>
<linearGradient id="paint14_linear_19_6729" x1="142.376" y1="-64.3234" x2="26.266" y2="208.841" gradientUnits="userSpaceOnUse">
<stop stop-color="#4F52FF"/>
<stop offset="1" stop-color="#4042E2"/>
</linearGradient>
<linearGradient id="paint15_linear_19_6729" x1="151.902" y1="-63.5765" x2="35.7912" y2="209.588" gradientUnits="userSpaceOnUse">
<stop stop-color="#4F52FF"/>
<stop offset="1" stop-color="#4042E2"/>
</linearGradient>
<linearGradient id="paint16_linear_19_6729" x1="161.427" y1="-62.8297" x2="45.3168" y2="210.335" gradientUnits="userSpaceOnUse">
<stop stop-color="#4F52FF"/>
<stop offset="1" stop-color="#4042E2"/>
</linearGradient>
<linearGradient id="paint17_linear_19_6729" x1="130.458" y1="-57.6257" x2="20.3449" y2="201.43" gradientUnits="userSpaceOnUse">
<stop stop-color="#4F52FF"/>
<stop offset="1" stop-color="#4042E2"/>
</linearGradient>
<linearGradient id="paint18_linear_19_6729" x1="156.704" y1="-45.3515" x2="46.5907" y2="213.704" gradientUnits="userSpaceOnUse">
<stop stop-color="#4F52FF"/>
<stop offset="1" stop-color="#4042E2"/>
</linearGradient>
<linearGradient id="paint19_linear_19_6729" x1="180.85" y1="-34.0597" x2="70.7372" y2="224.996" gradientUnits="userSpaceOnUse">
<stop stop-color="#4F52FF"/>
<stop offset="1" stop-color="#4042E2"/>
</linearGradient>
<linearGradient id="paint20_linear_19_6729" x1="207.096" y1="-21.7857" x2="96.9829" y2="237.27" gradientUnits="userSpaceOnUse">
<stop stop-color="#4F52FF"/>
<stop offset="1" stop-color="#4042E2"/>
</linearGradient>
<linearGradient id="paint21_linear_19_6729" x1="218.197" y1="216.552" x2="209.438" y2="216.552" gradientUnits="userSpaceOnUse">
<stop stop-color="#09005D"/>
<stop offset="1" stop-color="#1A0F91"/>
</linearGradient>
<linearGradient id="paint22_linear_19_6729" x1="217.308" y1="212.482" x2="213.756" y2="212.482" gradientUnits="userSpaceOnUse">
<stop stop-color="#FEBBBA"/>
<stop offset="1" stop-color="#FF928E"/>
</linearGradient>
<linearGradient id="paint23_linear_19_6729" x1="199.57" y1="216.412" x2="185.827" y2="216.412" gradientUnits="userSpaceOnUse">
<stop stop-color="#09005D"/>
<stop offset="1" stop-color="#1A0F91"/>
</linearGradient>
<linearGradient id="paint24_linear_19_6729" x1="199.361" y1="210.905" x2="195.828" y2="210.905" gradientUnits="userSpaceOnUse">
<stop stop-color="#FEBBBA"/>
<stop offset="1" stop-color="#FF928E"/>
</linearGradient>
<linearGradient id="paint25_linear_19_6729" x1="219.516" y1="179.568" x2="195.432" y2="179.568" gradientUnits="userSpaceOnUse">
<stop stop-color="#09005D"/>
<stop offset="1" stop-color="#1A0F91"/>
</linearGradient>
<linearGradient id="paint26_linear_19_6729" x1="204.462" y1="167.56" x2="167.29" y2="195.371" gradientUnits="userSpaceOnUse">
<stop stop-color="#4F52FF"/>
<stop offset="1" stop-color="#4042E2"/>
</linearGradient>
<linearGradient id="paint27_linear_19_6729" x1="173.823" y1="72.4665" x2="183.985" y2="117.928" gradientUnits="userSpaceOnUse">
<stop stop-color="#4F52FF"/>
<stop offset="1" stop-color="#4042E2"/>
</linearGradient>
<linearGradient id="paint28_linear_19_6729" x1="190.303" y1="85.4316" x2="159.938" y2="104.822" gradientUnits="userSpaceOnUse">
<stop stop-color="#FEBBBA"/>
<stop offset="1" stop-color="#FF928E"/>
</linearGradient>
<linearGradient id="paint29_linear_19_6729" x1="182.925" y1="125.226" x2="280.831" y2="202.52" gradientUnits="userSpaceOnUse">
<stop stop-color="#4F52FF"/>
<stop offset="1" stop-color="#4042E2"/>
</linearGradient>
<linearGradient id="paint30_linear_19_6729" x1="158.841" y1="114.679" x2="164.145" y2="142.3" gradientUnits="userSpaceOnUse">
<stop stop-color="#FEBBBA"/>
<stop offset="1" stop-color="#FF928E"/>
</linearGradient>
<linearGradient id="paint31_linear_19_6729" x1="149.186" y1="116.533" x2="154.491" y2="144.154" gradientUnits="userSpaceOnUse">
<stop stop-color="#FEBBBA"/>
<stop offset="1" stop-color="#FF928E"/>
</linearGradient>
<linearGradient id="paint32_linear_19_6729" x1="177.502" y1="88.2429" x2="206.197" y2="140.967" gradientUnits="userSpaceOnUse">
<stop stop-color="#FEBBBA"/>
<stop offset="1" stop-color="#FF928E"/>
</linearGradient>
<linearGradient id="paint33_linear_19_6729" x1="186.57" y1="98.2955" x2="187.227" y2="118.422" gradientUnits="userSpaceOnUse">
<stop stop-color="#FEBBBA"/>
<stop offset="1" stop-color="#FF928E"/>
</linearGradient>
<linearGradient id="paint34_linear_19_6729" x1="191.912" y1="106.809" x2="180.062" y2="98.4446" gradientUnits="userSpaceOnUse">
<stop stop-color="#09005D"/>
<stop offset="1" stop-color="#1A0F91"/>
</linearGradient>
<linearGradient id="paint35_linear_19_6729" x1="193.764" y1="118.945" x2="191.569" y2="105.164" gradientUnits="userSpaceOnUse">
<stop stop-color="#FEBBBA"/>
<stop offset="1" stop-color="#FF928E"/>
</linearGradient>
<linearGradient id="paint36_linear_19_6729" x1="245.132" y1="-144.485" x2="111.767" y2="88.4914" gradientUnits="userSpaceOnUse">
<stop stop-color="#FF928E"/>
<stop offset="1" stop-color="#FE7062"/>
</linearGradient>
<linearGradient id="paint37_linear_19_6729" x1="124.594" y1="64.6055" x2="162.033" y2="-18.295" gradientUnits="userSpaceOnUse">
<stop stop-color="#FF928E"/>
<stop offset="1" stop-color="#FE7062"/>
</linearGradient>
<linearGradient id="paint38_linear_19_6729" x1="149.111" y1="116.547" x2="154.416" y2="144.169" gradientUnits="userSpaceOnUse">
<stop stop-color="#FEBBBA"/>
<stop offset="1" stop-color="#FF928E"/>
</linearGradient>
<linearGradient id="paint39_linear_19_6729" x1="-6.69594" y1="167.223" x2="33.5432" y2="120.517" gradientUnits="userSpaceOnUse">
<stop stop-color="#FF928E"/>
<stop offset="1" stop-color="#FE7062"/>
</linearGradient>
<linearGradient id="paint40_linear_19_6729" x1="56.2809" y1="86.4511" x2="-62.7072" y2="266.208" gradientUnits="userSpaceOnUse">
<stop stop-color="#FF928E"/>
<stop offset="1" stop-color="#FE7062"/>
</linearGradient>
<linearGradient id="paint41_linear_19_6729" x1="52.7314" y1="91.6017" x2="-10.6275" y2="197.971" gradientUnits="userSpaceOnUse">
<stop stop-color="#FF928E"/>
<stop offset="1" stop-color="#FE7062"/>
</linearGradient>
<linearGradient id="paint42_linear_19_6729" x1="-49.1491" y1="262.821" x2="20.826" y2="175.759" gradientUnits="userSpaceOnUse">
<stop stop-color="#FF928E"/>
<stop offset="1" stop-color="#FE7062"/>
</linearGradient>
<linearGradient id="paint43_linear_19_6729" x1="9.63989" y1="154.512" x2="2.72994" y2="165.593" gradientUnits="userSpaceOnUse">
<stop stop-color="#FF928E"/>
<stop offset="1" stop-color="#FE7062"/>
</linearGradient>
<linearGradient id="paint44_linear_19_6729" x1="14.2179" y1="154.512" x2="7.30798" y2="165.593" gradientUnits="userSpaceOnUse">
<stop stop-color="#FF928E"/>
<stop offset="1" stop-color="#FE7062"/>
</linearGradient>
<linearGradient id="paint45_linear_19_6729" x1="18.7961" y1="154.512" x2="11.8861" y2="165.593" gradientUnits="userSpaceOnUse">
<stop stop-color="#FF928E"/>
<stop offset="1" stop-color="#FE7062"/>
</linearGradient>
<linearGradient id="paint46_linear_19_6729" x1="23.374" y1="154.512" x2="16.464" y2="165.593" gradientUnits="userSpaceOnUse">
<stop stop-color="#FF928E"/>
<stop offset="1" stop-color="#FE7062"/>
</linearGradient>
<linearGradient id="paint47_linear_19_6729" x1="27.9523" y1="154.512" x2="21.0423" y2="165.593" gradientUnits="userSpaceOnUse">
<stop stop-color="#FF928E"/>
<stop offset="1" stop-color="#FE7062"/>
</linearGradient>
<linearGradient id="paint48_linear_19_6729" x1="32.5302" y1="154.512" x2="25.6202" y2="165.593" gradientUnits="userSpaceOnUse">
<stop stop-color="#FF928E"/>
<stop offset="1" stop-color="#FE7062"/>
</linearGradient>
<linearGradient id="paint49_linear_19_6729" x1="37.1083" y1="154.512" x2="30.1984" y2="165.593" gradientUnits="userSpaceOnUse">
<stop stop-color="#FF928E"/>
<stop offset="1" stop-color="#FE7062"/>
</linearGradient>
<linearGradient id="paint50_linear_19_6729" x1="41.6865" y1="154.512" x2="34.7765" y2="165.593" gradientUnits="userSpaceOnUse">
<stop stop-color="#FF928E"/>
<stop offset="1" stop-color="#FE7062"/>
</linearGradient>
<linearGradient id="paint51_linear_19_6729" x1="46.2646" y1="154.512" x2="39.3546" y2="165.593" gradientUnits="userSpaceOnUse">
<stop stop-color="#FF928E"/>
<stop offset="1" stop-color="#FE7062"/>
</linearGradient>
<linearGradient id="paint52_linear_19_6729" x1="50.8427" y1="154.512" x2="43.9328" y2="165.593" gradientUnits="userSpaceOnUse">
<stop stop-color="#FF928E"/>
<stop offset="1" stop-color="#FE7062"/>
</linearGradient>
<linearGradient id="paint53_linear_19_6729" x1="55.4206" y1="154.512" x2="48.5107" y2="165.593" gradientUnits="userSpaceOnUse">
<stop stop-color="#FF928E"/>
<stop offset="1" stop-color="#FE7062"/>
</linearGradient>
<linearGradient id="paint54_linear_19_6729" x1="59.9988" y1="154.512" x2="53.0888" y2="165.593" gradientUnits="userSpaceOnUse">
<stop stop-color="#FF928E"/>
<stop offset="1" stop-color="#FE7062"/>
</linearGradient>
<linearGradient id="paint55_linear_19_6729" x1="64.5768" y1="154.512" x2="57.6669" y2="165.593" gradientUnits="userSpaceOnUse">
<stop stop-color="#FF928E"/>
<stop offset="1" stop-color="#FE7062"/>
</linearGradient>
<linearGradient id="paint56_linear_19_6729" x1="-43.3773" y1="267.294" x2="26.5978" y2="180.232" gradientUnits="userSpaceOnUse">
<stop stop-color="#FF928E"/>
<stop offset="1" stop-color="#FE7062"/>
</linearGradient>
<linearGradient id="paint57_linear_19_6729" x1="9.63989" y1="166.166" x2="2.72991" y2="177.247" gradientUnits="userSpaceOnUse">
<stop stop-color="#FF928E"/>
<stop offset="1" stop-color="#FE7062"/>
</linearGradient>
<linearGradient id="paint58_linear_19_6729" x1="14.2179" y1="166.166" x2="7.30795" y2="177.247" gradientUnits="userSpaceOnUse">
<stop stop-color="#FF928E"/>
<stop offset="1" stop-color="#FE7062"/>
</linearGradient>
<linearGradient id="paint59_linear_19_6729" x1="18.7961" y1="166.166" x2="11.8861" y2="177.247" gradientUnits="userSpaceOnUse">
<stop stop-color="#FF928E"/>
<stop offset="1" stop-color="#FE7062"/>
</linearGradient>
<linearGradient id="paint60_linear_19_6729" x1="23.374" y1="166.166" x2="16.464" y2="177.247" gradientUnits="userSpaceOnUse">
<stop stop-color="#FF928E"/>
<stop offset="1" stop-color="#FE7062"/>
</linearGradient>
<linearGradient id="paint61_linear_19_6729" x1="27.9523" y1="166.166" x2="21.0423" y2="177.247" gradientUnits="userSpaceOnUse">
<stop stop-color="#FF928E"/>
<stop offset="1" stop-color="#FE7062"/>
</linearGradient>
<linearGradient id="paint62_linear_19_6729" x1="32.5302" y1="166.166" x2="25.6202" y2="177.247" gradientUnits="userSpaceOnUse">
<stop stop-color="#FF928E"/>
<stop offset="1" stop-color="#FE7062"/>
</linearGradient>
<linearGradient id="paint63_linear_19_6729" x1="37.1083" y1="166.166" x2="30.1984" y2="177.247" gradientUnits="userSpaceOnUse">
<stop stop-color="#FF928E"/>
<stop offset="1" stop-color="#FE7062"/>
</linearGradient>
<linearGradient id="paint64_linear_19_6729" x1="41.6865" y1="166.166" x2="34.7765" y2="177.247" gradientUnits="userSpaceOnUse">
<stop stop-color="#FF928E"/>
<stop offset="1" stop-color="#FE7062"/>
</linearGradient>
<linearGradient id="paint65_linear_19_6729" x1="46.2646" y1="166.166" x2="39.3546" y2="177.247" gradientUnits="userSpaceOnUse">
<stop stop-color="#FF928E"/>
<stop offset="1" stop-color="#FE7062"/>
</linearGradient>
<linearGradient id="paint66_linear_19_6729" x1="50.8427" y1="166.166" x2="43.9327" y2="177.247" gradientUnits="userSpaceOnUse">
<stop stop-color="#FF928E"/>
<stop offset="1" stop-color="#FE7062"/>
</linearGradient>
<linearGradient id="paint67_linear_19_6729" x1="55.4206" y1="166.166" x2="48.5106" y2="177.247" gradientUnits="userSpaceOnUse">
<stop stop-color="#FF928E"/>
<stop offset="1" stop-color="#FE7062"/>
</linearGradient>
<linearGradient id="paint68_linear_19_6729" x1="59.9989" y1="166.166" x2="53.0889" y2="177.247" gradientUnits="userSpaceOnUse">
<stop stop-color="#FF928E"/>
<stop offset="1" stop-color="#FE7062"/>
</linearGradient>
<linearGradient id="paint69_linear_19_6729" x1="64.5768" y1="166.166" x2="57.6668" y2="177.247" gradientUnits="userSpaceOnUse">
<stop stop-color="#FF928E"/>
<stop offset="1" stop-color="#FE7062"/>
</linearGradient>
<linearGradient id="paint70_linear_19_6729" x1="-37.6058" y1="271.768" x2="32.3693" y2="184.706" gradientUnits="userSpaceOnUse">
<stop stop-color="#FF928E"/>
<stop offset="1" stop-color="#FE7062"/>
</linearGradient>
<linearGradient id="paint71_linear_19_6729" x1="9.63989" y1="177.82" x2="2.72994" y2="188.901" gradientUnits="userSpaceOnUse">
<stop stop-color="#FF928E"/>
<stop offset="1" stop-color="#FE7062"/>
</linearGradient>
<linearGradient id="paint72_linear_19_6729" x1="14.2179" y1="177.82" x2="7.30798" y2="188.901" gradientUnits="userSpaceOnUse">
<stop stop-color="#FF928E"/>
<stop offset="1" stop-color="#FE7062"/>
</linearGradient>
<linearGradient id="paint73_linear_19_6729" x1="18.7961" y1="177.82" x2="11.8861" y2="188.901" gradientUnits="userSpaceOnUse">
<stop stop-color="#FF928E"/>
<stop offset="1" stop-color="#FE7062"/>
</linearGradient>
<linearGradient id="paint74_linear_19_6729" x1="23.374" y1="177.82" x2="16.464" y2="188.901" gradientUnits="userSpaceOnUse">
<stop stop-color="#FF928E"/>
<stop offset="1" stop-color="#FE7062"/>
</linearGradient>
<linearGradient id="paint75_linear_19_6729" x1="27.9523" y1="177.82" x2="21.0423" y2="188.901" gradientUnits="userSpaceOnUse">
<stop stop-color="#FF928E"/>
<stop offset="1" stop-color="#FE7062"/>
</linearGradient>
<linearGradient id="paint76_linear_19_6729" x1="32.5302" y1="177.82" x2="25.6202" y2="188.901" gradientUnits="userSpaceOnUse">
<stop stop-color="#FF928E"/>
<stop offset="1" stop-color="#FE7062"/>
</linearGradient>
<linearGradient id="paint77_linear_19_6729" x1="37.1083" y1="177.82" x2="30.1984" y2="188.901" gradientUnits="userSpaceOnUse">
<stop stop-color="#FF928E"/>
<stop offset="1" stop-color="#FE7062"/>
</linearGradient>
<linearGradient id="paint78_linear_19_6729" x1="41.6865" y1="177.82" x2="34.7765" y2="188.901" gradientUnits="userSpaceOnUse">
<stop stop-color="#FF928E"/>
<stop offset="1" stop-color="#FE7062"/>
</linearGradient>
<linearGradient id="paint79_linear_19_6729" x1="46.2646" y1="177.82" x2="39.3546" y2="188.901" gradientUnits="userSpaceOnUse">
<stop stop-color="#FF928E"/>
<stop offset="1" stop-color="#FE7062"/>
</linearGradient>
<linearGradient id="paint80_linear_19_6729" x1="50.8427" y1="177.82" x2="43.9328" y2="188.901" gradientUnits="userSpaceOnUse">
<stop stop-color="#FF928E"/>
<stop offset="1" stop-color="#FE7062"/>
</linearGradient>
<linearGradient id="paint81_linear_19_6729" x1="55.4206" y1="177.82" x2="48.5107" y2="188.901" gradientUnits="userSpaceOnUse">
<stop stop-color="#FF928E"/>
<stop offset="1" stop-color="#FE7062"/>
</linearGradient>
<linearGradient id="paint82_linear_19_6729" x1="59.9988" y1="177.82" x2="53.0888" y2="188.901" gradientUnits="userSpaceOnUse">
<stop stop-color="#FF928E"/>
<stop offset="1" stop-color="#FE7062"/>
</linearGradient>
<linearGradient id="paint83_linear_19_6729" x1="64.5768" y1="177.82" x2="57.6669" y2="188.901" gradientUnits="userSpaceOnUse">
<stop stop-color="#FF928E"/>
<stop offset="1" stop-color="#FE7062"/>
</linearGradient>
<linearGradient id="paint84_linear_19_6729" x1="-31.8341" y1="276.241" x2="38.1409" y2="189.179" gradientUnits="userSpaceOnUse">
<stop stop-color="#FF928E"/>
<stop offset="1" stop-color="#FE7062"/>
</linearGradient>
<linearGradient id="paint85_linear_19_6729" x1="9.63992" y1="189.474" x2="2.7299" y2="200.555" gradientUnits="userSpaceOnUse">
<stop stop-color="#FF928E"/>
<stop offset="1" stop-color="#FE7062"/>
</linearGradient>
<linearGradient id="paint86_linear_19_6729" x1="14.2181" y1="189.474" x2="7.30805" y2="200.555" gradientUnits="userSpaceOnUse">
<stop stop-color="#FF928E"/>
<stop offset="1" stop-color="#FE7062"/>
</linearGradient>
<linearGradient id="paint87_linear_19_6729" x1="18.7962" y1="189.474" x2="11.8862" y2="200.555" gradientUnits="userSpaceOnUse">
<stop stop-color="#FF928E"/>
<stop offset="1" stop-color="#FE7062"/>
</linearGradient>
<linearGradient id="paint88_linear_19_6729" x1="23.3741" y1="189.474" x2="16.464" y2="200.555" gradientUnits="userSpaceOnUse">
<stop stop-color="#FF928E"/>
<stop offset="1" stop-color="#FE7062"/>
</linearGradient>
<linearGradient id="paint89_linear_19_6729" x1="27.9522" y1="189.474" x2="21.0421" y2="200.555" gradientUnits="userSpaceOnUse">
<stop stop-color="#FF928E"/>
<stop offset="1" stop-color="#FE7062"/>
</linearGradient>
<linearGradient id="paint90_linear_19_6729" x1="32.5303" y1="189.474" x2="25.6203" y2="200.555" gradientUnits="userSpaceOnUse">
<stop stop-color="#FF928E"/>
<stop offset="1" stop-color="#FE7062"/>
</linearGradient>
<linearGradient id="paint91_linear_19_6729" x1="37.1084" y1="189.474" x2="30.1983" y2="200.555" gradientUnits="userSpaceOnUse">
<stop stop-color="#FF928E"/>
<stop offset="1" stop-color="#FE7062"/>
</linearGradient>
<linearGradient id="paint92_linear_19_6729" x1="41.6864" y1="189.474" x2="34.7764" y2="200.555" gradientUnits="userSpaceOnUse">
<stop stop-color="#FF928E"/>
<stop offset="1" stop-color="#FE7062"/>
</linearGradient>
<linearGradient id="paint93_linear_19_6729" x1="46.2647" y1="189.474" x2="39.3547" y2="200.555" gradientUnits="userSpaceOnUse">
<stop stop-color="#FF928E"/>
<stop offset="1" stop-color="#FE7062"/>
</linearGradient>
<linearGradient id="paint94_linear_19_6729" x1="50.8426" y1="189.474" x2="43.9326" y2="200.555" gradientUnits="userSpaceOnUse">
<stop stop-color="#FF928E"/>
<stop offset="1" stop-color="#FE7062"/>
</linearGradient>
<linearGradient id="paint95_linear_19_6729" x1="55.4207" y1="189.474" x2="48.5107" y2="200.555" gradientUnits="userSpaceOnUse">
<stop stop-color="#FF928E"/>
<stop offset="1" stop-color="#FE7062"/>
</linearGradient>
<linearGradient id="paint96_linear_19_6729" x1="59.9989" y1="189.474" x2="53.0889" y2="200.555" gradientUnits="userSpaceOnUse">
<stop stop-color="#FF928E"/>
<stop offset="1" stop-color="#FE7062"/>
</linearGradient>
<linearGradient id="paint97_linear_19_6729" x1="64.5768" y1="189.474" x2="57.6668" y2="200.555" gradientUnits="userSpaceOnUse">
<stop stop-color="#FF928E"/>
<stop offset="1" stop-color="#FE7062"/>
</linearGradient>
<linearGradient id="paint98_linear_19_6729" x1="-26.0626" y1="280.714" x2="43.9126" y2="193.652" gradientUnits="userSpaceOnUse">
<stop stop-color="#FF928E"/>
<stop offset="1" stop-color="#FE7062"/>
</linearGradient>
<linearGradient id="paint99_linear_19_6729" x1="9.6399" y1="201.129" x2="2.72988" y2="212.21" gradientUnits="userSpaceOnUse">
<stop stop-color="#FF928E"/>
<stop offset="1" stop-color="#FE7062"/>
</linearGradient>
<linearGradient id="paint100_linear_19_6729" x1="14.218" y1="201.129" x2="7.30791" y2="212.21" gradientUnits="userSpaceOnUse">
<stop stop-color="#FF928E"/>
<stop offset="1" stop-color="#FE7062"/>
</linearGradient>
<linearGradient id="paint101_linear_19_6729" x1="18.7961" y1="201.129" x2="11.8861" y2="212.21" gradientUnits="userSpaceOnUse">
<stop stop-color="#FF928E"/>
<stop offset="1" stop-color="#FE7062"/>
</linearGradient>
<linearGradient id="paint102_linear_19_6729" x1="23.3741" y1="201.129" x2="16.464" y2="212.21" gradientUnits="userSpaceOnUse">
<stop stop-color="#FF928E"/>
<stop offset="1" stop-color="#FE7062"/>
</linearGradient>
<linearGradient id="paint103_linear_19_6729" x1="27.9523" y1="201.129" x2="21.0423" y2="212.21" gradientUnits="userSpaceOnUse">
<stop stop-color="#FF928E"/>
<stop offset="1" stop-color="#FE7062"/>
</linearGradient>
<linearGradient id="paint104_linear_19_6729" x1="32.5302" y1="201.129" x2="25.6202" y2="212.21" gradientUnits="userSpaceOnUse">
<stop stop-color="#FF928E"/>
<stop offset="1" stop-color="#FE7062"/>
</linearGradient>
<linearGradient id="paint105_linear_19_6729" x1="37.1084" y1="201.129" x2="30.1983" y2="212.21" gradientUnits="userSpaceOnUse">
<stop stop-color="#FF928E"/>
<stop offset="1" stop-color="#FE7062"/>
</linearGradient>
<linearGradient id="paint106_linear_19_6729" x1="41.6866" y1="201.129" x2="34.7765" y2="212.21" gradientUnits="userSpaceOnUse">
<stop stop-color="#FF928E"/>
<stop offset="1" stop-color="#FE7062"/>
</linearGradient>
<linearGradient id="paint107_linear_19_6729" x1="46.2646" y1="201.129" x2="39.3546" y2="212.21" gradientUnits="userSpaceOnUse">
<stop stop-color="#FF928E"/>
<stop offset="1" stop-color="#FE7062"/>
</linearGradient>
<linearGradient id="paint108_linear_19_6729" x1="50.8427" y1="201.129" x2="43.9327" y2="212.21" gradientUnits="userSpaceOnUse">
<stop stop-color="#FF928E"/>
<stop offset="1" stop-color="#FE7062"/>
</linearGradient>
<linearGradient id="paint109_linear_19_6729" x1="55.4206" y1="201.129" x2="48.5106" y2="212.21" gradientUnits="userSpaceOnUse">
<stop stop-color="#FF928E"/>
<stop offset="1" stop-color="#FE7062"/>
</linearGradient>
<linearGradient id="paint110_linear_19_6729" x1="59.9988" y1="201.129" x2="53.0887" y2="212.21" gradientUnits="userSpaceOnUse">
<stop stop-color="#FF928E"/>
<stop offset="1" stop-color="#FE7062"/>
</linearGradient>
<linearGradient id="paint111_linear_19_6729" x1="64.5768" y1="201.129" x2="57.6668" y2="212.21" gradientUnits="userSpaceOnUse">
<stop stop-color="#FF928E"/>
<stop offset="1" stop-color="#FE7062"/>
</linearGradient>
<linearGradient id="paint112_linear_19_6729" x1="-20.2907" y1="285.187" x2="49.6844" y2="198.125" gradientUnits="userSpaceOnUse">
<stop stop-color="#FF928E"/>
<stop offset="1" stop-color="#FE7062"/>
</linearGradient>
<linearGradient id="paint113_linear_19_6729" x1="9.63989" y1="212.783" x2="2.72994" y2="223.864" gradientUnits="userSpaceOnUse">
<stop stop-color="#FF928E"/>
<stop offset="1" stop-color="#FE7062"/>
</linearGradient>
<linearGradient id="paint114_linear_19_6729" x1="14.2179" y1="212.783" x2="7.30798" y2="223.864" gradientUnits="userSpaceOnUse">
<stop stop-color="#FF928E"/>
<stop offset="1" stop-color="#FE7062"/>
</linearGradient>
<linearGradient id="paint115_linear_19_6729" x1="18.7961" y1="212.783" x2="11.8861" y2="223.864" gradientUnits="userSpaceOnUse">
<stop stop-color="#FF928E"/>
<stop offset="1" stop-color="#FE7062"/>
</linearGradient>
<linearGradient id="paint116_linear_19_6729" x1="23.374" y1="212.783" x2="16.464" y2="223.864" gradientUnits="userSpaceOnUse">
<stop stop-color="#FF928E"/>
<stop offset="1" stop-color="#FE7062"/>
</linearGradient>
<linearGradient id="paint117_linear_19_6729" x1="27.9523" y1="212.783" x2="21.0423" y2="223.864" gradientUnits="userSpaceOnUse">
<stop stop-color="#FF928E"/>
<stop offset="1" stop-color="#FE7062"/>
</linearGradient>
<linearGradient id="paint118_linear_19_6729" x1="32.5302" y1="212.783" x2="25.6202" y2="223.864" gradientUnits="userSpaceOnUse">
<stop stop-color="#FF928E"/>
<stop offset="1" stop-color="#FE7062"/>
</linearGradient>
<linearGradient id="paint119_linear_19_6729" x1="37.1083" y1="212.783" x2="30.1984" y2="223.864" gradientUnits="userSpaceOnUse">
<stop stop-color="#FF928E"/>
<stop offset="1" stop-color="#FE7062"/>
</linearGradient>
<linearGradient id="paint120_linear_19_6729" x1="41.6865" y1="212.783" x2="34.7765" y2="223.864" gradientUnits="userSpaceOnUse">
<stop stop-color="#FF928E"/>
<stop offset="1" stop-color="#FE7062"/>
</linearGradient>
<linearGradient id="paint121_linear_19_6729" x1="46.2646" y1="212.783" x2="39.3546" y2="223.864" gradientUnits="userSpaceOnUse">
<stop stop-color="#FF928E"/>
<stop offset="1" stop-color="#FE7062"/>
</linearGradient>
<linearGradient id="paint122_linear_19_6729" x1="50.8427" y1="212.783" x2="43.9328" y2="223.864" gradientUnits="userSpaceOnUse">
<stop stop-color="#FF928E"/>
<stop offset="1" stop-color="#FE7062"/>
</linearGradient>
<linearGradient id="paint123_linear_19_6729" x1="55.4206" y1="212.783" x2="48.5107" y2="223.864" gradientUnits="userSpaceOnUse">
<stop stop-color="#FF928E"/>
<stop offset="1" stop-color="#FE7062"/>
</linearGradient>
<linearGradient id="paint124_linear_19_6729" x1="59.9988" y1="212.783" x2="53.0888" y2="223.864" gradientUnits="userSpaceOnUse">
<stop stop-color="#FF928E"/>
<stop offset="1" stop-color="#FE7062"/>
</linearGradient>
<linearGradient id="paint125_linear_19_6729" x1="64.5768" y1="212.783" x2="57.6669" y2="223.864" gradientUnits="userSpaceOnUse">
<stop stop-color="#FF928E"/>
<stop offset="1" stop-color="#FE7062"/>
</linearGradient>
</defs>
</svg>
