<svg width="290" height="235" viewBox="0 0 290 235" fill="none" xmlns="http://www.w3.org/2000/svg">
<path d="M20.1881 138.619C11.3619 118.318 12.0348 94.1972 20.2438 73.6398C28.9852 51.749 47.1293 34.6799 67.4266 22.6952C103.169 1.59069 147.408 -5.27496 187.456 5.63945C197.791 8.45634 207.958 12.4803 216.467 18.9886C224.976 25.4968 231.74 34.7047 233.792 45.2188C235.214 52.5 234.356 60.0452 235.34 67.3984C239.247 96.5813 266.641 110.168 266.276 139.609C266.048 158.006 253.481 170.885 235.887 182.323C220.462 192.35 62.032 234.859 20.1881 138.619Z" fill="#EFF4F9" fill-opacity="0.21"/>
<path d="M144.821 235C224.803 235 289.641 231.416 289.641 226.994C289.641 222.572 224.803 218.988 144.821 218.988C64.8384 218.988 0 222.572 0 226.994C0 231.416 64.8384 235 144.821 235Z" fill="#E9ECF2" fill-opacity="0.12"/>
<path d="M37.9233 132.472C37.9429 132.637 37.9619 132.798 37.9815 132.963C40.328 153.102 44.6737 168.431 49.9381 180.101L61.2118 185.013L52.5205 184.942L52.2723 184.94C58.8415 197.651 66.4815 205.367 73.3176 210.047C77.5708 212.968 81.5143 214.71 84.6934 215.747C84.903 215.817 85.1084 215.883 85.3138 215.946C85.8247 216.105 86.3174 216.243 86.784 216.365L92.5116 215.831C92.5507 215.555 92.5864 215.284 92.6179 215.008C92.6422 214.835 92.6627 214.662 92.6794 214.49C92.7108 214.264 92.7342 214.034 92.758 213.808C95.6869 186.94 84.1992 167.532 70.9868 154.433C70.9501 154.387 70.9058 154.347 70.8567 154.302C66.2614 149.759 61.4558 145.975 56.9863 142.907L55.4099 149.673L53.7367 140.763C46.0123 135.844 39.8029 133.224 38.2822 132.613C38.0458 132.518 37.9233 132.472 37.9233 132.472Z" fill="#9AADE5"/>
<path d="M37.7356 132.596L37.9815 132.963L53.2311 155.695L53.5046 156.097L57.6611 162.296L57.8021 162.502L71.0588 182.261L71.0774 182.288L92.6794 214.49L93.0049 214.973L93.5195 215.737L94.0195 215.691L93.5086 214.925L92.758 213.808L71.4396 182.031L71.0431 181.441L38.2822 132.614L38.1025 132.346L37.7356 132.596Z" fill="white"/>
<path d="M41.9227 154.548L41.7523 154.895L57.6829 162.731L57.8532 162.385L41.9227 154.548Z" fill="white"/>
<path d="M41.1127 149.736L40.9424 150.083L53.4294 156.224L53.5997 155.878L41.1127 149.736Z" fill="white"/>
<path d="M70.9911 154.306L70.6051 154.312L71.0641 182.296L71.45 182.29L70.9911 154.306Z" fill="white"/>
<path d="M95.4462 219.937C95.4462 219.937 82.9049 228.274 62.0649 219.651L67.8483 215.792L57.7626 217.684C49.5154 213.545 40.1374 206.771 29.8558 196.014L32.0632 194.544L29.0052 195.116C27.2682 193.274 25.5045 191.317 23.7169 189.238C23.7169 189.238 29.2725 187.915 37.4549 187.668L42.4039 192.657L40.4729 187.634C57.2937 187.722 82.5084 192.837 95.4462 219.937Z" fill="#BAC8F3"/>
<path d="M23.7993 189.047L23.6361 189.452L96.2021 218.743L96.3654 218.338L23.7993 189.047Z" fill="white"/>
<path d="M42.5814 196.831L33.1554 199.218L33.2547 199.61L42.6807 197.223L42.5814 196.831Z" fill="white"/>
<path d="M47.5196 198.752L36.6497 202.374L36.7777 202.758L47.6476 199.136L47.5196 198.752Z" fill="white"/>
<path d="M76.1012 197.67L76.3819 197.243C70.0409 193.078 62.641 190.189 54.3862 188.656L54.2928 189.159C62.48 190.678 69.8174 193.542 76.1012 197.67Z" fill="#2E4882"/>
<path d="M176.05 47.959V222.495C176.05 224.932 174.078 226.91 171.636 226.91H85.8437C83.4066 226.91 81.4294 224.932 81.4294 222.495V47.959C81.4294 45.5167 83.4066 43.5447 85.8437 43.5447H171.636C174.078 43.5447 176.05 45.5167 176.05 47.959Z" fill="#446BD0"/>
<path d="M181.697 47.959V222.495C181.697 224.932 179.725 226.91 177.282 226.91H91.4905C89.0534 226.91 87.0762 224.932 87.0762 222.495V47.959C87.0762 45.5167 89.0534 43.5447 91.4905 43.5447H177.282C179.725 43.5447 181.697 45.5167 181.697 47.959Z" fill="#A2C3F2"/>
<path d="M175.199 66.0569V204.397C175.199 207.214 173.061 209.498 170.424 209.498H98.3484C95.7116 209.498 93.5739 207.214 93.5739 204.397V66.0569C93.5739 63.2396 95.7116 60.9559 98.3484 60.9559H170.424C173.061 60.9559 175.199 63.2396 175.199 66.0569Z" fill="#E1EAFF"/>
<path d="M146.308 51.9582H122.467C122.232 51.9582 122.041 51.7676 122.041 51.5327C122.041 51.2977 122.232 51.1071 122.467 51.1071H146.308C146.543 51.1071 146.734 51.2977 146.734 51.5327C146.734 51.7676 146.543 51.9582 146.308 51.9582Z" fill="#2E4882"/>
<path d="M171.346 210.52H97.4272C94.1638 210.52 91.5089 207.774 91.5089 204.397V66.0569C91.5089 62.6806 94.1638 59.9342 97.4272 59.9342H171.346C174.609 59.9342 177.264 62.681 177.264 66.0569V204.397C177.264 207.774 174.609 210.52 171.346 210.52ZM97.4272 61.9776C95.2908 61.9776 93.5524 63.8076 93.5524 66.0569V204.397C93.5524 206.647 95.2908 208.477 97.4272 208.477H171.346C173.482 208.477 175.221 206.647 175.221 204.397V66.0569C175.221 63.8076 173.482 61.9776 171.346 61.9776H97.4272Z" fill="white"/>
<path d="M182.082 47.959V197.491H181.315V47.959C181.315 45.7383 179.504 43.9274 177.283 43.9274H91.4899C89.2692 43.9274 87.4583 45.7383 87.4583 47.959V167.873H86.691V47.959C86.691 45.3142 88.845 43.1602 91.4899 43.1602H177.283C179.928 43.1602 182.082 45.3142 182.082 47.959Z" fill="#2E4882"/>
<path d="M101.356 227.293H91.4899C88.8446 227.293 86.6925 225.14 86.6925 222.495V202.311H87.4588V222.495C87.4588 224.717 89.2668 226.526 91.4894 226.526H101.355V227.293H101.356Z" fill="#2E4882"/>
<path d="M150.032 226.526H112.307V227.293H150.032V226.526Z" fill="#2E4882"/>
<path d="M213.438 224.265C213.438 225.583 203.756 226.656 191.816 226.656C179.877 226.656 170.195 225.582 170.195 224.265C170.195 224.239 170.2 224.218 170.205 224.193V217.73H213.423V224.178C213.433 224.208 213.438 224.234 213.438 224.265Z" fill="#F49B51"/>
<path d="M191.816 220.18C203.756 220.18 213.436 219.11 213.436 217.789C213.436 216.469 203.756 215.398 191.816 215.398C179.875 215.398 170.195 216.469 170.195 217.789C170.195 219.11 179.875 220.18 191.816 220.18Z" fill="#FCC659"/>
<path d="M218.547 216.467C218.547 217.785 208.866 218.858 196.926 218.858C184.986 218.858 175.304 217.785 175.304 216.467C175.304 216.441 175.309 216.421 175.314 216.395V209.932H218.532V216.38C218.542 216.411 218.547 216.436 218.547 216.467Z" fill="#F49B51"/>
<path d="M196.925 212.382C208.865 212.382 218.545 211.312 218.545 209.992C218.545 208.671 208.865 207.601 196.925 207.601C184.984 207.601 175.304 208.671 175.304 209.992C175.304 211.312 184.984 212.382 196.925 212.382Z" fill="#FCC659"/>
<path d="M213.438 208.669C213.438 209.987 203.756 211.06 191.816 211.06C179.877 211.06 170.195 209.987 170.195 208.669C170.195 208.643 170.2 208.623 170.205 208.598V202.135H213.423V208.582C213.433 208.613 213.438 208.639 213.438 208.669Z" fill="#F49B51"/>
<path d="M191.816 204.585C203.756 204.585 213.436 203.514 213.436 202.194C213.436 200.873 203.756 199.803 191.816 199.803C179.875 199.803 170.195 200.873 170.195 202.194C170.195 203.514 179.875 204.585 191.816 204.585Z" fill="#FCC659"/>
<path d="M191.819 226.91C183.025 226.91 169.941 226.205 169.941 224.263H170.452C170.452 225.008 177.791 226.399 191.818 226.399C192.328 226.399 192.834 226.397 193.335 226.393L193.339 226.903C192.838 226.908 192.33 226.91 191.819 226.91Z" fill="#2E4882"/>
<path d="M200.391 226.714L200.367 226.204C202.556 226.099 204.563 225.956 206.334 225.778L206.385 226.286C204.606 226.464 202.589 226.609 200.391 226.714Z" fill="#2E4882"/>
<path d="M183.285 218.537C175.16 217.797 175.16 216.773 175.16 216.436H175.671C175.671 216.685 177.047 217.456 183.331 218.028L183.285 218.537Z" fill="#2E4882"/>
<path d="M197.037 219.083C194.606 219.083 192.219 219.038 189.941 218.951L189.961 218.44C194.029 218.597 198.525 218.615 202.716 218.488L202.731 218.999C200.876 219.055 198.96 219.083 197.037 219.083Z" fill="#2E4882"/>
<path d="M208.099 218.747L208.065 218.237C210.37 218.085 212.382 217.889 214.042 217.654L214.114 218.16C212.44 218.397 210.417 218.594 208.099 218.747Z" fill="#2E4882"/>
<path d="M177.278 204.23C170.072 203.495 170.073 202.567 170.073 202.218H170.583C170.583 202.226 170.767 203.052 177.33 203.722L177.278 204.23Z" fill="#2E4882"/>
<path d="M191.949 204.864C189.463 204.864 187.032 204.818 184.724 204.727L184.744 204.217C187.046 204.308 189.47 204.353 191.949 204.353C196.386 204.353 200.647 204.206 204.273 203.926L204.312 204.435C200.674 204.716 196.399 204.864 191.949 204.864Z" fill="#2E4882"/>
<path d="M221.102 200.871C221.102 202.19 211.42 203.262 199.48 203.262C187.54 203.262 177.859 202.19 177.859 200.871C177.859 200.846 177.864 200.826 177.869 200.8V194.337H221.087V200.785C221.097 200.815 221.102 200.841 221.102 200.871Z" fill="#F49B51"/>
<path d="M199.479 196.787C211.42 196.787 221.1 195.716 221.1 194.396C221.1 193.076 211.42 192.005 199.479 192.005C187.538 192.005 177.858 193.076 177.858 194.396C177.858 195.716 187.538 196.787 199.479 196.787Z" fill="#FCC659"/>
<path d="M217.09 194.396C217.09 195.284 209.205 196.004 199.479 196.004C189.754 196.004 181.869 195.284 181.869 194.396C181.869 193.508 189.754 192.788 199.479 192.788C209.205 192.788 217.09 193.508 217.09 194.396Z" fill="#F49B51"/>
<g opacity="0.38">
<path d="M181.596 116.129V178.205H127.529C125.422 178.205 123.7 176.751 123.7 174.969V119.36C123.7 117.583 125.423 116.129 127.529 116.129H181.596Z" fill="#A3B2CE"/>
</g>
<path d="M141.939 6.65026C129.883 6.98956 120.386 17.04 120.726 29.1C121.066 41.1558 131.116 50.6568 143.176 50.3127C155.232 49.9734 164.733 39.9225 164.389 27.8629C164.049 15.8072 153.999 6.31048 141.939 6.65026ZM160.131 27.9844C160.263 32.677 158.56 37.1413 155.332 40.5544C152.109 43.9674 147.751 45.9222 143.054 46.0547C133.367 46.3268 125.261 38.6692 124.988 28.978C124.856 24.2859 126.555 19.8216 129.783 16.4086C132.894 13.1166 137.064 11.1808 141.571 10.9306C141.736 10.9216 141.896 10.9173 142.06 10.9125C151.591 10.6399 159.584 18.0474 160.108 27.5046C160.118 27.6647 160.126 27.8243 160.131 27.9844Z" fill="#FCC659"/>
<path d="M160.109 27.5046C160.118 27.6642 160.127 27.8243 160.131 27.9844C160.264 32.677 158.56 37.1413 155.332 40.5549C152.109 43.9679 147.751 45.9232 143.054 46.0557C133.368 46.3278 125.261 38.6696 124.988 28.9785C124.856 24.2859 126.555 19.8216 129.783 16.4086C132.893 13.1166 137.064 11.1808 141.571 10.9306C141.736 10.9216 141.896 10.9173 142.061 10.9125C151.592 10.6395 159.584 18.047 160.109 27.5046Z" fill="#F49B51"/>
<path d="M142.192 41.9673L142.008 38.6649C140.11 38.7378 138.115 38.2579 136.926 37.504L137.589 35.2699C138.81 35.989 140.545 36.5161 142.376 36.4146C144.698 36.2859 146.193 34.8577 146.089 32.9944C145.989 31.1959 144.652 30.1546 142.178 29.3083C138.77 28.185 136.626 26.7954 136.469 23.9504C136.318 21.2365 138.133 19.0691 141.114 18.412L140.93 15.1095L142.958 14.997L143.134 18.1689C145.1 18.1251 146.469 18.574 147.449 19.0772L146.751 21.2808C146.042 20.9267 144.662 20.2819 142.569 20.3977C140.051 20.5374 139.186 22.0943 139.259 23.4024C139.353 25.1027 140.61 25.8857 143.521 26.905C146.965 28.0916 148.76 29.6976 148.921 32.6074C149.065 35.1908 147.401 37.7103 144.063 38.4533L144.252 41.8539L142.192 41.9673Z" fill="#FCC659"/>
<path d="M159.144 23.1546C159.099 23.014 159.051 22.8739 159.002 22.7347C157.343 17.9993 153.731 14.2274 149.083 12.3574L149.261 11.9152C154.036 13.8371 157.748 17.7124 159.442 22.5494C159.502 22.7219 159.552 22.8653 159.599 23.0107L159.144 23.1546Z" fill="#2E4882"/>
<path d="M149.083 12.3574C145.345 10.8529 141.176 10.7024 137.342 11.9299L137.197 11.4767C141.136 10.2134 145.421 10.3707 149.261 11.9157L149.083 12.3574Z" fill="#2E4882"/>
<path d="M158.466 36.6004L158.042 36.3827C159.099 34.333 159.731 32.1442 159.919 29.8782L160.394 29.9183C160.2 32.2462 159.551 34.4946 158.466 36.6004Z" fill="#2E4882"/>
<path d="M155.85 11.4763C154.083 10.0933 152.124 8.99916 150.027 8.22477L150.204 7.74536C152.351 8.53882 154.356 9.65871 156.165 11.0741L155.85 11.4763Z" fill="#2E4882"/>
<path d="M155.882 46.1114L155.574 45.704C161.131 41.497 164.331 34.831 164.133 27.8729C164.011 23.5487 162.619 19.4137 160.107 15.9144L160.522 15.6165C163.093 19.1992 164.519 23.4324 164.644 27.8586C164.846 34.9811 161.57 41.8044 155.882 46.1114Z" fill="#2E4882"/>
<path d="M84.8078 79.7911C74.8889 82.1005 68.7218 92.0146 71.0322 101.937C73.3415 111.856 83.2566 118.027 93.1784 115.713C103.097 113.404 109.268 103.489 106.954 93.5667C104.644 83.6478 94.73 77.4808 84.8078 79.7911ZM103.451 94.3836C104.35 98.2441 103.692 102.225 101.595 105.592C99.5017 108.959 96.2249 111.31 92.3606 112.21C84.3908 114.065 76.3943 109.092 74.5381 101.119C73.6394 97.2586 74.2937 93.2784 76.3905 89.9111C78.4106 86.6634 81.5363 84.3603 85.2238 83.3948C85.3582 83.3595 85.4902 83.329 85.6255 83.2976C93.4662 81.4681 101.326 86.2531 103.352 93.9904C103.386 94.121 103.42 94.252 103.451 94.3836Z" fill="#FCC659"/>
<path d="M103.352 93.9904C103.386 94.121 103.421 94.252 103.451 94.3835C104.35 98.2441 103.692 102.225 101.595 105.593C99.5021 108.959 96.2254 111.311 92.361 112.21C84.3912 114.066 76.3942 109.093 74.5381 101.119C73.6393 97.2586 74.2936 93.2784 76.3904 89.9106C78.4105 86.663 81.5362 84.3598 85.2238 83.3943C85.3581 83.359 85.4901 83.3285 85.6255 83.2971C93.4666 81.4676 101.326 86.2526 103.352 93.9904Z" fill="#F49B51"/>
<path d="M90.9595 108.973L90.2524 106.271C88.694 106.65 86.9627 106.589 85.8514 106.165L86.0244 104.205C87.1557 104.595 88.6797 104.738 90.1775 104.346C92.0771 103.849 93.074 102.416 92.6746 100.891C92.2896 99.4197 91.0082 98.7835 88.8184 98.499C85.8095 98.143 83.8018 97.3539 83.1923 95.0264C82.6109 92.8061 83.7479 90.7074 86.1045 89.6619L85.3973 86.9598L87.0557 86.5257L87.7352 89.1205C89.3545 88.7536 90.5635 88.8946 91.4585 89.1462L91.2517 91.0868C90.6059 90.9128 89.355 90.6116 87.6428 91.0596C85.5826 91.599 85.129 93.0325 85.4092 94.1028C85.7733 95.4939 86.9456 95.9304 89.5251 96.284C92.5746 96.6862 94.3302 97.7132 94.9535 100.094C95.5068 102.208 94.5537 104.573 91.9174 105.749L92.6461 108.531L90.9595 108.973Z" fill="#FCC659"/>
<path d="M101.822 90.553C101.762 90.4443 101.698 90.3366 101.634 90.2294C99.4641 86.5905 95.8404 84.0767 91.6797 83.3114L91.7521 82.9153C96.0273 83.7021 99.7505 86.2845 101.966 90.0016C102.045 90.1341 102.111 90.2447 102.174 90.3567L101.822 90.553Z" fill="#2E4882"/>
<path d="M91.6796 83.3114C88.3338 82.6952 84.8583 83.2723 81.8923 84.9331L81.6954 84.5823C84.743 82.8744 88.3142 82.283 91.7521 82.9154L91.6796 83.3114Z" fill="#2E4882"/>
<path d="M103.522 101.793L103.135 101.684C103.665 99.8105 103.819 97.8933 103.594 95.9862L103.994 95.9395C104.225 97.8985 104.067 99.8681 103.522 101.793Z" fill="#2E4882"/>
<path d="M97.1308 81.4438C95.4358 80.5965 93.6306 80.0213 91.7649 79.733L91.8307 79.3065C93.7407 79.6019 95.5883 80.1909 97.3234 81.0583L97.1308 81.4438Z" fill="#2E4882"/>
<path d="M102.985 110.098L102.661 109.813C106.552 105.397 108.078 99.342 106.744 93.6177C105.915 90.0603 104.067 86.8726 101.4 84.3998L101.693 84.0834C104.423 86.6153 106.316 89.8782 107.164 93.52C108.529 99.3797 106.967 105.577 102.985 110.098Z" fill="#2E4882"/>
<path d="M131.698 173.439H218.103C219.882 173.439 221.337 171.984 221.337 170.205V114.597C221.337 112.818 219.882 111.363 218.103 111.363H131.698C129.92 111.363 128.464 112.818 128.464 114.597V170.205C128.464 171.984 129.92 173.439 131.698 173.439Z" fill="#6D92F0"/>
<path d="M151.838 154.047H136.283C135.801 154.047 135.407 153.653 135.407 153.171V150.181C135.407 149.7 135.801 149.305 136.283 149.305H151.838C152.32 149.305 152.714 149.7 152.714 150.181V153.171C152.714 153.653 152.32 154.047 151.838 154.047Z" fill="white"/>
<path d="M172.398 154.047H156.843C156.361 154.047 155.967 153.653 155.967 153.171V150.181C155.967 149.7 156.361 149.305 156.843 149.305H172.398C172.88 149.305 173.274 149.7 173.274 150.181V153.171C173.274 153.653 172.88 154.047 172.398 154.047Z" fill="white"/>
<path d="M192.959 154.047H177.404C176.922 154.047 176.528 153.653 176.528 153.171V150.181C176.528 149.7 176.922 149.305 177.404 149.305H192.959C193.441 149.305 193.835 149.7 193.835 150.181V153.171C193.835 153.653 193.44 154.047 192.959 154.047Z" fill="white"/>
<path d="M213.519 154.047H197.964C197.482 154.047 197.088 153.653 197.088 153.171V150.181C197.088 149.7 197.482 149.305 197.964 149.305H213.519C214.001 149.305 214.395 149.7 214.395 150.181V153.171C214.395 153.653 214.001 154.047 213.519 154.047Z" fill="white"/>
<path d="M213.329 163.321H192.865C192.279 163.321 191.799 162.841 191.799 162.255V159.646C191.799 159.059 192.278 158.58 192.865 158.58H213.329C213.915 158.58 214.395 159.059 214.395 159.646V162.255C214.395 162.842 213.915 163.321 213.329 163.321Z" fill="white"/>
<path d="M139.356 129.682V123.455C139.356 122.094 140.463 120.987 141.824 120.987H153.92C155.281 120.987 156.388 122.094 156.388 123.455V129.682C156.388 131.043 155.28 132.15 153.92 132.15H141.824C140.463 132.15 139.356 131.043 139.356 129.682ZM141.824 121.649C140.828 121.649 140.018 122.459 140.018 123.455V129.682C140.018 130.677 140.828 131.487 141.824 131.487H153.92C154.915 131.487 155.726 130.677 155.726 129.682V123.455C155.726 122.459 154.915 121.649 153.92 121.649H141.824Z" fill="white"/>
<path d="M211.525 125.705C211.525 125.628 211.555 125.551 211.613 125.493C214.333 122.772 214.333 118.346 211.613 115.626C211.496 115.509 211.496 115.319 211.613 115.202C211.73 115.085 211.92 115.085 212.037 115.202C214.991 118.156 214.991 122.963 212.037 125.917C211.92 126.034 211.73 126.034 211.613 125.917C211.554 125.858 211.525 125.781 211.525 125.705Z" fill="white"/>
<path d="M210.024 117.129C210.024 117.052 210.053 116.976 210.112 116.917C210.229 116.8 210.419 116.8 210.536 116.917C212.544 118.925 212.544 122.193 210.536 124.201C210.419 124.318 210.229 124.318 210.112 124.201C209.995 124.084 209.995 123.894 210.112 123.777C211.886 122.002 211.886 119.115 210.112 117.342C210.053 117.283 210.024 117.206 210.024 117.129Z" fill="white"/>
<path d="M208.585 122.397C208.585 122.321 208.614 122.244 208.673 122.185C209.569 121.289 209.569 119.83 208.673 118.933C208.555 118.816 208.555 118.627 208.673 118.509C208.79 118.392 208.979 118.392 209.097 118.509C210.227 119.64 210.227 121.479 209.097 122.61C208.979 122.727 208.79 122.727 208.673 122.61C208.614 122.551 208.585 122.474 208.585 122.397Z" fill="white"/>
<path d="M221.66 126.557H221.014V114.253C221.014 112.648 219.709 111.342 218.104 111.342H191.664V110.696H218.104C220.065 110.696 221.661 112.291 221.661 114.253L221.66 126.557Z" fill="#2E4882"/>
<path d="M221.66 133.019H221.014V140.135H221.66V133.019Z" fill="#2E4882"/>
<path d="M161.68 110.696H144.742V111.342H161.68V110.696Z" fill="#2E4882"/>
<path d="M223.388 46.7109C210.632 43.2569 197.491 50.8007 194.036 63.5617C190.582 76.318 198.125 89.4631 210.887 92.9133C223.643 96.3674 236.788 88.825 240.239 76.0626C243.693 63.3063 236.149 50.1664 223.388 46.7109ZM235.732 74.845C234.388 79.8101 231.19 83.9561 226.725 86.5171C222.264 89.079 217.075 89.7533 212.104 88.4081C201.854 85.6321 195.769 75.0356 198.546 64.7812C199.891 59.816 203.084 55.6691 207.549 53.1081C211.853 50.6372 216.841 49.9248 221.649 51.0866C221.825 51.129 221.994 51.1752 222.168 51.2224C232.255 53.9487 238.299 64.2465 235.861 74.3355C235.82 74.5052 235.779 74.6758 235.732 74.845Z" fill="#FCC659"/>
<path d="M235.862 74.3346C235.821 74.5052 235.779 74.6758 235.733 74.845C234.389 79.8102 231.19 83.9562 226.725 86.5171C222.264 89.0795 217.074 89.7534 212.104 88.4081C201.854 85.6322 195.768 75.0351 198.546 64.7803C199.89 59.8151 203.083 55.6677 207.549 53.1067C211.853 50.6358 216.841 49.9229 221.65 51.0852C221.825 51.1276 221.994 51.1738 222.169 51.221C232.256 53.9473 238.3 64.2456 235.862 74.3346Z" fill="#F49B51"/>
<path d="M212.491 83.8465L213.343 80.3234C211.328 79.8001 209.387 78.6659 208.377 77.4989L209.779 75.3644C210.833 76.5048 212.486 77.6061 214.44 78.0779C216.916 78.6764 218.936 77.6509 219.417 75.6627C219.88 73.7441 218.807 72.2292 216.478 70.5593C213.257 68.3038 211.448 66.1684 212.181 63.1333C212.881 60.2382 215.47 58.5379 218.806 58.7905L219.657 55.2673L221.82 55.7901L221.002 59.1736C223.079 59.7488 224.374 60.6528 225.242 61.4901L223.813 63.5812C223.182 62.986 221.937 61.8728 219.705 61.3333C217.019 60.6843 215.62 62.0443 215.283 63.4397C214.844 65.2539 215.916 66.4724 218.647 68.4616C221.886 70.7948 223.262 73.0474 222.511 76.1516C221.845 78.9075 219.303 81.0253 215.567 80.7499L214.69 84.3774L212.491 83.8465Z" fill="#FCC659"/>
<path d="M236.224 69.4657C236.222 69.3041 236.215 69.1416 236.208 68.9801C235.963 63.4874 233.366 58.3883 229.08 54.9571L229.407 54.5492C233.81 58.0747 236.479 63.3144 236.729 68.9248C236.737 69.1245 236.745 69.2913 236.747 69.4581L236.224 69.4657Z" fill="#2E4882"/>
<path d="M229.08 54.9571C225.633 52.1974 221.307 50.7216 216.896 50.7978L216.887 50.276C221.42 50.1955 225.865 51.7142 229.406 54.5492L229.08 54.9571Z" fill="#2E4882"/>
<path d="M231.262 83.3585L230.887 82.9964C232.644 81.1798 233.998 79.0829 234.912 76.7645L235.398 76.9566C234.458 79.3384 233.067 81.4924 231.262 83.3585Z" fill="#2E4882"/>
<path d="M236.459 56.1713C235.041 54.1617 233.332 52.3947 231.376 50.9193L231.714 50.4723C233.715 51.983 235.466 53.7919 236.916 55.8492L236.459 56.1713Z" fill="#2E4882"/>
<path d="M225.546 92.5212L225.351 91.996C232.511 89.3383 237.975 83.3557 239.967 75.9925C241.205 71.4167 241.052 66.6383 239.522 62.1726L240.052 61.991C241.617 66.5626 241.775 71.4548 240.507 76.1384C238.468 83.6759 232.875 89.8001 225.546 92.5212Z" fill="#2E4882"/>
<path d="M162.56 119.715L179.366 131.096L192.817 116.687L186.501 117.319C186.423 116.886 186.331 116.454 186.245 116.024L186.111 115.379C186.09 115.272 186.067 115.165 186.038 115.059L185.558 113.192C184.072 107.938 181.557 103.08 178.274 98.9384C174.994 94.7933 170.943 91.3603 166.451 88.8651C161.962 86.3622 157.038 84.8144 152.11 84.2559C147.18 83.6835 142.196 84.1158 137.57 85.4558C132.939 86.793 128.664 89.0314 125.035 91.9474C121.402 94.8591 118.412 98.4399 116.254 102.388C114.09 106.334 112.771 110.641 112.313 114.955C113.575 110.801 115.631 106.977 118.293 103.758C120.952 100.533 124.205 97.9109 127.761 96.0348C131.315 94.1529 135.173 93.0268 139.012 92.6827C142.853 92.3372 146.67 92.7661 150.206 93.8955C153.745 95.0173 156.958 96.8044 159.649 99.0918C162.343 101.376 164.515 104.154 166.048 107.17C167.585 110.185 168.316 113.46 168.765 116.638C168.863 117.337 168.993 119.132 168.993 119.132L162.56 119.715Z" fill="#446BD0"/>
<path d="M202.662 55.0872C204.435 55.9874 205.654 57.3699 206.487 59.1007C207.321 57.3699 208.546 55.9803 210.318 55.0796C208.545 54.1789 207.321 52.7969 206.487 51.0661C205.654 52.7969 204.435 54.1866 202.662 55.0872Z" fill="#FFE6A6"/>
<path d="M219.799 88.0044C220.829 88.5277 221.538 89.3307 222.023 90.3367C222.507 89.3307 223.218 88.5234 224.249 88.0001C223.218 87.4769 222.507 86.6739 222.023 85.6679C221.538 86.6739 220.829 87.4812 219.799 88.0044Z" fill="#FFE6A6"/>
<path d="M149.474 41.6095C150.737 42.2509 151.606 43.2359 152.199 44.4692C152.794 43.2359 153.666 42.2457 154.929 41.6042C153.666 40.9628 152.794 39.9778 152.199 38.7444C151.606 39.9778 150.737 40.9675 149.474 41.6095Z" fill="#FFE6A6"/>
<path d="M73.9996 91.3922C75.018 91.9093 75.7185 92.7032 76.1975 93.6978C76.6764 92.7037 77.3798 91.905 78.3977 91.3879C77.3793 90.8704 76.6759 90.077 76.1975 89.0824C75.7185 90.077 75.018 90.8752 73.9996 91.3922Z" fill="#FFE6A6"/>
<path d="M144.932 46.3659C145.666 46.7385 146.171 47.3109 146.516 48.0276C146.861 47.3109 147.368 46.7357 148.102 46.3625C147.368 45.9899 146.861 45.4175 146.516 44.7008C146.171 45.4175 145.666 45.9932 144.932 46.3659Z" fill="#FFE6A6"/>
<path d="M10.8635 119.242L10.3855 119.423C6.82139 110.03 7.3861 99.8753 12.1649 87.4669L12.6415 87.6503C7.91078 99.9348 7.34607 109.973 10.8635 119.242Z" fill="#2E4882"/>
<path d="M9.39849 126.514L8.96436 126.783C-1.29385 110.194 4.69256 93.1145 11.9018 78.595L12.3593 78.8218C5.21248 93.216 -0.728187 110.138 9.39849 126.514Z" fill="#2E4882"/>
<path d="M227.169 22.9067C218.941 12.6314 210.554 7.08577 200.776 5.45311L200.86 4.9494C210.77 6.60303 219.257 12.2073 227.568 22.5875L227.169 22.9067Z" fill="#2E4882"/>
<path d="M234.937 27.1109C226.105 13.6855 214.481 0.0271512 195.232 0.524193L195.219 0.013332C214.718 -0.488951 226.454 13.2871 235.364 26.8302L234.937 27.1109Z" fill="#2E4882"/>
<path d="M165.73 107.331C164.2 104.324 162.018 101.568 159.417 99.3639C156.75 97.0956 153.527 95.3223 150.097 94.2353C146.594 93.1164 142.771 92.7023 139.044 93.0382C137.197 93.2041 135.345 93.5534 133.54 94.0776L133.341 93.3914C135.19 92.8543 137.088 92.4964 138.98 92.3267C142.802 91.9817 146.722 92.4073 150.314 93.5548C153.833 94.6699 157.141 96.4908 159.88 98.8197C162.552 101.085 164.795 103.916 166.367 107.008L165.73 107.331Z" fill="#2E4882"/>
<path d="M118.569 103.984L118.017 103.529C120.652 100.335 123.963 97.6331 127.594 95.7178L127.928 96.3497C124.38 98.2216 121.144 100.862 118.569 103.984Z" fill="#2E4882"/>
<path d="M185.214 113.289C183.77 108.182 181.273 103.296 177.994 99.16C174.786 95.105 170.734 91.6529 166.277 89.1767C161.923 86.7492 157.01 85.1699 152.069 84.61L152.15 83.8999C157.184 84.4703 162.189 86.0792 166.625 88.552C171.162 91.0729 175.288 94.588 178.555 98.7163C181.891 102.925 184.432 107.898 185.902 113.094L185.214 113.289Z" fill="#2E4882"/>
<path d="M179.418 131.563L166.629 122.903L167.03 122.311L179.313 130.629L189.335 119.893L189.857 120.381L179.418 131.563Z" fill="#2E4882"/>
</svg>
