<svg width="134" height="135" viewBox="0 0 134 135" fill="none" xmlns="http://www.w3.org/2000/svg">
<g filter="url(#filter0_d_19_8570)">
<rect x="3" width="127.251" height="127.251" rx="28" fill="#1A1A1A"/>
<path d="M74.3207 63.6253C74.3207 62.1033 73.8694 60.6155 73.0238 59.35C72.1782 58.0845 70.9764 57.0981 69.5702 56.5157C68.1641 55.9332 66.6168 55.7808 65.124 56.0778C63.6313 56.3747 62.2601 57.1076 61.1838 58.1838C60.1076 59.2601 59.3747 60.6313 59.0778 62.124C58.7808 63.6168 58.9332 65.1641 59.5157 66.5702C60.0981 67.9764 61.0845 69.1782 62.35 70.0238C63.6155 70.8694 65.1033 71.3207 66.6253 71.3207C68.6656 71.3185 70.6216 70.507 72.0643 69.0643C73.507 67.6216 74.3185 65.6656 74.3207 63.6253ZM62.0081 63.6253C62.0081 62.7121 62.2789 61.8194 62.7862 61.0601C63.2936 60.3008 64.0147 59.709 64.8584 59.3595C65.7021 59.0101 66.6304 58.9186 67.5261 59.0968C68.4218 59.2749 69.2445 59.7147 69.8902 60.3604C70.5359 61.0062 70.9757 61.8289 71.1539 62.7245C71.332 63.6202 71.2406 64.5486 70.8911 65.3923C70.5416 66.236 69.9498 66.9571 69.1905 67.4644C68.4312 67.9718 67.5385 68.2426 66.6253 68.2426C65.4012 68.2412 64.2276 67.7543 63.362 66.8887C62.4964 66.0231 62.0095 64.8495 62.0081 63.6253ZM57.3908 77.2835L65.5967 86.7116H67.6539L75.8598 77.2835V74.3989H57.3908V77.2835ZM71.6105 77.4771L66.6253 83.2048L61.6401 77.4771H71.6105ZM65.5967 40.5391L57.3908 49.9671V52.8517H75.8598V49.9671L67.6539 40.5391H65.5967ZM61.6401 49.7736L66.6253 44.0459L71.6105 49.7736H61.6401ZM43.5391 62.5967V64.6539L52.9672 72.8598H55.8517V54.3908H52.9672L43.5391 62.5967ZM52.7736 68.6106L47.0458 63.6253L52.7736 58.64V68.6106ZM80.2834 54.3908H77.3989V72.8598H80.2834L89.7116 64.6539V62.5967L80.2834 54.3908ZM80.4771 68.6106V58.64L86.2049 63.6253L80.4771 68.6106Z" fill="white"/>
</g>
<defs>
<filter id="filter0_d_19_8570" x="0.029458" y="0" width="133.192" height="134.03" filterUnits="userSpaceOnUse" color-interpolation-filters="sRGB">
<feFlood flood-opacity="0" result="BackgroundImageFix"/>
<feColorMatrix in="SourceAlpha" type="matrix" values="0 0 0 0 0 0 0 0 0 0 0 0 0 0 0 0 0 0 127 0" result="hardAlpha"/>
<feOffset dy="3.80839"/>
<feGaussianBlur stdDeviation="1.48527"/>
<feComposite in2="hardAlpha" operator="out"/>
<feColorMatrix type="matrix" values="0 0 0 0 0.101961 0 0 0 0 0.101961 0 0 0 0 0.101961 0 0 0 0.24 0"/>
<feBlend mode="normal" in2="BackgroundImageFix" result="effect1_dropShadow_19_8570"/>
<feBlend mode="normal" in="SourceGraphic" in2="effect1_dropShadow_19_8570" result="shape"/>
</filter>
</defs>
</svg>
