<svg width="134" height="135" viewBox="0 0 134 135" fill="none" xmlns="http://www.w3.org/2000/svg">
<g filter="url(#filter0_d_6_409)">
<rect x="3" width="127.251" height="127.251" rx="28" fill="#1A1A1A"/>
<path d="M66.6253 45.7931V63.6253C66.6253 64.0335 66.4632 64.425 66.1745 64.7136C65.8859 65.0022 65.4944 65.1644 65.0863 65.1644C64.6781 65.1644 64.2866 65.0022 63.998 64.7136C63.7093 64.425 63.5472 64.0335 63.5472 63.6253V45.7931L60.0188 49.3234C59.73 49.6122 59.3383 49.7744 58.9299 49.7744C58.5215 49.7744 58.1298 49.6122 57.841 49.3234C57.5522 49.0346 57.39 48.6429 57.39 48.2345C57.39 47.8261 57.5522 47.4344 57.841 47.1456L63.9973 40.9892C64.1403 40.8461 64.31 40.7326 64.4969 40.6552C64.6837 40.5777 64.884 40.5378 65.0863 40.5378C65.2885 40.5378 65.4888 40.5777 65.6756 40.6552C65.8625 40.7326 66.0322 40.8461 66.1752 40.9892L72.3315 47.1456C72.6203 47.4344 72.7825 47.8261 72.7825 48.2345C72.7825 48.6429 72.6203 49.0346 72.3315 49.3234C72.0427 49.6122 71.651 49.7744 71.2426 49.7744C70.8342 49.7744 70.4425 49.6122 70.1537 49.3234L66.6253 45.7931ZM78.938 62.7827V57.469C78.938 56.6526 78.6137 55.8697 78.0364 55.2924C77.4592 54.7151 76.6762 54.3908 75.8598 54.3908H72.7817C72.3735 54.3908 71.982 54.553 71.6934 54.8416C71.4047 55.1302 71.2426 55.5217 71.2426 55.9299C71.2426 56.3381 71.4047 56.7296 71.6934 57.0182C71.982 57.3068 72.3735 57.469 72.7817 57.469H75.8598V72.9368C74.942 71.9992 73.7135 71.4288 72.405 71.3327C71.0964 71.2366 69.7978 71.6214 68.7528 72.4148C67.7078 73.2083 66.9884 74.3559 66.7295 75.6422C66.4706 76.9284 66.6901 78.265 67.3468 79.4009L67.393 79.474L71.6755 86.0151C71.8989 86.3567 72.249 86.5956 72.6485 86.6791C73.0481 86.7626 73.4645 86.684 73.8061 86.4605C74.1477 86.237 74.3866 85.887 74.4701 85.4874C74.5536 85.0878 74.475 84.6714 74.2515 84.3298L69.994 77.8291C69.6922 77.2962 69.6145 76.6652 69.7779 76.0749C69.9413 75.4847 70.3326 74.9835 70.8655 74.6817C71.3985 74.3799 72.0295 74.3022 72.6197 74.4656C73.21 74.629 73.7111 75.0203 74.0129 75.5532C74.0264 75.5782 74.0418 75.6032 74.0572 75.6263L76.1119 78.7641C76.2935 79.0411 76.5596 79.2521 76.8707 79.3658C77.1818 79.4795 77.5213 79.4897 77.8387 79.3951C78.1561 79.3005 78.4345 79.1059 78.6326 78.8405C78.8306 78.575 78.9377 78.2527 78.938 77.9215V66.7035C80.3887 68.0463 81.5473 69.6735 82.3417 71.4837C83.136 73.2939 83.5491 75.2482 83.5553 77.225V85.1725C83.5553 85.5807 83.7174 85.9721 84.006 86.2608C84.2947 86.5494 84.6861 86.7116 85.0943 86.7116C85.5025 86.7116 85.894 86.5494 86.1826 86.2608C86.4713 85.9721 86.6334 85.5807 86.6334 85.1725V77.2173C86.6247 74.3663 85.919 71.5606 84.5777 69.0447C83.2364 66.5288 81.3003 64.379 78.938 62.7827ZM57.3908 54.3908H54.3127C53.4963 54.3908 52.7133 54.7151 52.1361 55.2924C51.5588 55.8697 51.2345 56.6526 51.2345 57.469V77.4771C51.2345 77.8853 51.3967 78.2767 51.6853 78.5654C51.9739 78.854 52.3654 79.0162 52.7736 79.0162C53.1818 79.0162 53.5732 78.854 53.8619 78.5654C54.1505 78.2767 54.3127 77.8853 54.3127 77.4771V57.469H57.3908C57.799 57.469 58.1905 57.3068 58.4791 57.0182C58.7678 56.7296 58.9299 56.3381 58.9299 55.9299C58.9299 55.5217 58.7678 55.1302 58.4791 54.8416C58.1905 54.553 57.799 54.3908 57.3908 54.3908Z" fill="white"/>
</g>
<defs>
<filter id="filter0_d_6_409" x="0.029458" y="0" width="133.192" height="134.03" filterUnits="userSpaceOnUse" color-interpolation-filters="sRGB">
<feFlood flood-opacity="0" result="BackgroundImageFix"/>
<feColorMatrix in="SourceAlpha" type="matrix" values="0 0 0 0 0 0 0 0 0 0 0 0 0 0 0 0 0 0 127 0" result="hardAlpha"/>
<feOffset dy="3.80839"/>
<feGaussianBlur stdDeviation="1.48527"/>
<feComposite in2="hardAlpha" operator="out"/>
<feColorMatrix type="matrix" values="0 0 0 0 0.101961 0 0 0 0 0.101961 0 0 0 0 0.101961 0 0 0 0.24 0"/>
<feBlend mode="normal" in2="BackgroundImageFix" result="effect1_dropShadow_6_409"/>
<feBlend mode="normal" in="SourceGraphic" in2="effect1_dropShadow_6_409" result="shape"/>
</filter>
</defs>
</svg>
