<svg width="215" height="230" viewBox="0 0 215 230" fill="none" xmlns="http://www.w3.org/2000/svg">
<path d="M101.338 4.71289C104.692 1.40708 109.613 0.22886 114.272 0.928711C118.931 1.62855 123.289 4.20051 125.523 8.3457C126.295 9.77793 126.832 11.3182 127.35 12.8877C127.867 14.4515 128.366 16.0486 129.062 17.5625C130.453 20.5881 133.066 23.5371 136.492 23.7246C137.877 23.8003 139.264 23.4107 140.577 23.1113C141.908 22.8077 143.174 22.5931 144.404 22.9463C146.118 23.4387 147.178 24.8703 147.647 26.6465C148.116 28.4244 147.981 30.5139 147.329 32.2402C146.669 33.9873 145.679 35.5965 144.724 37.252C143.774 38.8991 142.86 40.5876 142.393 42.458C142.301 42.8251 142.231 43.1974 142.18 43.5723L142.136 43.9473C141.732 48.0208 143.681 52.2174 146.936 54.6553C150.242 57.1312 155.374 57.5673 159.104 55.7461C160.511 55.0591 161.556 53.9842 162.444 52.791C163.324 51.6088 164.078 50.2678 164.86 49.085C167.2 45.5448 170.261 42.4778 174.13 40.6934C178.215 38.8097 183.024 38.3968 187.185 40.2041C192.061 42.3222 195.263 47.0717 196.321 52.2783C197.379 57.485 196.285 63.1078 192.623 66.9609C190.882 68.7927 188.776 70.1835 186.572 71.4941C184.377 72.7997 182.071 74.0318 179.978 75.5303C177.873 77.0374 175.914 79.0778 174.671 81.3682C173.428 83.6598 172.896 86.2182 173.68 88.7402C175.077 93.2325 180.056 95.5633 184.618 96.1113C186.9 96.3855 189.209 96.3492 191.49 96.3486C193.777 96.348 196.039 96.3834 198.259 96.7939C200.47 97.2027 202.711 98.1523 204.458 99.5518C206.096 100.863 207.289 102.56 207.634 104.572L207.692 104.979C207.885 106.696 207.469 108.433 206.785 110.178C206.099 111.926 205.157 113.652 204.308 115.364C203.464 117.065 202.713 118.751 202.447 120.381C202.179 122.022 202.401 123.615 203.506 125.109C204.641 126.643 206.398 127.428 208.115 128.165C209.855 128.911 211.554 129.608 212.721 130.939C214.844 133.36 214.509 137.192 213.05 140.174C212.322 141.662 211.371 143.023 210.383 144.385C209.399 145.742 208.376 147.103 207.528 148.57C204.227 154.283 203.798 161.142 203.509 167.66C203.22 174.197 202.925 180.924 199.901 186.644C196.877 192.362 190.263 196.676 184.131 194.916C182.866 194.553 181.638 193.952 180.419 193.27C179.811 192.929 179.207 192.569 178.603 192.209C178 191.85 177.396 191.491 176.792 191.154C174.381 189.813 171.901 188.795 169.214 189.538C166.417 190.312 164.825 192.638 164.153 195.398C163.482 198.157 163.717 201.389 164.6 204.073C165.039 205.405 165.569 206.736 166.097 208.062C166.626 209.39 167.151 210.713 167.584 212.039C168.451 214.691 168.938 217.329 168.342 219.989C167.423 224.095 164.153 226.792 160.094 228.05C156.035 229.308 151.222 229.11 147.298 227.453C143.356 225.788 139.96 223.214 136.678 220.397C133.406 217.589 130.229 214.524 126.767 211.93C123.291 209.325 119.032 207.206 114.749 206.37C110.463 205.534 106.135 205.981 102.554 208.536C100.911 209.709 99.4977 211.266 98.1831 212.924C97.5255 213.753 96.8898 214.611 96.2622 215.461C95.6338 216.312 95.013 217.155 94.3813 217.96C91.8466 221.189 89.1893 223.727 85.3423 223.621C83.0939 223.559 81.1244 222.503 79.4585 220.933C77.7914 219.361 76.4404 217.283 75.438 215.207C74.9351 214.165 74.4684 213.09 73.9946 212.011C73.5217 210.933 73.0415 209.851 72.5142 208.804C71.4595 206.709 70.2082 204.738 68.4204 203.186C65.6662 200.794 62.2315 199.854 58.6147 199.642C55.0005 199.43 51.1823 199.945 47.646 200.482C44.1133 201.02 40.2987 201.415 36.7583 201.037C33.2202 200.659 29.9761 199.51 27.5581 196.975C23.9377 193.178 23.3948 187.358 23.9429 182.05C24.2179 179.388 24.7081 176.756 25.0649 174.078C25.4201 171.414 25.6372 168.734 25.3521 166.045C24.652 159.443 21.0091 153.441 17.8188 147.518C14.6157 141.57 11.8644 135.697 12.7983 129.269C13.3346 125.577 15.0753 122.183 16.7505 118.733C18.4186 115.298 20.0194 111.81 20.1987 107.985C20.4031 103.623 18.7506 99.6253 16.8579 95.6934C14.9572 91.7448 12.8206 87.8707 11.9722 83.6904C10.266 75.2846 14.5387 66.001 22.0337 61.8301C26.1112 59.5611 30.9868 58.6411 35.6284 57.3428C40.247 56.0509 44.6181 54.3848 47.5415 50.5967C49.4181 48.1647 50.3262 45.2884 50.8286 42.2803C51.3299 39.2787 51.4315 36.1123 51.6753 33.1201C51.919 30.1263 52.5124 26.9423 53.7231 24.208C54.9332 21.4752 56.7521 19.2073 59.4399 18.0107C63.7849 16.0771 68.505 17.6749 73.3608 19.3721C75.7732 20.2152 78.2144 21.0791 80.6196 21.5039C83.0288 21.9294 85.4202 21.9189 87.7349 21.001C91.1363 19.652 93.2779 16.7878 95.1938 13.6816C97.1224 10.555 98.8178 7.19789 101.338 4.71289Z" fill="#DEDEFC" stroke="#F2F2F2" stroke-width="0.469534"/>
<path d="M198.299 71.9879C199.838 71.2576 201.349 71.1593 202.885 71.8961C204.854 72.8406 206.509 74.3222 207.015 76.4507C207.481 78.4105 207.043 80.5662 205.955 82.2603C204.5 84.5263 202.021 86.0224 199.389 86.73C197.412 87.2617 195.283 87.3683 193.406 86.6461C191.529 85.9235 189.967 84.2662 189.715 82.3101C189.397 79.8408 191.051 77.5547 192.788 75.8433C194.36 74.2955 196.304 72.9349 198.299 71.9879Z" fill="#DEDEFC" stroke="#F2F2F2" stroke-width="0.469534"/>
<path d="M5.54199 150.062C8.26171 149.907 10.795 151.391 12.7451 153.253C17.2674 157.569 19.2357 164.067 19.1631 170.37L19.1504 170.979C19.0253 174.847 18.108 178.84 15.54 181.658C12.9705 184.477 8.43683 185.669 5.2959 183.628C2.61022 181.883 1.57858 178.342 1.69141 175.059C1.755 173.212 2.10961 171.401 2.48047 169.572C2.85014 167.748 3.23591 165.905 3.34766 164.021C3.4919 161.585 2.96147 159.595 1.6875 157.54C1.29205 156.901 0.85064 156.283 0.553711 155.62C0.261687 154.967 0.128053 154.306 0.334961 153.604C0.648754 152.541 1.40836 151.686 2.36914 151.08C3.33036 150.473 4.47935 150.123 5.54199 150.062Z" fill="#CCCCEA" stroke="#F2F2F2" stroke-width="0.469534"/>
<mask id="mask0_19_9100" style="mask-type:luminance" maskUnits="userSpaceOnUse" x="11" y="0" width="204" height="230">
<path d="M101.338 4.71289C104.692 1.40708 109.613 0.22886 114.272 0.928711C118.931 1.62855 123.289 4.20051 125.523 8.3457C126.295 9.77793 126.832 11.3182 127.35 12.8877C127.867 14.4515 128.366 16.0486 129.062 17.5625C130.453 20.5881 133.066 23.5371 136.492 23.7246C137.877 23.8003 139.264 23.4107 140.577 23.1113C141.908 22.8077 143.174 22.5931 144.404 22.9463C146.118 23.4387 147.178 24.8703 147.647 26.6465C148.116 28.4244 147.981 30.5139 147.329 32.2402C146.669 33.9873 145.679 35.5965 144.724 37.252C143.774 38.8991 142.86 40.5876 142.393 42.458C142.301 42.8251 142.231 43.1974 142.18 43.5723L142.136 43.9473C141.732 48.0208 143.681 52.2174 146.936 54.6553C150.242 57.1312 155.374 57.5673 159.104 55.7461C160.511 55.0591 161.556 53.9842 162.444 52.791C163.324 51.6088 164.078 50.2678 164.86 49.085C167.2 45.5448 170.261 42.4778 174.13 40.6934C178.215 38.8097 183.024 38.3968 187.185 40.2041C192.061 42.3222 195.263 47.0717 196.321 52.2783C197.379 57.485 196.285 63.1078 192.623 66.9609C190.882 68.7927 188.776 70.1835 186.572 71.4941C184.377 72.7997 182.071 74.0318 179.978 75.5303C177.873 77.0374 175.914 79.0778 174.671 81.3682C173.428 83.6598 172.896 86.2182 173.68 88.7402C175.077 93.2325 180.056 95.5633 184.618 96.1113C186.9 96.3855 189.209 96.3492 191.49 96.3486C193.777 96.348 196.039 96.3834 198.259 96.7939C200.47 97.2027 202.711 98.1523 204.458 99.5518C206.096 100.863 207.289 102.56 207.634 104.572L207.692 104.979C207.885 106.696 207.469 108.433 206.785 110.178C206.099 111.926 205.157 113.652 204.308 115.364C203.464 117.065 202.713 118.751 202.447 120.381C202.179 122.022 202.401 123.615 203.506 125.109C204.641 126.643 206.398 127.428 208.115 128.165C209.855 128.911 211.554 129.608 212.721 130.939C214.844 133.36 214.509 137.192 213.05 140.174C212.322 141.662 211.371 143.023 210.383 144.385C209.399 145.742 208.376 147.103 207.528 148.57C204.227 154.283 203.798 161.142 203.509 167.66C203.22 174.197 202.925 180.924 199.901 186.644C196.877 192.362 190.263 196.676 184.131 194.916C182.866 194.553 181.638 193.952 180.419 193.27C179.811 192.929 179.207 192.569 178.603 192.209C178 191.85 177.396 191.491 176.792 191.154C174.381 189.813 171.901 188.795 169.214 189.538C166.417 190.312 164.825 192.638 164.153 195.398C163.482 198.157 163.717 201.389 164.6 204.073C165.039 205.405 165.569 206.736 166.097 208.062C166.626 209.39 167.151 210.713 167.584 212.039C168.451 214.691 168.938 217.329 168.342 219.989C167.423 224.095 164.153 226.792 160.094 228.05C156.035 229.308 151.222 229.11 147.298 227.453C143.356 225.788 139.96 223.214 136.678 220.397C133.406 217.589 130.229 214.524 126.767 211.93C123.291 209.325 119.032 207.206 114.749 206.37C110.463 205.534 106.135 205.981 102.554 208.536C100.911 209.709 99.4977 211.266 98.1831 212.924C97.5255 213.753 96.8898 214.611 96.2622 215.461C95.6338 216.312 95.013 217.155 94.3813 217.96C91.8466 221.189 89.1893 223.727 85.3423 223.621C83.0939 223.559 81.1244 222.503 79.4585 220.933C77.7914 219.361 76.4404 217.283 75.438 215.207C74.9351 214.165 74.4684 213.09 73.9946 212.011C73.5217 210.933 73.0415 209.851 72.5142 208.804C71.4595 206.709 70.2082 204.738 68.4204 203.186C65.6662 200.794 62.2315 199.854 58.6147 199.642C55.0005 199.43 51.1823 199.945 47.646 200.482C44.1133 201.02 40.2987 201.415 36.7583 201.037C33.2202 200.659 29.9761 199.51 27.5581 196.975C23.9377 193.178 23.3948 187.358 23.9429 182.05C24.2179 179.388 24.7081 176.756 25.0649 174.078C25.4201 171.414 25.6372 168.734 25.3521 166.045C24.652 159.443 21.0091 153.441 17.8188 147.518C14.6157 141.57 11.8644 135.697 12.7983 129.269C13.3346 125.577 15.0753 122.183 16.7505 118.733C18.4186 115.298 20.0194 111.81 20.1987 107.985C20.4031 103.623 18.7506 99.6253 16.8579 95.6934C14.9572 91.7448 12.8206 87.8707 11.9722 83.6904C10.266 75.2846 14.5387 66.001 22.0337 61.8301C26.1112 59.5611 30.9868 58.6411 35.6284 57.3428C40.247 56.0509 44.6181 54.3848 47.5415 50.5967C49.4181 48.1647 50.3262 45.2884 50.8286 42.2803C51.3299 39.2787 51.4315 36.1123 51.6753 33.1201C51.919 30.1263 52.5124 26.9423 53.7231 24.208C54.9332 21.4752 56.7521 19.2073 59.4399 18.0107C63.7849 16.0771 68.505 17.6749 73.3608 19.3721C75.7732 20.2152 78.2144 21.0791 80.6196 21.5039C83.0288 21.9294 85.4202 21.9189 87.7349 21.001C91.1363 19.652 93.2779 16.7878 95.1938 13.6816C97.1224 10.555 98.8178 7.19789 101.338 4.71289Z" fill="white" stroke="white" stroke-width="0.469534"/>
</mask>
<g mask="url(#mask0_19_9100)">
<path d="M112.292 25.8618V29.4917H102.646V25.8618H112.292Z" fill="#CCCCEA" stroke="#F2F2F2" stroke-width="0.469534"/>
<path d="M123.908 25.8618V29.4917H114.262V25.8618H123.908Z" fill="#CCCCEA" stroke="#F2F2F2" stroke-width="0.469534"/>
<path d="M118.85 20.4321V24.062H109.205V20.4321H118.85Z" fill="#CCCCEA" stroke="#F2F2F2" stroke-width="0.469534"/>
<path d="M123.627 84.189V80.5591H133.273V84.189H123.627Z" fill="#CCCCEA" stroke="#F2F2F2" stroke-width="0.469534"/>
<path d="M112.011 84.189V80.5591H121.656V84.189H112.011Z" fill="#CCCCEA" stroke="#F2F2F2" stroke-width="0.469534"/>
<path d="M117.068 89.6189V85.989H126.714V89.6189H117.068Z" fill="#CCCCEA" stroke="#F2F2F2" stroke-width="0.469534"/>
<path d="M22.5989 125.982V122.352H32.2444V125.982H22.5989Z" fill="#CCCCEA" stroke="#F2F2F2" stroke-width="0.469534"/>
<path d="M10.9827 125.982V122.352H20.6282V125.982H10.9827Z" fill="#CCCCEA" stroke="#F2F2F2" stroke-width="0.469534"/>
<path d="M16.0398 131.412V127.782H25.6853V131.412H16.0398Z" fill="#CCCCEA" stroke="#F2F2F2" stroke-width="0.469534"/>
<path d="M219.435 95.2739V136.322H137.82V95.2739H219.435Z" fill="#CCCCEA" stroke="#F2F2F2" stroke-width="0.469534"/>
<path d="M184.917 99.6627V132.881H143.336V99.6627H184.917Z" fill="#B8B8DD" stroke="#F2F2F2" stroke-width="0.469534"/>
<path d="M219.91 99.6627V132.881H186.691V99.6627H219.91Z" fill="#B8B8DD" stroke="#F2F2F2" stroke-width="0.469534"/>
<path d="M142.055 136.791L141.18 142.253H137.82V136.791H142.055Z" fill="#CCCCEA" stroke="#F2F2F2" stroke-width="0.469534"/>
<path d="M180.763 112.118C181.288 112.119 181.714 112.545 181.714 113.071V118.408C181.714 118.933 181.288 119.358 180.763 119.359C180.238 119.359 179.811 118.933 179.811 118.408V113.071C179.811 112.545 180.238 112.118 180.763 112.118Z" fill="#CCCCEA" stroke="#F2F2F2" stroke-width="0.469534"/>
<path d="M191.32 112.118C191.845 112.119 192.271 112.545 192.271 113.071V118.408C192.271 118.933 191.845 119.358 191.32 119.359C190.795 119.359 190.368 118.933 190.368 118.408V113.071C190.368 112.545 190.795 112.118 191.32 112.118Z" fill="#CCCCEA" stroke="#F2F2F2" stroke-width="0.469534"/>
<path d="M142.55 75.4575C143.295 74.7423 144.479 74.7667 145.195 75.5121C145.91 76.2576 145.887 77.4417 145.141 78.1577C144.396 78.8731 143.211 78.8484 142.496 78.103C141.78 77.3574 141.805 76.1733 142.55 75.4575Z" fill="#CCCCEA" stroke="#F2F2F2" stroke-width="0.469534"/>
<path d="M145.785 71.6249C146.739 70.7086 148.256 70.7394 149.172 71.6942C150.088 72.6482 150.057 74.1644 149.104 75.0809L149.103 75.0819L149.102 75.0839C149.1 75.0854 149.098 75.0872 149.095 75.0897C149.09 75.0948 149.082 75.1019 149.073 75.1112C149.054 75.1299 149.028 75.1575 148.996 75.1923C148.931 75.2619 148.842 75.3631 148.742 75.4921C148.542 75.7495 148.294 76.1215 148.108 76.577C147.732 77.4977 147.613 78.7592 148.625 80.0712C148.851 80.3628 148.812 80.7623 148.559 80.954C148.479 81.0149 148.38 81.0561 148.254 81.0624L144.015 76.6454L139.774 72.2264C139.782 72.1394 139.806 72.0664 139.842 72.0038L139.895 71.9276C140.097 71.6821 140.497 71.6603 140.78 71.8973C142.049 72.963 143.315 72.895 144.25 72.5575C144.713 72.3904 145.095 72.158 145.361 71.9686C145.494 71.8739 145.598 71.7892 145.67 71.7274C145.707 71.6965 145.735 71.6711 145.754 71.6532C145.764 71.6443 145.772 71.6368 145.777 71.6317C145.779 71.6294 145.781 71.6273 145.783 71.6259L145.784 71.6239L145.785 71.6249Z" fill="#B8B8DD" stroke="#F2F2F2" stroke-width="0.469534"/>
<path d="M147.371 71.4623V71.4642L146.635 72.1713H146.633V72.1703H146.634L147.37 71.4623H147.371Z" fill="#DEDEFC" stroke="#F2F2F2" stroke-width="0.469534"/>
<path d="M147.943 72.0587V72.0596L147.206 72.7667L147.204 72.7657L147.942 72.0577L147.943 72.0587Z" fill="#DEDEFC" stroke="#F2F2F2" stroke-width="0.469534"/>
<path d="M147.776 73.3592L148.514 72.6522V72.6541L147.777 73.3611L147.775 73.3602L147.776 73.3592Z" fill="#DEDEFC" stroke="#F2F2F2" stroke-width="0.469534"/>
<path d="M149.085 73.2484V73.2494L148.348 73.9564L148.346 73.9554L149.084 73.2474L149.085 73.2484Z" fill="#DEDEFC" stroke="#F2F2F2" stroke-width="0.469534"/>
<path d="M149.567 93.376H157.157C157.996 93.376 158.689 93.9976 158.803 94.8047H147.921C148.035 93.9973 148.727 93.376 149.567 93.376Z" fill="#B8B8DD" stroke="#F2F2F2" stroke-width="0.469534"/>
<path d="M153.362 93.6131L160.806 78.5481" stroke="#F2F2F2" stroke-width="0.939067" stroke-miterlimit="10"/>
<path d="M149.151 70.7224L160.805 78.5481" stroke="#F2F2F2" stroke-width="0.939067" stroke-miterlimit="10"/>
<path d="M150.853 70.9581C150.853 70.3449 150.355 69.8477 149.742 69.8477C149.129 69.8477 148.632 70.3449 148.632 70.9581C148.632 71.5713 149.129 72.0686 149.742 72.0686C150.355 72.0686 150.853 71.5713 150.853 70.9581Z" fill="#CCCCEA" stroke="#F2F2F2" stroke-width="0.469534" stroke-miterlimit="10"/>
<path d="M161.647 78.5481C161.647 77.9349 161.149 77.4376 160.536 77.4376C159.923 77.4376 159.426 77.9349 159.426 78.5481C159.426 79.1613 159.923 79.6585 160.536 79.6585C161.149 79.6585 161.647 79.1617 161.647 78.5481Z" fill="#CCCCEA" stroke="#F2F2F2" stroke-width="0.469534" stroke-miterlimit="10"/>
<path d="M226.002 61.0524V65.2243H137.82V61.0524H226.002Z" fill="#B8B8DD" stroke="#F2F2F2" stroke-width="0.469534"/>
<path d="M175.603 41.4697L167.898 60.5112L163.219 58.6181L170.924 39.5766L175.603 41.4697Z" fill="#CCCCEA" stroke="#F2F2F2" stroke-width="0.469534"/>
<path d="M174.195 44.9471L173.838 45.8316L169.159 43.9385L169.517 43.054L174.195 44.9471Z" fill="#B8B8DD" stroke="#F2F2F2" stroke-width="0.469534"/>
<path d="M173.128 47.5853L172.77 48.4698L168.092 46.5767L168.449 45.6923L173.128 47.5853Z" fill="#B8B8DD" stroke="#F2F2F2" stroke-width="0.469534"/>
<path d="M168.74 49.2776C169.41 49.0098 170.171 49.3361 170.439 50.0061C170.707 50.6764 170.381 51.437 169.711 51.7053C169.04 51.973 168.28 51.6471 168.011 50.9768C167.744 50.3067 168.07 49.5459 168.74 49.2776Z" fill="#B8B8DD" stroke="#F2F2F2" stroke-width="0.469534"/>
<path d="M181.151 40.0417V60.5828H176.104V40.0417H181.151Z" fill="#CCCCEA" stroke="#F2F2F2" stroke-width="0.469534"/>
<path d="M181.151 43.7933V47.1498H176.104V43.7933H181.151Z" fill="#B8B8DD" stroke="#F2F2F2" stroke-width="0.469534"/>
<path d="M187.675 40.0417V60.5828H182.628V40.0417H187.675Z" fill="#CCCCEA" stroke="#F2F2F2" stroke-width="0.469534"/>
<path d="M187.675 43.7933V44.7474H182.628V43.7933H187.675Z" fill="#B8B8DD" stroke="#F2F2F2" stroke-width="0.469534"/>
<path d="M187.675 46.6401V47.5942H182.628V46.6401H187.675Z" fill="#B8B8DD" stroke="#F2F2F2" stroke-width="0.469534"/>
<path d="M184.246 49.8513C184.767 49.3514 185.595 49.3687 186.095 49.8893C186.595 50.4104 186.578 51.238 186.057 51.738C185.536 52.2377 184.708 52.2205 184.208 51.6999C183.709 51.1787 183.725 50.351 184.246 49.8513Z" fill="#B8B8DD" stroke="#F2F2F2" stroke-width="0.469534"/>
<path d="M215.877 142.722V234.538H11.5977V142.722H215.877Z" fill="#CCCCEA" stroke="#F2F2F2" stroke-width="0.469534"/>
<path d="M51.719 30.6266V103.464H7.57642V30.6266H51.719Z" fill="#DADAEF" stroke="#F2F2F2" stroke-width="0.469534"/>
<path d="M98.0569 103.933V109.276H7.57642V103.933H98.0569Z" fill="#C8C8ED" stroke="#F2F2F2" stroke-width="0.469534"/>
<path d="M98.0574 30.6266V103.464H53.9148V30.6266H98.0574Z" fill="#DADAEF" stroke="#F2F2F2" stroke-width="0.469534"/>
<path d="M52.1882 103.464L52.1882 30.6273H53.446L53.446 103.464H52.1882Z" fill="#C8C8ED" stroke="#F2F2F2" stroke-width="0.469534"/>
<path d="M96.7998 103.464L96.7998 30.6273H98.0576L98.0576 103.464H96.7998Z" fill="#C8C8ED" stroke="#F2F2F2" stroke-width="0.469534"/>
<path d="M98.0576 30.1606L52.1885 30.1606V28.9028L98.0576 28.9028V30.1606Z" fill="#C8C8ED" stroke="#F2F2F2" stroke-width="0.469534"/>
<path d="M51.719 30.1605L5.84985 30.1605V28.9027L51.719 28.9027V30.1605Z" fill="#C8C8ED" stroke="#F2F2F2" stroke-width="0.469534"/>
<mask id="path-50-inside-1_19_9100" fill="white">
<path d="M79.6993 30.3923L59.0596 103.699H69.3794L89.6633 30.3923"/>
</mask>
<path d="M79.6993 30.3923L59.0596 103.699H69.3794L89.6633 30.3923" fill="#EEEEFF"/>
<path d="M59.0596 103.699L58.6076 103.571L58.4396 104.168H59.0596V103.699ZM69.3794 103.699V104.168H69.7367L69.832 103.824L69.3794 103.699ZM79.6993 30.3923L79.2474 30.265L58.6076 103.571L59.0596 103.699L59.5115 103.826L80.1513 30.5195L79.6993 30.3923ZM59.0596 103.699V104.168H69.3794V103.699V103.229H59.0596V103.699ZM69.3794 103.699L69.832 103.824L90.1158 30.5175L89.6633 30.3923L89.2108 30.2671L68.9269 103.573L69.3794 103.699Z" fill="#F2F2F2" mask="url(#path-50-inside-1_19_9100)"/>
<mask id="path-52-inside-2_19_9100" fill="white">
<path d="M37.9452 30.3923L17.3059 103.699H27.6258L47.9096 30.3923"/>
</mask>
<path d="M37.9452 30.3923L17.3059 103.699H27.6258L47.9096 30.3923" fill="#EEEEFF"/>
<path d="M17.3059 103.699L16.8539 103.571L16.6859 104.168H17.3059V103.699ZM27.6258 103.699V104.168H27.983L28.0783 103.824L27.6258 103.699ZM37.9452 30.3923L37.4932 30.265L16.8539 103.571L17.3059 103.699L17.7579 103.826L38.3972 30.5195L37.9452 30.3923ZM17.3059 103.699V104.168H27.6258V103.699V103.229H17.3059V103.699ZM27.6258 103.699L28.0783 103.824L48.3622 30.5175L47.9096 30.3923L47.4571 30.2671L27.1733 103.573L27.6258 103.699Z" fill="#F2F2F2" mask="url(#path-52-inside-2_19_9100)"/>
<path d="M69.3257 97.2422C69.3255 97.254 69.3249 97.2667 69.3247 97.2793C69.3218 97.453 69.3168 97.7016 69.3052 98.001C69.2819 98.6009 69.235 99.4025 69.1421 100.212C69.0489 101.024 68.9101 101.832 68.7065 102.451C68.6046 102.761 68.4906 103.011 68.3657 103.188C68.2456 103.359 68.131 103.438 68.0288 103.464H63.5356C63.4334 103.438 63.3189 103.359 63.1987 103.188C63.0739 103.011 62.9599 102.761 62.8579 102.451C62.6543 101.832 62.5156 101.024 62.4224 100.212C62.3294 99.4025 62.2826 98.6009 62.2593 98.001C62.2476 97.7016 62.2417 97.453 62.2388 97.2793C62.2386 97.2667 62.239 97.254 62.2388 97.2422H69.3257Z" fill="#CCCCEA" stroke="#F2F2F2" stroke-width="0.469534"/>
<path d="M64.7251 89.1497C64.782 89.3788 64.8568 89.6701 65.0464 89.9036C65.2367 90.138 65.5969 90.3295 65.9497 90.1985H65.9507C66.1899 90.1091 66.3215 89.9133 66.4106 89.7561C66.4505 89.6859 66.5035 89.5823 66.5356 89.5237C66.5553 89.4879 66.5744 89.4555 66.5933 89.426L66.6509 89.3459C66.6866 89.3027 66.7297 89.2665 66.7788 89.2366C67.0349 90.0812 66.8925 90.7718 66.7026 91.2297C66.3914 91.9808 65.8452 92.4641 65.3901 92.7083C65.0933 91.6464 64.7133 90.5623 64.2896 89.5325C64.4157 89.3395 64.5457 89.1107 64.6499 88.8469C64.6743 88.9468 64.6998 89.0476 64.7251 89.1497ZM64.1763 89.6819C64.175 89.6829 64.1732 89.6832 64.1724 89.6838C64.1741 89.6826 64.178 89.6794 64.1831 89.675C64.1801 89.6777 64.1781 89.6804 64.1763 89.6819Z" fill="#B8B8DD" stroke="#F2F2F2" stroke-width="0.469534"/>
<path d="M62.7754 86.4069C62.9556 86.4111 63.138 86.4533 63.3008 86.5309C63.5954 86.6713 63.8383 86.9132 64.0352 87.2077C64.1846 87.7914 64.0879 88.2745 63.915 88.6677C63.5483 87.8487 63.163 87.0796 62.7754 86.4069Z" fill="#B8B8DD" stroke="#F2F2F2" stroke-width="0.469534"/>
<path d="M62.3779 88.877C62.6666 88.9469 62.9357 88.9613 63.1475 88.9434H63.1494C63.1714 88.9413 63.1924 88.9372 63.2129 88.9346C63.5723 89.7367 63.9126 90.5921 64.21 91.457C63.8175 91.6049 63.275 91.6041 62.709 91.4189L62.4268 91.3115C61.8702 91.0701 61.45 90.7074 61.2109 90.3164C61.2888 90.3412 61.3673 90.3846 61.4551 90.4443C61.5057 90.4788 61.5561 90.5157 61.6113 90.5566C61.6653 90.5966 61.7241 90.6399 61.7852 90.6807C61.9138 90.7664 62.0723 90.8443 62.2412 90.8789C62.4115 90.9137 62.608 90.9077 62.7871 90.7998C62.9679 90.6911 63.0676 90.5139 63.1084 90.3379C63.1489 90.1628 63.1356 89.9728 63.0762 89.8066C62.9666 89.5005 62.7306 89.2657 62.5615 89.084C62.4984 89.0159 62.4372 88.9467 62.3779 88.877Z" fill="#B8B8DD" stroke="#F2F2F2" stroke-width="0.469534"/>
<path d="M62.0515 86.6534C62.3241 87.1183 62.6011 87.639 62.8728 88.2012C62.554 88.181 62.1149 88.0624 61.7566 87.7159C61.6884 87.3197 61.7776 86.9183 62.03 86.6719C62.0367 86.6654 62.0445 86.6596 62.0515 86.6534Z" fill="#B8B8DD" stroke="#F2F2F2" stroke-width="0.469534"/>
<path d="M67.5806 89.2589L67.6841 89.3321C67.991 89.5956 68.1168 90.0593 68.064 90.5137C68.0104 90.9701 67.8052 91.404 67.5698 91.8536C67.42 92.1397 67.2191 92.5077 67.2241 92.9161C67.2269 93.1376 67.3076 93.3628 67.4438 93.5352C67.5637 93.687 67.7389 93.8122 67.9546 93.8399L68.0493 93.8458C68.2872 93.8443 68.4846 93.7257 68.6226 93.6426C68.6825 93.6066 68.7337 93.5759 68.7798 93.5508C68.5782 94.0757 68.1462 94.4298 67.6226 94.6612C67.0487 94.9148 66.3912 95.0065 65.8931 95.0098C65.8169 94.5058 65.712 93.9821 65.5815 93.4473C66.3514 93.0965 67.0401 92.3628 67.3911 91.5157C67.6146 90.9762 67.7862 90.1907 67.5591 89.2481C67.5661 89.2519 67.5737 89.2548 67.5806 89.2589Z" fill="#B8B8DD" stroke="#F2F2F2" stroke-width="0.469534"/>
<path d="M61.4102 94.6239C61.6135 94.8397 61.8801 95.0281 62.1973 95.1786C62.7438 95.4383 63.4738 95.5955 64.1924 95.5341C64.5309 95.5052 64.8677 95.4235 65.1836 95.2821C65.2301 95.6077 65.2634 95.9207 65.2793 96.2167V96.2177C65.2838 96.2972 65.3126 96.3695 65.3584 96.4276C65.3343 96.4295 65.3101 96.4327 65.2861 96.4344C64.5076 96.4902 63.728 96.3726 62.9502 96.1884C62.3806 96.0531 61.8566 95.8523 61.5576 95.4501C61.4404 95.2921 61.3746 95.0824 61.374 94.8749C61.3738 94.7858 61.388 94.7013 61.4102 94.6239ZM69.4453 93.9169C69.4831 94.1844 69.3662 94.4754 69.1768 94.7557C68.7072 95.4506 67.9447 95.876 67.0869 96.1288C66.7267 96.2351 66.3529 96.3067 65.9844 96.3583C66.0007 96.3245 66.014 96.2891 66.0195 96.2509L66.0234 96.1766C66.0159 96.0383 66.0039 95.8974 65.9902 95.7548C66.0934 95.7521 66.2013 95.7467 66.3125 95.7372C66.9219 95.6851 67.6528 95.5225 68.2764 95.1678C68.7698 94.8871 69.2012 94.4812 69.4443 93.9139L69.4453 93.9169Z" fill="#B8B8DD" stroke="#F2F2F2" stroke-width="0.469534"/>
<path d="M60.5273 90.6281C60.8464 91.2009 61.4117 91.6832 62.1309 91.9952C62.704 92.2436 63.2952 92.3494 63.8281 92.3038C64.0445 92.2852 64.2504 92.2383 64.4424 92.1681C64.6952 92.9725 64.9041 93.7685 65.0508 94.5216C64.2852 94.9547 63.222 94.84 62.5176 94.506C62.3011 94.4032 62.1284 94.2847 62.001 94.1632C62.0032 94.1629 62.0055 94.1626 62.0078 94.1622C62.0673 94.1538 62.1284 94.1474 62.1943 94.1407C62.2588 94.1342 62.329 94.1266 62.3984 94.1173C62.6791 94.08 63.0829 93.9636 63.2559 93.6046C63.3735 93.3604 63.3316 93.1026 63.2266 92.8986C63.1221 92.6959 62.9456 92.5228 62.7441 92.42C62.5554 92.3237 62.3576 92.2757 62.1738 92.2423C61.9702 92.2053 61.8285 92.1916 61.6504 92.1544C61.277 92.0765 60.9325 91.9132 60.7021 91.6525H60.7031C60.5016 91.4239 60.4022 91.1154 60.4492 90.8448L60.4785 90.7316C60.4908 90.6961 60.5077 90.6615 60.5273 90.6281Z" fill="#B8B8DD" stroke="#F2F2F2" stroke-width="0.469534"/>
</g>
<path d="M61.007 214.481C48.0888 211.438 41.6613 194.707 41.6613 194.707C33.5623 201.314 23.5425 200.676 23.5425 200.676C26.1404 208.527 28.6717 211.946 32.8275 216.253C32.9735 216.286 40.0546 218.609 44.3315 212.742C44.3315 212.742 47.1581 218.616 53.2499 218.22C61.3343 214.807 61.007 214.481 61.007 214.481Z" fill="#DEDEFC"/>
<path d="M47.7705 225.897C47.7696 225.897 47.7687 225.897 47.7673 225.897C47.7641 225.898 47.7613 225.899 47.7585 225.901C47.7599 225.9 47.7705 225.897 47.7705 225.897Z" fill="white"/>
<path d="M33.3411 223.713C33.3443 223.715 33.3475 223.716 33.3507 223.718C33.3498 223.717 33.3489 223.716 33.3475 223.715C33.3461 223.715 33.3411 223.713 33.3411 223.713Z" fill="white"/>
<path d="M32.8274 216.253C32.8274 216.253 43.8337 221.948 53.2498 218.22C53.2498 218.22 48.0182 217.878 45.0047 211.869C45.0047 211.869 41.1076 217.295 32.8274 216.253Z" fill="#B8B8DD"/>
<path d="M26.8748 204L27.1574 204.457C27.1574 204.457 36.1283 205.11 41.5594 199.938L41.3401 199.577C41.3401 199.577 36.7481 204.313 26.8748 204Z" fill="#B8B8DD"/>
<path d="M28.0012 205.677L28.2839 206.134C28.2839 206.134 37.2548 206.787 42.6859 201.615L42.4666 201.254C42.4666 201.254 37.8746 205.99 28.0012 205.677Z" fill="#B8B8DD"/>
<path d="M29.1274 207.353L29.4101 207.81C29.4101 207.81 38.381 208.464 43.8121 203.292L43.5928 202.93C43.5928 202.93 39.0008 207.667 29.1274 207.353Z" fill="#B8B8DD"/>
<path d="M30.2539 209.03L30.5366 209.487C30.5366 209.487 39.5075 210.14 44.9386 204.968L44.7193 204.607C44.7193 204.607 40.1273 209.343 30.2539 209.03Z" fill="#B8B8DD"/>
<path d="M31.3801 210.706L31.6628 211.163C31.6628 211.163 40.6337 211.817 46.0648 206.645L45.8455 206.283C45.8455 206.283 41.2535 211.02 31.3801 210.706Z" fill="#B8B8DD"/>
<path d="M32.5068 212.383L32.7895 212.84C32.7895 212.84 41.7604 213.494 47.1915 208.322L46.9722 207.96C46.9722 207.96 42.3802 212.696 32.5068 212.383Z" fill="#B8B8DD"/>
<path d="M36.2673 202.108C36.2673 202.108 37.151 204.549 38.9977 206.574C38.9977 206.574 42.0332 205.459 44.6743 203.052C44.6743 203.052 42.5586 200.163 41.7341 198.675C41.7341 198.675 40.3142 200.414 36.2673 202.108Z" fill="#DEDEFC"/>
<path d="M37.1511 202.207C37.1511 202.207 37.8282 204.078 39.2434 205.629C39.2434 205.629 41.5694 204.775 43.5931 202.93C43.5931 202.93 41.9723 200.717 41.3403 199.577C41.3403 199.577 40.2519 200.909 37.1511 202.207Z" fill="#B8B8DD"/>
<path d="M146.827 14.8925C159.771 17.8238 166.343 34.4993 166.343 34.4993C174.385 27.8216 184.41 28.3733 184.41 28.3733C181.744 20.5452 179.183 17.1482 174.991 12.8763C174.844 12.8454 167.744 10.5841 163.518 16.4875C163.518 16.4875 160.641 10.6381 154.553 11.087C146.497 14.57 146.827 14.8925 146.827 14.8925Z" fill="#DEDEFC"/>
<path d="M159.964 3.36257C159.965 3.36257 159.966 3.36303 159.968 3.36303C159.971 3.36165 159.974 3.36027 159.976 3.35889C159.975 3.35889 159.964 3.36257 159.964 3.36257Z" fill="white"/>
<path d="M174.412 5.42148C174.409 5.41964 174.406 5.41871 174.403 5.41687C174.404 5.41779 174.404 5.41917 174.406 5.4201C174.407 5.4201 174.412 5.42148 174.412 5.42148Z" fill="white"/>
<path d="M174.991 12.8768C174.991 12.8768 163.935 7.27759 154.552 11.0869C154.552 11.0869 159.787 11.3832 162.852 17.3655C162.852 17.3655 166.702 11.9063 174.991 12.8768Z" fill="#B8B8DD"/>
<path d="M181.049 25.0781L180.762 24.6236C180.762 24.6236 171.786 24.0475 166.4 29.2663L166.623 29.626C166.623 29.626 171.173 24.8504 181.049 25.0781Z" fill="#B8B8DD"/>
<path d="M179.909 23.4112L179.622 22.9567C179.622 22.9567 170.646 22.3811 165.26 27.5995L165.483 27.9591C165.483 27.9591 170.033 23.1835 179.909 23.4112Z" fill="#B8B8DD"/>
<path d="M178.767 21.7444L178.481 21.2899C178.481 21.2899 169.505 20.7143 164.119 25.9327L164.341 26.2923C164.341 26.2923 168.892 21.5167 178.767 21.7444Z" fill="#B8B8DD"/>
<path d="M177.627 20.0776L177.34 19.6231C177.34 19.6231 168.364 19.047 162.978 24.2658L163.201 24.6255C163.201 24.6255 167.751 19.8503 177.627 20.0776Z" fill="#B8B8DD"/>
<path d="M176.486 18.4107L176.199 17.9562C176.199 17.9562 167.223 17.3801 161.837 22.599L162.06 22.9586C162.06 22.9586 166.61 18.1835 176.486 18.4107Z" fill="#B8B8DD"/>
<path d="M175.345 16.7444L175.059 16.2899C175.059 16.2899 166.083 15.7142 160.697 20.9331L160.919 21.2927C160.919 21.2927 165.469 16.5166 175.345 16.7444Z" fill="#B8B8DD"/>
<path d="M171.673 27.0516C171.673 27.0516 170.768 24.618 168.904 22.6093C168.904 22.6093 165.878 23.7503 163.258 26.1806C163.258 26.1806 165.399 29.0508 166.236 30.5313C166.236 30.5313 167.641 28.7804 171.673 27.0516Z" fill="#DEDEFC"/>
<path d="M170.789 26.96C170.789 26.96 170.095 25.0955 168.667 23.5563C168.667 23.5563 166.348 24.4306 164.341 26.2928C164.341 26.2928 165.981 28.4921 166.622 29.6265C166.623 29.626 167.7 28.2841 170.789 26.96Z" fill="#B8B8DD"/>
<path d="M38.8422 44.93L10.4199 26.5942L26.1469 6.83017C26.9264 5.85072 28.3416 5.66385 29.3482 6.40853L53.1757 24.0259C54.2537 24.8227 54.4359 26.3642 53.5738 27.3906L38.8422 44.93Z" fill="#9F9FCC"/>
<path d="M38.6803 45.5202L10.42 26.5942L8.09533 48.4952C8.06293 48.9248 8.29113 49.3323 8.67521 49.5286L37.8868 66.768C38.615 67.1408 39.4752 66.5924 39.4442 65.7749L38.6803 45.5202Z" fill="#9F9FCC"/>
<path d="M39.2516 45.1136L10.8289 26.7779L26.5559 7.01332C27.3353 6.03387 28.7505 5.84746 29.7572 6.59168L53.5846 24.209C54.6626 25.0058 54.8448 26.5473 53.9827 27.5737L39.2516 45.1136Z" fill="#B8B8DD"/>
<path d="M38.3459 41.9766L14.4175 26.5407L27.6579 9.90183C28.3143 9.07686 29.5055 8.92003 30.353 9.54686L50.4124 24.3785C51.32 25.0495 51.4735 26.3468 50.7476 27.2112L38.3459 41.9766Z" fill="#DADAEF"/>
<path d="M39.2517 45.1136L10.829 26.7778L8.74426 48.081C8.71187 48.5097 8.93959 48.9159 9.32226 49.1121L38.4592 66.3074C39.1855 66.6793 40.0434 66.1318 40.0129 65.3167L39.2517 45.1136Z" fill="#B8B8DD"/>
<path d="M37.5908 45.3507L12.7985 29.9284L11.9397 40.6652C11.9162 40.9784 12.0824 41.2752 12.3618 41.4184L36.5827 55.5523C37.1133 55.8237 37.718 56.3857 37.7176 54.8287L37.5908 45.3507Z" fill="#DEDEFC"/>
<path d="M30.0878 52.8238L21.3718 47.8857L21.0779 54.2047C21.0699 54.3118 21.1267 54.4132 21.2225 54.4625L29.8295 59.3837C30.0112 59.4766 30.2178 59.6687 30.2178 59.1362L30.0878 52.8238Z" fill="#DEDEFC"/>
<path d="M19.6692 29.9284L41.6739 17.9172L45.9927 21.1101L24.3777 32.9658L19.6692 29.9284Z" fill="white"/>
<mask id="mask1_19_9100" style="mask-type:luminance" maskUnits="userSpaceOnUse" x="11" y="29" width="27" height="27">
<path d="M37.5908 45.3507L12.7985 29.9284L11.9397 40.6652C11.9162 40.9784 12.0824 41.2752 12.3618 41.4184L36.5827 55.5523C37.1133 55.8237 37.718 56.3857 37.7176 54.8287L37.5908 45.3507Z" fill="white"/>
</mask>
<g mask="url(#mask1_19_9100)">
<path d="M14.6037 30.7604L13.7529 42.6392" stroke="#B8B8DD" stroke-width="0.234767" stroke-miterlimit="10"/>
<path d="M16.822 32.0845L15.9712 43.9628" stroke="#B8B8DD" stroke-width="0.234767" stroke-miterlimit="10"/>
<path d="M19.0407 33.4081L18.1899 45.2869" stroke="#B8B8DD" stroke-width="0.234767" stroke-miterlimit="10"/>
<path d="M21.2592 34.7322L20.4084 46.6105" stroke="#B8B8DD" stroke-width="0.234767" stroke-miterlimit="10"/>
<path d="M23.4777 36.0558L22.627 47.9346" stroke="#B8B8DD" stroke-width="0.234767" stroke-miterlimit="10"/>
<path d="M25.6965 37.3799L24.8457 49.2581" stroke="#B8B8DD" stroke-width="0.234767" stroke-miterlimit="10"/>
<path d="M27.915 38.7035L27.0642 50.5822" stroke="#B8B8DD" stroke-width="0.234767" stroke-miterlimit="10"/>
<path d="M30.1335 40.0276L29.2827 51.9059" stroke="#B8B8DD" stroke-width="0.234767" stroke-miterlimit="10"/>
<path d="M32.352 41.3513L31.5012 53.2295" stroke="#B8B8DD" stroke-width="0.234767" stroke-miterlimit="10"/>
<path d="M34.5703 42.6749L33.72 54.5536" stroke="#B8B8DD" stroke-width="0.234767" stroke-miterlimit="10"/>
<path d="M36.7886 43.999L35.9382 55.8772" stroke="#B8B8DD" stroke-width="0.234767" stroke-miterlimit="10"/>
<path d="M11.8428 31.5422L38.3883 47.2903" stroke="#B8B8DD" stroke-width="0.234767" stroke-miterlimit="10"/>
<path d="M11.8428 34.0843L38.3883 49.8324" stroke="#B8B8DD" stroke-width="0.234767" stroke-miterlimit="10"/>
<path d="M11.8428 36.6263L38.3883 52.3745" stroke="#B8B8DD" stroke-width="0.234767" stroke-miterlimit="10"/>
<path d="M11.8428 39.1679L38.3883 54.9165" stroke="#B8B8DD" stroke-width="0.234767" stroke-miterlimit="10"/>
</g>
<path d="M11.2585 27.0549L38.8422 44.93" stroke="#9F9FCC" stroke-width="0.234767" stroke-miterlimit="10"/>
<path d="M35.5737 87.1316C35.5737 87.1316 40.2592 83.5435 48.9775 88.8069C48.9775 88.8069 42.5862 90.0672 38.1904 88.8069C38.1904 88.8069 36.6414 88.5736 35.5737 87.3781" fill="#13161C"/>
<path d="M172.649 75.1299C172.649 75.1299 167.377 72.4775 159.792 79.274C159.792 79.274 166.307 79.3214 170.391 77.2639C170.391 77.2639 171.869 76.746 172.695 75.3726" fill="#13161C"/>
<path d="M53.782 81.1963C53.5002 80.2971 52.8448 79.745 51.8714 79.9116C51.2164 80.0239 51.108 81.0052 51.108 81.0052C51.1976 82.0414 51.4211 83.6726 50.5624 84.4797C49.7097 85.2812 48.1175 85.0784 47.3301 84.3098C46.2877 83.2923 45.6417 80.2206 47.532 79.7215C48.5622 79.4496 49.2876 79.9919 50.2483 80.1441C51.1516 80.2873 51.8912 79.5586 51.6015 78.681C51.3418 77.8945 50.5056 77.3611 49.7736 77.0813C46.2967 75.752 44.7862 78.5232 44.7862 78.5232C44.7862 78.5232 43.4677 67.7733 40.2552 69.8223L41.9647 78.034L41.6201 78.1058L39.9443 70.0575C39.634 70.3256 39.3077 70.7088 38.9635 71.2309C38.8099 71.4643 38.6733 71.708 38.5461 71.9573L40.1725 79.768L39.8279 79.8398L38.2953 72.4813C35.4955 79.0331 40.4712 89.8672 40.4712 89.8672L48.4748 89.5192C48.6556 88.22 49.9933 88.035 50.9972 87.5026C52.0254 86.9575 52.9382 86.2452 53.4477 85.1709C54.0252 83.9529 54.1886 82.495 53.782 81.1963Z" fill="#B4441C"/>
<path d="M40.1726 79.768L38.5461 71.9573C38.4579 72.1291 38.3719 72.3024 38.2954 72.4813L39.828 79.8398L40.1726 79.768Z" fill="#712124"/>
<path d="M41.9647 78.034L40.2552 69.8223C40.1537 69.8871 40.05 69.9665 39.9443 70.0576L41.6201 78.1058L41.9647 78.034Z" fill="#712124"/>
<path d="M153.654 72.6921C153.763 71.7563 154.304 71.0914 155.292 71.0736C155.956 71.0619 156.245 72.0056 156.245 72.0056C156.35 73.0405 156.435 74.6848 157.429 75.3177C158.416 75.9464 159.943 75.4501 160.573 74.5482C161.407 73.3541 161.47 70.2158 159.52 70.0777C158.457 70.0026 157.845 70.6703 156.93 70.999C156.069 71.3084 155.207 70.7299 155.328 69.8138C155.437 68.9926 156.159 68.3132 156.826 67.9019C159.994 65.9477 161.995 68.3893 161.995 68.3893C161.995 68.3893 161.287 57.582 164.825 58.9963L164.675 67.3826L165.027 67.3892L165.174 59.1695C165.529 59.3752 165.921 59.6907 166.356 60.1396C166.55 60.3401 166.73 60.5546 166.901 60.7753L166.759 68.7522L167.111 68.7588L167.245 61.2434C171.217 67.1591 168.348 78.7303 168.348 78.7303L160.42 79.8797C160 78.6369 158.651 78.7045 157.566 78.3687C156.454 78.0246 155.424 77.4949 154.724 76.5347C153.928 75.4454 153.496 74.0439 153.654 72.6921Z" fill="#B4441C"/>
<path d="M166.759 68.7522L166.902 60.7753C167.02 60.9279 167.137 61.0819 167.245 61.2435L167.111 68.7588L166.759 68.7522Z" fill="#712124"/>
<path d="M164.675 67.383L164.825 58.9967C164.936 59.0413 165.053 59.1 165.174 59.17L165.027 67.3896L164.675 67.383Z" fill="#712124"/>
<path d="M80.6377 93.6117C80.0757 91.7669 80.7161 89.7704 82.2304 88.5755C87.5417 84.383 93.933 81.5592 100.617 80.4906C108.382 79.2487 116.51 80.3802 123.64 83.6956C125.793 84.6967 127.937 85.9649 129.228 87.9576C130.062 89.2441 130.485 90.7494 130.844 92.2402C132.644 99.7133 133.125 107.431 134.2 115.042C135.275 122.653 137.014 130.342 141.038 136.892C134.207 142.968 124.684 145.355 115.554 145.807C106.423 146.259 97.3306 144.613 88.3559 142.872C89.2363 126.235 85.5072 109.59 80.6377 93.6117Z" fill="#2A2E39"/>
<path d="M94.3075 84.7239C93.3614 86.2874 92.9882 88.1242 92.7111 89.9305C92.3228 92.4627 92.0918 95.0188 92.0209 97.5797C92.0073 98.0657 92.0021 98.5657 92.173 99.0212C92.4435 99.7419 93.1229 100.242 93.8432 100.514C94.5634 100.785 95.3386 100.866 96.096 101.005C97.5112 101.265 99.0137 101.835 99.7086 103.094C100.904 105.262 99.0658 108.028 99.7875 110.395C100.253 111.923 101.669 112.928 102.973 113.851C106.79 116.552 110.912 119.545 114.274 122.795C114.313 120.157 112.983 117.57 111.851 115.188C110.72 112.805 109.274 110.587 107.959 108.301C106.813 106.307 105.764 104.257 104.817 102.162C103.87 100.066 103.024 97.9243 102.283 95.7471C101.543 93.5699 100.907 91.3565 100.38 89.1177C100.116 87.9984 99.8795 86.8729 99.6701 85.7418C99.5644 85.1699 99.4658 84.5966 99.3738 84.0224C99.2978 83.5453 99.2987 82.9753 99.0714 82.5401C98.677 81.7841 97.7427 81.9367 97.0881 82.2147C96.1505 82.6124 95.3447 83.303 94.7292 84.1069C94.578 84.3036 94.4371 84.5102 94.3075 84.7239Z" fill="#54575E"/>
<path d="M115.65 83.1354C116.962 84.1806 117.931 85.6526 118.815 87.1298C120.054 89.2004 121.179 91.3443 122.183 93.5445C122.373 93.9624 122.562 94.3948 122.599 94.8465C122.656 95.5616 122.315 96.2209 121.857 96.6946C121.399 97.1684 120.829 97.4952 120.294 97.8661C119.293 98.5591 118.34 99.5499 118.268 100.874C118.143 103.151 120.593 104.946 120.91 107.24C121.114 108.721 120.389 110.061 119.721 111.294C117.764 114.901 115.678 118.862 114.276 122.795C113.269 120.517 113.342 117.831 113.337 115.388C113.331 112.945 113.63 110.541 113.802 108.121C113.953 106.011 114.006 103.884 113.964 101.751C113.923 99.6189 113.784 97.4792 113.552 95.3433C113.32 93.2079 112.993 91.0757 112.572 88.9572C112.362 87.8979 112.128 86.8424 111.872 85.7911C111.742 85.2596 111.606 84.729 111.464 84.1999C111.346 83.7604 111.134 83.266 111.149 82.8124C111.175 82.0255 111.956 81.8494 112.566 81.8747C113.44 81.9104 114.32 82.2438 115.094 82.7382C115.285 82.8598 115.471 82.9927 115.65 83.1354Z" fill="#54575E"/>
<path d="M80.8222 92.6791C80.5095 92.874 80.1921 94.3112 80.0409 94.6498C79.3037 96.2992 78.4107 97.8872 77.3557 99.355C75.1427 102.434 72.1851 104.774 68.4646 105.735C60.5276 107.783 50.5866 103.385 49.3236 94.6869C49.248 94.1666 48.7535 88.844 48.9775 88.8074C48.9775 88.8074 37.5899 90.6902 35.5737 87.1321C35.7414 87.4279 35.5935 88.3022 35.6071 88.6346C35.6639 89.9962 35.7822 91.3555 35.9447 92.7083C36.4541 96.9533 37.412 101.172 38.9666 105.16C43.6183 117.093 54.2133 124.799 67.3997 123.079C74.7319 122.123 81.8585 118.776 86.8172 113.228C86.8172 113.228 85.6218 89.6863 80.8222 92.6791Z" fill="#2A2E39"/>
<path d="M129.227 89.0126C129.57 89.1459 130.15 90.4987 130.361 90.8029C131.393 92.2862 132.566 93.6798 133.876 94.925C136.625 97.5379 139.966 99.286 143.8 99.5358C151.98 100.069 160.928 93.8953 160.547 85.115C160.525 84.59 160.019 79.2684 159.792 79.274C159.792 79.274 171.331 79.0021 172.649 75.1299C172.539 75.4515 172.847 76.2831 172.896 76.6122C173.094 77.9602 173.23 79.3181 173.323 80.6774C173.613 84.9431 173.458 89.2661 172.674 93.4746C170.328 106.066 161.354 115.611 148.079 116.378C140.697 116.804 133.071 114.845 127.166 110.318C127.166 110.318 123.954 86.9668 129.227 89.0126Z" fill="#2A2E39"/>
<path d="M114.276 123.844C114.276 123.844 112.755 145.429 120.238 144.662" stroke="#54575E" stroke-width="0.469534" stroke-miterlimit="10"/>
<path d="M116.412 127.638C116.842 127.638 117.191 127.29 117.191 126.86C117.191 126.43 116.842 126.081 116.412 126.081C115.982 126.081 115.634 126.43 115.634 126.86C115.634 127.29 115.982 127.638 116.412 127.638Z" fill="#54575E"/>
<path d="M117.655 134.263C117.655 134.693 117.306 135.041 116.876 135.041C116.446 135.041 116.098 134.693 116.098 134.263C116.098 133.833 116.446 133.484 116.876 133.484C117.306 133.484 117.655 133.833 117.655 134.263Z" fill="#54575E"/>
<path d="M118.732 141.755C119.162 141.755 119.511 141.406 119.511 140.976C119.511 140.546 119.162 140.198 118.732 140.198C118.302 140.198 117.954 140.546 117.954 140.976C117.954 141.406 118.302 141.755 118.732 141.755Z" fill="#54575E"/>
<path d="M80.8225 92.6792C80.8225 92.6792 82.0724 91.7575 83.3181 93.715C84.5638 95.6725 86.163 103.138 86.8175 113.228" stroke="#54575E" stroke-width="0.469534" stroke-miterlimit="10"/>
<path d="M35.9255 92.5425C35.9255 92.5425 42.5183 95.9091 49.111 92.4622" stroke="#54575E" stroke-width="0.469534" stroke-miterlimit="10"/>
<path d="M38.4007 91.8857C38.7987 91.8857 39.1214 91.563 39.1214 91.1649C39.1214 90.7669 38.7987 90.4442 38.4007 90.4442C38.0026 90.4442 37.6799 90.7669 37.6799 91.1649C37.6799 91.563 38.0026 91.8857 38.4007 91.8857Z" fill="#54575E"/>
<path d="M173.311 80.5117C173.311 80.5117 167.462 85.0479 160.342 82.8899" stroke="#54575E" stroke-width="0.469534" stroke-miterlimit="10"/>
<path d="M169.915 79.7539C169.99 80.145 170.367 80.4018 170.758 80.3276C171.149 80.2534 171.407 79.8759 171.332 79.4848C171.258 79.0937 170.881 78.8368 170.49 78.9106C170.098 78.9852 169.841 79.3627 169.915 79.7539Z" fill="#54575E"/>
<path d="M130.844 92.2402C130.844 92.2402 132.436 98.7319 133.954 113.227" stroke="#54575E" stroke-width="0.469534" stroke-miterlimit="10"/>
<path d="M90.844 140.198C90.844 140.198 100.055 140.51 99.4853 132.088" stroke="#54575E" stroke-width="0.469534" stroke-miterlimit="10"/>
<path d="M137.568 136.717C137.568 136.717 128.357 137.029 128.926 128.607" stroke="#54575E" stroke-width="0.469534" stroke-miterlimit="10"/>
<path d="M97.0166 89.3629C98.4895 94.8015 101.419 99.6625 104.526 104.308C107.688 109.036 110.596 113.808 113.501 118.678C114.621 114.71 114.638 109.992 115.04 105.878C115.475 101.429 115.786 96.9655 115.844 92.4946C115.865 90.9081 115.852 89.3032 115.474 87.7622C115.096 86.2212 114.318 84.73 113.054 83.7698C111.2 82.3607 108.682 82.3152 106.353 82.3292C105.079 82.3372 103.805 82.3447 102.531 82.3527C100.275 82.3663 97.5889 81.8466 96.7888 84.5783C96.3376 86.1198 96.6057 87.8453 97.0166 89.3629Z" fill="white"/>
<path d="M108.465 93.715L103.023 104.094L98.6951 94.0972L108.465 93.715Z" fill="white"/>
<path d="M108.208 93.4896L116.413 101.114L115.851 90.3489L108.208 93.4896Z" fill="white"/>
<path d="M108.465 93.715L105.881 100.5L108.696 103.363C109.149 103.824 109.79 104.049 110.431 103.973C111.313 103.868 112.033 103.216 112.223 102.347L112.914 99.2005L108.465 93.715Z" fill="#7F3CBA"/>
<path d="M111.727 102.73L114.863 107.999C114.544 116.238 113.481 118.837 113.481 118.837L107.999 109.664L109.138 103.702L111.727 102.73Z" fill="#7F3CBA"/>
<path d="M109.137 103.702C109.137 103.702 111.107 104.627 111.921 103.056" stroke="#622D9B" stroke-width="0.35215" stroke-miterlimit="10"/>
<path d="M108.091 76.6864C107.585 76.5643 107.081 76.4216 106.563 76.3591C105.953 76.2854 105.435 76.1277 104.854 75.9253C104.506 75.8041 104.128 75.8365 103.773 75.7417C103.466 75.6595 103.183 75.5299 102.869 75.4698C102.283 75.3586 101.672 75.1567 101.11 74.958C100.838 74.8618 100.565 74.8017 100.298 74.6914C100.104 74.6111 99.8923 74.5233 99.6833 74.4866C99.3415 74.427 99.002 74.4228 98.6611 74.3725C98.3677 74.3293 98.1066 74.181 97.8193 74.1134C97.6207 74.0669 97.4319 73.988 97.2371 73.9471C97.1943 74.704 97.1995 75.4614 97.2319 76.2183C100.089 80.1295 104.467 82.4917 109.145 83.5937C110.112 83.8214 111.101 83.9928 112.114 84.0482C112.143 84.0496 112.18 84.052 112.213 84.0539C112.083 82.2293 111.73 80.3704 111.527 78.573C111.324 76.7789 109.481 77.0226 108.091 76.6864Z" fill="#2A2E39"/>
<path d="M109.144 83.5938C104.467 82.4913 100.089 80.1295 97.2314 76.2183C97.3376 78.6914 97.7667 81.1606 98.0344 83.6036C98.2686 85.7466 100.161 87.0768 101.679 88.3872C103.049 89.5704 104.372 90.8485 105.931 91.7871C106.495 92.1266 107.364 92.6919 108.066 92.5064C109.321 92.1759 110.048 91.0044 110.576 89.9085C111.3 88.4051 112.294 86.7838 112.264 85.0925C112.258 84.7479 112.238 84.4014 112.213 84.0534C112.18 84.0515 112.143 84.0497 112.114 84.0478C111.101 83.9924 110.112 83.8215 109.144 83.5938Z" fill="#B4441C"/>
<path d="M88.2983 56.5439C87.9189 55.1672 87.641 53.6783 88.1194 52.3326C89.0768 49.6413 92.5889 48.629 93.7656 46.0259C94.0938 45.3 94.2182 44.4872 94.6135 43.796C95.0089 43.1044 95.8287 42.541 96.5776 42.8119C96.9678 42.9532 97.2566 43.2904 97.6317 43.4678C98.6267 43.9383 99.7812 43.1232 100.349 42.1804C100.917 41.2376 101.209 40.1069 101.992 39.3341C102.776 38.5612 104.37 38.4607 104.776 39.4839C105.007 40.0665 104.802 40.8694 105.312 41.2343C105.905 41.6583 106.645 40.9807 107.104 40.414C107.736 39.6332 108.469 38.9336 109.278 38.3377C110.036 37.7799 110.933 37.2963 111.869 37.393C112.806 37.4897 113.694 38.4002 113.447 39.3087C113.283 39.9172 112.675 40.5257 113 41.0662C113.2 41.3991 113.647 41.4625 114.035 41.4817C115.251 41.5413 116.548 41.5263 117.572 42.1855C118.595 42.8452 119.064 44.5008 118.118 45.2676C117.813 45.5155 117.343 45.7981 117.497 46.1601C117.551 46.2874 117.675 46.3696 117.794 46.4386C118.445 46.8133 119.179 47.0189 119.851 47.3537C120.522 47.6885 121.164 48.2031 121.374 48.9238C121.584 49.6446 121.175 50.5648 120.432 50.6724C120.285 50.6935 120.13 50.6841 119.993 50.7409C119.415 50.9794 119.786 51.8701 120.276 52.2589C120.794 52.6698 121.378 53.0083 121.816 53.5041C122.254 54 122.525 54.7202 122.268 55.3292C121.885 56.234 120.676 56.3584 119.694 56.3439C119.611 57.1566 120.083 57.9065 120.436 58.6432C120.79 59.3799 121.014 60.3246 120.503 60.9631C120.044 61.5374 119.144 61.5918 118.488 61.2599C117.832 60.9284 117.379 60.3025 117.01 59.6672C116.127 58.1469 115.573 56.434 114.521 55.0254C113.47 53.6168 111.678 52.5298 109.991 53.0261C109.4 53.1999 108.874 53.553 108.283 53.7295C107.459 53.9755 106.55 53.8661 105.751 54.1864C105.005 54.4854 104.432 55.1315 103.673 55.3959C103.155 55.5762 102.593 55.5635 102.044 55.5644C99.6103 55.5677 97.0091 55.9509 95.1986 57.5769C94.3431 58.3455 93.7266 59.3385 93.1228 60.3175C92.7246 60.9622 92.3283 61.6078 91.9288 62.252C91.6339 62.7276 91.2437 62.9216 90.7699 62.5178C90.3042 62.1205 90.0835 61.3956 89.8412 60.8519C89.5496 60.1969 89.2811 59.532 89.0364 58.8582C88.7599 58.0971 88.5134 57.3252 88.2983 56.5439Z" fill="#FFAD2E"/>
<path d="M114.353 53.6483C114.104 53.1079 113.784 52.7097 113.412 52.4195C111.881 51.226 109.471 51.8645 107.524 51.9913C105.668 52.1124 103.805 52.412 102.035 52.9966C101.381 53.213 100.741 53.4769 100.134 53.7877C97.5902 55.0893 95.613 57.2308 95.5083 60.3241C95.4252 62.7713 95.9455 65.2096 95.9412 67.6563C95.1355 67.1272 95.1858 67.1169 94.3091 66.7159C93.6494 66.414 92.8733 66.4454 92.207 66.7276C91.7398 66.9253 91.3257 67.2422 91.0501 67.6695C90.3815 68.7067 90.5961 70.2209 91.5267 71.0314C92.4573 71.8418 93.987 71.846 94.9223 71.0412C96.1046 76.1286 100.578 80.3633 105.662 81.3038C112.839 82.6312 115.876 75.7553 116.69 69.8566C117.443 64.3983 116.663 58.661 114.353 53.6483Z" fill="#B4441C"/>
<path d="M94.1518 66.7722C94.3232 66.8497 94.4871 66.9399 94.6406 67.0356C95.2167 67.3967 96.9991 69.8251 97.517 68.5814C97.8485 67.7855 97.3949 66.8558 97.1235 66.1125C96.5516 64.5452 96.1056 62.9136 95.906 61.2543C95.7252 59.7504 96.1295 58.2192 96.8742 56.9149C97.671 55.5185 98.7796 54.7818 99.974 53.7948C99.3101 53.8483 98.6645 54.0934 98.0541 54.347C97.0357 54.7696 96.0788 55.3142 95.0838 55.7852C93.2954 56.6317 91.7774 58.1854 91.1435 60.1086C90.3749 62.4408 91.2341 64.5551 92.0746 66.7267C92.0352 66.6253 93.0498 66.5117 93.1329 66.514C93.479 66.5248 93.8279 66.6257 94.1518 66.7722Z" fill="#712124"/>
<path d="M99.388 56.449C99.4166 57.1594 99.6937 57.8323 99.9172 58.5075C100.141 59.1827 100.313 59.9119 100.13 60.5992C99.9467 61.2862 99.2978 61.8952 98.5926 61.8027C98.1733 61.7477 97.8169 61.4641 97.546 61.1397C97.1122 60.6199 96.8403 59.9663 96.7783 59.2921C96.7337 58.8089 96.7929 58.3126 96.6661 57.8445C96.5694 57.4881 96.3684 57.1627 96.3069 56.7984C96.2534 56.4786 96.3121 56.1495 96.4093 55.8401C96.8657 54.3892 98.1611 53.3083 99.5993 52.813C100.183 52.612 100.793 52.4956 101.408 52.4425C101.665 52.4204 102.544 52.2514 102.156 52.7308C101.853 53.105 101.375 53.2647 100.985 53.5234C100.523 53.8304 100.124 54.2249 99.8416 54.7052C99.534 55.2297 99.3636 55.8391 99.388 56.449Z" fill="#FFAD2E"/>
<path d="M110.182 60.2861C110.384 61.1599 110.475 62.2398 110.856 63.0418C111.191 62.7154 111.935 62.2464 112.403 62.5164C113.259 63.0089 111.886 64.9913 111.534 65.4852" stroke="#712124" stroke-width="0.469534" stroke-miterlimit="10"/>
<path d="M113.026 69.2199C113.026 69.2199 111.431 66.314 107.397 71.0586" stroke="#712124" stroke-width="0.469534" stroke-miterlimit="10"/>
<path d="M112.213 70.4655C112.213 70.4655 111.608 69.6946 109.947 71.0586" stroke="#712124" stroke-width="0.35215" stroke-miterlimit="10"/>
<path d="M107.831 59.9894C107.831 59.9894 105.826 62.2305 102.757 61.8746" stroke="#712124" stroke-width="0.469534" stroke-miterlimit="10"/>
<path d="M111.831 59.6118C111.831 59.6118 113.239 60.842 115.656 60.664" stroke="#712124" stroke-width="0.469534" stroke-miterlimit="10"/>
<path d="M105.425 57.5778L106.687 56.6049C107.019 56.3495 107.081 55.8692 106.825 55.5377C106.57 55.2062 106.09 55.1437 105.758 55.3996L104.496 56.373C104.164 56.6284 104.102 57.1087 104.358 57.4402C104.613 57.7708 105.093 57.8332 105.425 57.5778Z" fill="#712124"/>
<path d="M113.041 57.0543L111.623 56.3265C111.25 56.1354 111.102 55.6743 111.293 55.302C111.484 54.9296 111.945 54.7813 112.317 54.9724L113.735 55.7002C114.108 55.8913 114.256 56.3523 114.065 56.7247C113.874 57.097 113.413 57.2454 113.041 57.0543Z" fill="#712124"/>
<path d="M91.5029 68.686C91.5029 68.686 93.4599 66.8562 94.5868 69.6988" stroke="#712124" stroke-width="0.35215" stroke-miterlimit="10"/>
<path d="M94.7743 183.484C94.7743 183.484 102.505 182.949 110.147 169.89L106.738 167.91C106.738 167.91 90.2058 177.579 94.7743 183.484Z" fill="#592000"/>
<path d="M144.831 177.932C144.831 177.932 137.175 179.134 126.814 168.108L129.696 165.418C129.696 165.418 147.968 171.158 144.831 177.932Z" fill="#592000"/>
<path d="M169.645 121.666C161.741 122.742 154.259 127.267 147.875 131.819C137.494 139.221 127.631 142.977 118.82 144.564V144.56C108.653 146.077 96.0985 145.278 81.5275 139.21C74.2891 136.195 65.9864 133.452 58.0419 134.165C49.1334 134.965 42.5961 143.878 46.9078 152.649C49.3222 157.56 54.903 160.865 59.3021 163.826C65.16 167.767 71.417 170.973 77.6289 174.301L94.7744 183.484C94.7744 183.484 89.7302 180.155 110.044 167.64L111.572 170.419L117.434 171.484L117.59 172.347L118.958 171.761L120.085 171.966L120.054 171.292L125.543 168.942L126.413 165.892C149.006 173.563 144.831 177.934 144.831 177.934L159.498 165.159C164.812 160.531 170.197 156.011 175.029 150.863C178.657 146.996 183.361 142.531 184.62 137.205C186.867 127.691 178.507 120.46 169.645 121.666Z" fill="#7E3000"/>
<path d="M88.1592 179.941C88.1592 179.941 89.6838 168.226 105.858 163.294" stroke="#592000" stroke-width="0.469534" stroke-miterlimit="10"/>
<path d="M111.132 166.52L77.019 145.651" stroke="#592000" stroke-width="0.469534" stroke-miterlimit="10"/>
<path d="M150.489 173.004C150.489 173.004 146.392 161.924 129.525 160.721" stroke="#592000" stroke-width="0.469534" stroke-miterlimit="10"/>
<path d="M125.103 165.042L153.705 137.094" stroke="#592000" stroke-width="0.469534" stroke-miterlimit="10"/>
<path d="M118.15 156.086C118.15 156.086 119.358 162.411 118.928 171.04" stroke="#592000" stroke-width="0.469534" stroke-miterlimit="10"/>
<path d="M98.0873 166.765L71.9982 147.992C71.0934 147.34 70.3337 146.492 69.8585 145.484C69.2613 144.215 69.0288 142.58 70.8595 141.483C74.2392 139.456 79.7586 143.261 79.7586 143.261C84.9996 147.022 90.8603 150.152 96.8158 152.599C102.972 155.129 109.574 156.664 116.259 156.257C121.869 155.916 126.947 153.877 131.741 151.025C138.569 146.963 144.799 141.613 150.158 135.754C150.273 135.628 150.388 135.502 150.502 135.374C150.502 135.374 155.034 130.435 158.781 131.657C160.81 132.319 160.948 133.965 160.648 135.334C160.41 136.424 159.859 137.42 159.122 138.256L137.874 162.373" stroke="#592000" stroke-width="0.469534" stroke-miterlimit="10"/>
<path d="M110.474 194.427C112.957 196.899 116.448 198.289 120.131 198.016C119.881 198.713 119.639 199.411 119.417 200.11C118.868 201.832 117.591 203.253 115.899 203.889C113.556 204.77 111.997 203.916 110.992 202.718C109.757 201.247 109.409 199.224 109.924 197.375L110.474 194.427Z" fill="#7F3CBA"/>
<path d="M113.568 177.843C114.31 177.978 115.087 177.996 115.875 177.86C118.38 177.427 120.308 175.637 121.041 173.376C121.361 172.388 121.456 171.312 121.268 170.218C121.167 169.636 120.986 169.089 120.75 168.576L121.54 168.296C121.539 168.292 121.538 168.288 121.537 168.284L125.48 165.437C125.48 165.437 135.956 169.386 138.494 170.841L131.085 175.503C131.105 175.511 131.118 175.516 131.118 175.516C130.68 176.408 130.116 177.466 129.473 178.653C126.82 183.543 122.771 190.678 120.131 198.016C116.447 198.289 112.956 196.899 110.473 194.427L113.568 177.843Z" fill="white"/>
<path d="M114.23 174.295L114.5 172.844C115.027 170.954 118.745 169.288 120.595 168.632L120.75 168.576C120.986 169.089 121.167 169.637 121.268 170.219C121.456 171.312 121.361 172.389 121.041 173.376C120.308 175.637 118.38 177.428 115.875 177.86C115.088 177.996 114.31 177.979 113.568 177.844L114.23 174.295Z" fill="#7F3CBA"/>
<mask id="mask2_19_9100" style="mask-type:luminance" maskUnits="userSpaceOnUse" x="110" y="165" width="29" height="34">
<path d="M113.568 177.843C114.31 177.978 115.087 177.996 115.875 177.86C118.38 177.427 120.308 175.637 121.041 173.376C121.361 172.388 121.456 171.312 121.268 170.218C121.167 169.636 120.986 169.089 120.75 168.576L121.54 168.296C121.539 168.292 121.538 168.288 121.537 168.284L125.48 165.437C125.48 165.437 135.956 169.386 138.494 170.841L131.085 175.503C131.105 175.511 131.118 175.516 131.118 175.516C130.68 176.408 130.116 177.466 129.473 178.653C126.82 183.543 122.771 190.678 120.131 198.016C116.447 198.289 112.956 196.899 110.473 194.427L113.568 177.843Z" fill="white"/>
</mask>
<g mask="url(#mask2_19_9100)">
<path d="M137.542 170.397L130.964 174.858" stroke="#B3B3B3" stroke-width="0.35215" stroke-miterlimit="10"/>
<path d="M136.298 169.498L129.721 173.959" stroke="#B3B3B3" stroke-width="0.35215" stroke-miterlimit="10"/>
<path d="M135.056 168.599L128.478 173.06" stroke="#B3B3B3" stroke-width="0.35215" stroke-miterlimit="10"/>
<path d="M133.812 167.7L127.235 172.161" stroke="#B3B3B3" stroke-width="0.35215" stroke-miterlimit="10"/>
<path d="M132.569 166.802L125.992 171.262" stroke="#B3B3B3" stroke-width="0.35215" stroke-miterlimit="10"/>
<path d="M131.326 165.902L124.749 170.363" stroke="#B3B3B3" stroke-width="0.35215" stroke-miterlimit="10"/>
<path d="M130.083 165.003L123.505 169.464" stroke="#B3B3B3" stroke-width="0.35215" stroke-miterlimit="10"/>
<path d="M128.84 164.105L122.262 168.565" stroke="#B3B3B3" stroke-width="0.35215" stroke-miterlimit="10"/>
</g>
<mask id="mask3_19_9100" style="mask-type:luminance" maskUnits="userSpaceOnUse" x="110" y="165" width="29" height="34">
<path d="M113.568 177.843C114.31 177.978 115.087 177.996 115.875 177.86C118.38 177.427 120.308 175.637 121.041 173.376C121.361 172.388 121.456 171.312 121.268 170.218C121.167 169.636 120.986 169.089 120.75 168.576L121.54 168.296C121.539 168.292 121.538 168.288 121.537 168.284L125.48 165.437C125.48 165.437 135.956 169.386 138.494 170.841L131.085 175.503C131.105 175.511 131.118 175.516 131.118 175.516C130.68 176.408 130.116 177.466 129.473 178.653C126.82 183.543 122.771 190.678 120.131 198.016C116.447 198.289 112.956 196.899 110.473 194.427L113.568 177.843Z" fill="white"/>
</mask>
<g mask="url(#mask3_19_9100)">
<path d="M106.68 189.31C106.68 189.31 116.029 198.333 127.59 194.898" stroke="#7F3CBA" stroke-width="0.939067" stroke-miterlimit="10"/>
<path d="M108 187.218C108 187.218 117.349 196.24 128.91 192.806" stroke="#7F3CBA" stroke-width="0.939067" stroke-miterlimit="10"/>
</g>
<path d="M131.926 192.035C130.033 194.983 126.923 197.093 123.268 197.619C123.662 198.245 124.048 198.875 124.416 199.51C125.323 201.073 126.875 202.186 128.664 202.443C131.143 202.8 132.481 201.629 133.205 200.244C134.094 198.542 133.999 196.491 133.097 194.796L131.926 192.035Z" fill="#7F3CBA"/>
<path d="M125.335 176.506C124.639 176.799 123.884 176.983 123.085 177.02C120.545 177.137 118.277 175.804 117.075 173.753C116.55 172.857 116.226 171.827 116.174 170.719C116.147 170.128 116.206 169.555 116.326 169.003L115.494 168.9C115.494 168.896 115.495 168.892 115.494 168.887L111.031 166.956C111.031 166.956 101.65 173.067 99.4854 175.035L107.723 177.992C107.706 178.004 107.695 178.012 107.695 178.012C108.314 178.789 109.093 179.701 109.977 180.721C113.62 184.926 119.11 191.022 123.267 197.62C126.923 197.093 130.033 194.984 131.925 192.036L125.335 176.506Z" fill="white"/>
<path d="M123.925 173.184L123.348 171.826C122.426 170.093 118.438 169.266 116.49 169.023L116.326 169.003C116.206 169.555 116.147 170.128 116.174 170.719C116.225 171.827 116.55 172.858 117.075 173.753C118.277 175.803 120.545 177.137 123.085 177.02C123.883 176.983 124.638 176.799 125.335 176.506L123.925 173.184Z" fill="#7F3CBA"/>
<path d="M118.107 169.29C118.107 169.29 122.357 169.491 123.61 172.443C124.864 175.396 128.251 183.376 128.251 183.376" stroke="black" stroke-width="0.234767" stroke-miterlimit="10"/>
<mask id="mask4_19_9100" style="mask-type:luminance" maskUnits="userSpaceOnUse" x="99" y="166" width="33" height="32">
<path d="M125.335 176.506C124.639 176.799 123.884 176.983 123.085 177.02C120.545 177.137 118.277 175.804 117.075 173.753C116.55 172.857 116.226 171.827 116.174 170.719C116.147 170.128 116.206 169.555 116.326 169.003L115.494 168.9C115.494 168.896 115.495 168.892 115.494 168.887L111.031 166.956C111.031 166.956 101.65 173.067 99.4854 175.035L107.723 177.992C107.706 178.004 107.695 178.012 107.695 178.012C108.314 178.789 109.093 179.701 109.977 180.721C113.62 184.926 119.11 191.022 123.267 197.62C126.923 197.093 130.033 194.984 131.925 192.036L125.335 176.506Z" fill="white"/>
</mask>
<g mask="url(#mask4_19_9100)">
<path d="M100.32 174.396L107.704 177.336" stroke="#B3B3B3" stroke-width="0.35215" stroke-miterlimit="10"/>
<path d="M101.341 173.25L108.724 176.19" stroke="#B3B3B3" stroke-width="0.35215" stroke-miterlimit="10"/>
<path d="M102.361 172.105L109.745 175.045" stroke="#B3B3B3" stroke-width="0.35215" stroke-miterlimit="10"/>
<path d="M103.382 170.959L110.765 173.9" stroke="#B3B3B3" stroke-width="0.35215" stroke-miterlimit="10"/>
<path d="M104.402 169.814L111.786 172.754" stroke="#B3B3B3" stroke-width="0.35215" stroke-miterlimit="10"/>
<path d="M105.423 168.668L112.806 171.608" stroke="#B3B3B3" stroke-width="0.35215" stroke-miterlimit="10"/>
<path d="M106.443 167.523L113.827 170.463" stroke="#B3B3B3" stroke-width="0.35215" stroke-miterlimit="10"/>
<path d="M107.464 166.377L114.847 169.317" stroke="#B3B3B3" stroke-width="0.35215" stroke-miterlimit="10"/>
</g>
<mask id="mask5_19_9100" style="mask-type:luminance" maskUnits="userSpaceOnUse" x="99" y="166" width="33" height="32">
<path d="M125.335 176.506C124.639 176.799 123.884 176.983 123.085 177.02C120.545 177.137 118.277 175.804 117.075 173.753C116.55 172.857 116.226 171.827 116.174 170.719C116.147 170.128 116.206 169.555 116.326 169.003L115.494 168.9C115.494 168.896 115.495 168.892 115.494 168.887L111.031 166.956C111.031 166.956 101.65 173.067 99.4854 175.035L107.723 177.992C107.706 178.004 107.695 178.012 107.695 178.012C108.314 178.789 109.093 179.701 109.977 180.721C113.62 184.926 119.11 191.022 123.267 197.62C126.923 197.093 130.033 194.984 131.925 192.036L125.335 176.506Z" fill="white"/>
</mask>
<g mask="url(#mask5_19_9100)">
<path d="M134.529 186.222C134.529 186.222 127.342 197.046 115.313 196.181" stroke="#7F3CBA" stroke-width="0.939067" stroke-miterlimit="10"/>
<path d="M132.79 184.463C132.79 184.463 125.602 195.286 113.573 194.422" stroke="#7F3CBA" stroke-width="0.939067" stroke-miterlimit="10"/>
</g>
</svg>
