<svg width="20" height="20" viewBox="0 0 20 20" fill="none" xmlns="http://www.w3.org/2000/svg">
<path d="M10.0001 10.4167H3.75008V15.4167C3.75008 15.9692 3.96957 16.4991 4.36028 16.8898C4.75098 17.2805 5.28088 17.5 5.83341 17.5H10.0001M10.0001 10.4167V17.5M10.0001 10.4167V6.66667M10.0001 10.4167H3.54175C3.21023 10.4167 2.89229 10.285 2.65786 10.0506C2.42344 9.81613 2.29175 9.49819 2.29175 9.16667V7.91667C2.29175 7.58515 2.42344 7.2672 2.65786 7.03278C2.89229 6.79836 3.21023 6.66667 3.54175 6.66667H10.0001M10.0001 10.4167H16.2501V15.4167C16.2501 15.9692 16.0306 16.4991 15.6399 16.8898C15.2492 17.2805 14.7193 17.5 14.1667 17.5H10.0001M10.0001 10.4167H16.4584C16.7899 10.4167 17.1079 10.285 17.3423 10.0506C17.5767 9.81613 17.7084 9.49819 17.7084 9.16667V7.91667C17.7084 7.58515 17.5767 7.2672 17.3423 7.03278C17.1079 6.79836 16.7899 6.66667 16.4584 6.66667H10.0001M10.0001 6.66667V4.58333M10.0001 6.66667H7.91675C7.36421 6.66667 6.83431 6.44717 6.44361 6.05647C6.05291 5.66577 5.83341 5.13587 5.83341 4.58333C5.83341 4.0308 6.05291 3.50089 6.44361 3.11019C6.83431 2.71949 7.36421 2.5 7.91675 2.5C8.19034 2.5 8.46124 2.55389 8.71401 2.65858C8.96677 2.76328 9.19643 2.91674 9.38989 3.11019C9.58334 3.30365 9.7368 3.53331 9.8415 3.78608C9.94619 4.03884 10.0001 4.30975 10.0001 4.58333M10.0001 6.66667H12.0834C12.6359 6.66667 13.1659 6.44717 13.5566 6.05647C13.9473 5.66577 14.1667 5.13587 14.1667 4.58333C14.1667 4.0308 13.9473 3.50089 13.5566 3.11019C13.1659 2.71949 12.6359 2.5 12.0834 2.5C11.5309 2.5 11.001 2.71949 10.6103 3.11019C10.2196 3.50089 10.0001 4.0308 10.0001 4.58333" stroke="#6B7280" stroke-width="1.25" stroke-linecap="round" stroke-linejoin="round"/>
</svg>
