<svg width="20" height="20" viewBox="0 0 20 20" fill="none" xmlns="http://www.w3.org/2000/svg">
<path d="M10 2.70801C9.83424 2.70801 9.67527 2.77386 9.55806 2.89107C9.44085 3.00828 9.375 3.16725 9.375 3.33301C9.375 3.49877 9.44085 3.65774 9.55806 3.77495C9.67527 3.89216 9.83424 3.95801 10 3.95801C10.7934 3.95801 11.579 4.11428 12.312 4.4179C13.0451 4.72152 13.7111 5.16655 14.2721 5.72757C14.8331 6.28859 15.2781 6.95462 15.5818 7.68763C15.8854 8.42064 16.0417 9.20627 16.0417 9.99967C16.0417 10.7931 15.8854 11.5787 15.5818 12.3117C15.2781 13.0447 14.8331 13.7108 14.2721 14.2718C13.7111 14.8328 13.0451 15.2778 12.312 15.5814C11.579 15.8851 10.7934 16.0413 10 16.0413C9.83424 16.0413 9.67527 16.1072 9.55806 16.2244C9.44085 16.3416 9.375 16.5006 9.375 16.6663C9.375 16.8321 9.44085 16.9911 9.55806 17.1083C9.67527 17.2255 9.83424 17.2913 10 17.2913C11.9339 17.2913 13.7885 16.5231 15.156 15.1557C16.5234 13.7882 17.2917 11.9335 17.2917 9.99967C17.2917 8.0658 16.5234 6.21114 15.156 4.84369C13.7885 3.47623 11.9339 2.70801 10 2.70801Z" fill="#6B7280"/>
<path d="M8.72492 7.9417C8.61452 7.82322 8.55442 7.66652 8.55727 7.5046C8.56013 7.34268 8.62572 7.18819 8.74023 7.07368C8.85474 6.95917 9.00923 6.89358 9.17115 6.89072C9.33307 6.88787 9.48977 6.94797 9.60825 7.05837L12.1083 9.55837C12.2253 9.67556 12.291 9.83441 12.291 10C12.291 10.1657 12.2253 10.3245 12.1083 10.4417L9.60825 12.9417C9.55103 13.0031 9.48203 13.0524 9.40537 13.0865C9.3287 13.1207 9.24594 13.139 9.16202 13.1405C9.0781 13.142 8.99474 13.1266 8.91692 13.0951C8.8391 13.0637 8.7684 13.0169 8.70905 12.9576C8.6497 12.8982 8.60292 12.8275 8.57148 12.7497C8.54005 12.6719 8.52461 12.5885 8.52609 12.5046C8.52757 12.4207 8.54594 12.3379 8.5801 12.2613C8.61426 12.1846 8.66351 12.1156 8.72492 12.0584L10.1583 10.625H3.33325C3.16749 10.625 3.00852 10.5592 2.89131 10.442C2.7741 10.3248 2.70825 10.1658 2.70825 10C2.70825 9.83427 2.7741 9.6753 2.89131 9.55809C3.00852 9.44088 3.16749 9.37504 3.33325 9.37504H10.1583L8.72492 7.9417Z" fill="#6B7280"/>
</svg>
